<?xml version="1.0" encoding="utf-8"?>
<svg xmlns="http://www.w3.org/2000/svg" xmlns:xlink="http://www.w3.org/1999/xlink" width="600" height="400" viewBox="0 0 2400 1600">
<defs>
  <clipPath id="clip940">
    <rect x="0" y="0" width="2400" height="1600"/>
  </clipPath>
</defs>
<path clip-path="url(#clip940)" d="M0 1600 L2400 1600 L2400 0 L0 0  Z" fill="#ffffff" fill-rule="evenodd" fill-opacity="1"/>
<defs>
  <clipPath id="clip941">
    <rect x="480" y="0" width="1681" height="1600"/>
  </clipPath>
</defs>
<defs>
  <clipPath id="clip942">
    <rect x="193" y="123" width="2160" height="1364"/>
  </clipPath>
</defs>
<path clip-path="url(#clip940)" d="M193.936 1486.45 L2352.76 1486.45 L2352.76 123.472 L193.936 123.472  Z" fill="#ffffff" fill-rule="evenodd" fill-opacity="1"/>
<polyline clip-path="url(#clip942)" style="stroke:#000000; stroke-linecap:round; stroke-linejoin:round; stroke-width:2; stroke-opacity:0.1; fill:none" points="662.359,1486.45 662.359,123.472 "/>
<polyline clip-path="url(#clip942)" style="stroke:#000000; stroke-linecap:round; stroke-linejoin:round; stroke-width:2; stroke-opacity:0.1; fill:none" points="1171.51,1486.45 1171.51,123.472 "/>
<polyline clip-path="url(#clip942)" style="stroke:#000000; stroke-linecap:round; stroke-linejoin:round; stroke-width:2; stroke-opacity:0.1; fill:none" points="1680.67,1486.45 1680.67,123.472 "/>
<polyline clip-path="url(#clip942)" style="stroke:#000000; stroke-linecap:round; stroke-linejoin:round; stroke-width:2; stroke-opacity:0.1; fill:none" points="2189.83,1486.45 2189.83,123.472 "/>
<polyline clip-path="url(#clip942)" style="stroke:#000000; stroke-linecap:round; stroke-linejoin:round; stroke-width:2; stroke-opacity:0.05; fill:none" points="255.035,1486.45 255.035,123.472 "/>
<polyline clip-path="url(#clip942)" style="stroke:#000000; stroke-linecap:round; stroke-linejoin:round; stroke-width:2; stroke-opacity:0.05; fill:none" points="356.866,1486.45 356.866,123.472 "/>
<polyline clip-path="url(#clip942)" style="stroke:#000000; stroke-linecap:round; stroke-linejoin:round; stroke-width:2; stroke-opacity:0.05; fill:none" points="458.697,1486.45 458.697,123.472 "/>
<polyline clip-path="url(#clip942)" style="stroke:#000000; stroke-linecap:round; stroke-linejoin:round; stroke-width:2; stroke-opacity:0.05; fill:none" points="560.528,1486.45 560.528,123.472 "/>
<polyline clip-path="url(#clip942)" style="stroke:#000000; stroke-linecap:round; stroke-linejoin:round; stroke-width:2; stroke-opacity:0.05; fill:none" points="764.19,1486.45 764.19,123.472 "/>
<polyline clip-path="url(#clip942)" style="stroke:#000000; stroke-linecap:round; stroke-linejoin:round; stroke-width:2; stroke-opacity:0.05; fill:none" points="866.021,1486.45 866.021,123.472 "/>
<polyline clip-path="url(#clip942)" style="stroke:#000000; stroke-linecap:round; stroke-linejoin:round; stroke-width:2; stroke-opacity:0.05; fill:none" points="967.853,1486.45 967.853,123.472 "/>
<polyline clip-path="url(#clip942)" style="stroke:#000000; stroke-linecap:round; stroke-linejoin:round; stroke-width:2; stroke-opacity:0.05; fill:none" points="1069.68,1486.45 1069.68,123.472 "/>
<polyline clip-path="url(#clip942)" style="stroke:#000000; stroke-linecap:round; stroke-linejoin:round; stroke-width:2; stroke-opacity:0.05; fill:none" points="1273.35,1486.45 1273.35,123.472 "/>
<polyline clip-path="url(#clip942)" style="stroke:#000000; stroke-linecap:round; stroke-linejoin:round; stroke-width:2; stroke-opacity:0.05; fill:none" points="1375.18,1486.45 1375.18,123.472 "/>
<polyline clip-path="url(#clip942)" style="stroke:#000000; stroke-linecap:round; stroke-linejoin:round; stroke-width:2; stroke-opacity:0.05; fill:none" points="1477.01,1486.45 1477.01,123.472 "/>
<polyline clip-path="url(#clip942)" style="stroke:#000000; stroke-linecap:round; stroke-linejoin:round; stroke-width:2; stroke-opacity:0.05; fill:none" points="1578.84,1486.45 1578.84,123.472 "/>
<polyline clip-path="url(#clip942)" style="stroke:#000000; stroke-linecap:round; stroke-linejoin:round; stroke-width:2; stroke-opacity:0.05; fill:none" points="1782.5,1486.45 1782.5,123.472 "/>
<polyline clip-path="url(#clip942)" style="stroke:#000000; stroke-linecap:round; stroke-linejoin:round; stroke-width:2; stroke-opacity:0.05; fill:none" points="1884.33,1486.45 1884.33,123.472 "/>
<polyline clip-path="url(#clip942)" style="stroke:#000000; stroke-linecap:round; stroke-linejoin:round; stroke-width:2; stroke-opacity:0.05; fill:none" points="1986.16,1486.45 1986.16,123.472 "/>
<polyline clip-path="url(#clip942)" style="stroke:#000000; stroke-linecap:round; stroke-linejoin:round; stroke-width:2; stroke-opacity:0.05; fill:none" points="2087.99,1486.45 2087.99,123.472 "/>
<polyline clip-path="url(#clip942)" style="stroke:#000000; stroke-linecap:round; stroke-linejoin:round; stroke-width:2; stroke-opacity:0.05; fill:none" points="2291.66,1486.45 2291.66,123.472 "/>
<polyline clip-path="url(#clip940)" style="stroke:#000000; stroke-linecap:round; stroke-linejoin:round; stroke-width:4; stroke-opacity:1; fill:none" points="193.936,1486.45 2352.76,1486.45 "/>
<polyline clip-path="url(#clip940)" style="stroke:#000000; stroke-linecap:round; stroke-linejoin:round; stroke-width:4; stroke-opacity:1; fill:none" points="662.359,1486.45 662.359,1467.55 "/>
<polyline clip-path="url(#clip940)" style="stroke:#000000; stroke-linecap:round; stroke-linejoin:round; stroke-width:4; stroke-opacity:1; fill:none" points="1171.51,1486.45 1171.51,1467.55 "/>
<polyline clip-path="url(#clip940)" style="stroke:#000000; stroke-linecap:round; stroke-linejoin:round; stroke-width:4; stroke-opacity:1; fill:none" points="1680.67,1486.45 1680.67,1467.55 "/>
<polyline clip-path="url(#clip940)" style="stroke:#000000; stroke-linecap:round; stroke-linejoin:round; stroke-width:4; stroke-opacity:1; fill:none" points="2189.83,1486.45 2189.83,1467.55 "/>
<polyline clip-path="url(#clip940)" style="stroke:#000000; stroke-linecap:round; stroke-linejoin:round; stroke-width:4; stroke-opacity:1; fill:none" points="255.035,1486.45 255.035,1477 "/>
<polyline clip-path="url(#clip940)" style="stroke:#000000; stroke-linecap:round; stroke-linejoin:round; stroke-width:4; stroke-opacity:1; fill:none" points="356.866,1486.45 356.866,1477 "/>
<polyline clip-path="url(#clip940)" style="stroke:#000000; stroke-linecap:round; stroke-linejoin:round; stroke-width:4; stroke-opacity:1; fill:none" points="458.697,1486.45 458.697,1477 "/>
<polyline clip-path="url(#clip940)" style="stroke:#000000; stroke-linecap:round; stroke-linejoin:round; stroke-width:4; stroke-opacity:1; fill:none" points="560.528,1486.45 560.528,1477 "/>
<polyline clip-path="url(#clip940)" style="stroke:#000000; stroke-linecap:round; stroke-linejoin:round; stroke-width:4; stroke-opacity:1; fill:none" points="764.19,1486.45 764.19,1477 "/>
<polyline clip-path="url(#clip940)" style="stroke:#000000; stroke-linecap:round; stroke-linejoin:round; stroke-width:4; stroke-opacity:1; fill:none" points="866.021,1486.45 866.021,1477 "/>
<polyline clip-path="url(#clip940)" style="stroke:#000000; stroke-linecap:round; stroke-linejoin:round; stroke-width:4; stroke-opacity:1; fill:none" points="967.853,1486.45 967.853,1477 "/>
<polyline clip-path="url(#clip940)" style="stroke:#000000; stroke-linecap:round; stroke-linejoin:round; stroke-width:4; stroke-opacity:1; fill:none" points="1069.68,1486.45 1069.68,1477 "/>
<polyline clip-path="url(#clip940)" style="stroke:#000000; stroke-linecap:round; stroke-linejoin:round; stroke-width:4; stroke-opacity:1; fill:none" points="1273.35,1486.45 1273.35,1477 "/>
<polyline clip-path="url(#clip940)" style="stroke:#000000; stroke-linecap:round; stroke-linejoin:round; stroke-width:4; stroke-opacity:1; fill:none" points="1375.18,1486.45 1375.18,1477 "/>
<polyline clip-path="url(#clip940)" style="stroke:#000000; stroke-linecap:round; stroke-linejoin:round; stroke-width:4; stroke-opacity:1; fill:none" points="1477.01,1486.45 1477.01,1477 "/>
<polyline clip-path="url(#clip940)" style="stroke:#000000; stroke-linecap:round; stroke-linejoin:round; stroke-width:4; stroke-opacity:1; fill:none" points="1578.84,1486.45 1578.84,1477 "/>
<polyline clip-path="url(#clip940)" style="stroke:#000000; stroke-linecap:round; stroke-linejoin:round; stroke-width:4; stroke-opacity:1; fill:none" points="1782.5,1486.45 1782.5,1477 "/>
<polyline clip-path="url(#clip940)" style="stroke:#000000; stroke-linecap:round; stroke-linejoin:round; stroke-width:4; stroke-opacity:1; fill:none" points="1884.33,1486.45 1884.33,1477 "/>
<polyline clip-path="url(#clip940)" style="stroke:#000000; stroke-linecap:round; stroke-linejoin:round; stroke-width:4; stroke-opacity:1; fill:none" points="1986.16,1486.45 1986.16,1477 "/>
<polyline clip-path="url(#clip940)" style="stroke:#000000; stroke-linecap:round; stroke-linejoin:round; stroke-width:4; stroke-opacity:1; fill:none" points="2087.99,1486.45 2087.99,1477 "/>
<polyline clip-path="url(#clip940)" style="stroke:#000000; stroke-linecap:round; stroke-linejoin:round; stroke-width:4; stroke-opacity:1; fill:none" points="2291.66,1486.45 2291.66,1477 "/>
<path clip-path="url(#clip940)" d="M652.637 1514.29 L670.993 1514.29 L670.993 1518.22 L656.919 1518.22 L656.919 1526.7 Q657.938 1526.35 658.956 1526.19 Q659.975 1526 660.993 1526 Q666.78 1526 670.16 1529.17 Q673.54 1532.34 673.54 1537.76 Q673.54 1543.34 670.067 1546.44 Q666.595 1549.52 660.276 1549.52 Q658.1 1549.52 655.831 1549.15 Q653.586 1548.78 651.179 1548.04 L651.179 1543.34 Q653.262 1544.47 655.484 1545.03 Q657.706 1545.58 660.183 1545.58 Q664.188 1545.58 666.526 1543.48 Q668.864 1541.37 668.864 1537.76 Q668.864 1534.15 666.526 1532.04 Q664.188 1529.94 660.183 1529.94 Q658.308 1529.94 656.433 1530.35 Q654.581 1530.77 652.637 1531.65 L652.637 1514.29 Z" fill="#000000" fill-rule="nonzero" fill-opacity="1" /><path clip-path="url(#clip940)" d="M1146.2 1544.91 L1153.84 1544.91 L1153.84 1518.55 L1145.53 1520.21 L1145.53 1515.95 L1153.8 1514.29 L1158.47 1514.29 L1158.47 1544.91 L1166.11 1544.91 L1166.11 1548.85 L1146.2 1548.85 L1146.2 1544.91 Z" fill="#000000" fill-rule="nonzero" fill-opacity="1" /><path clip-path="url(#clip940)" d="M1185.55 1517.37 Q1181.94 1517.37 1180.11 1520.93 Q1178.31 1524.47 1178.31 1531.6 Q1178.31 1538.71 1180.11 1542.27 Q1181.94 1545.82 1185.55 1545.82 Q1189.19 1545.82 1190.99 1542.27 Q1192.82 1538.71 1192.82 1531.6 Q1192.82 1524.47 1190.99 1520.93 Q1189.19 1517.37 1185.55 1517.37 M1185.55 1513.66 Q1191.36 1513.66 1194.42 1518.27 Q1197.5 1522.85 1197.5 1531.6 Q1197.5 1540.33 1194.42 1544.94 Q1191.36 1549.52 1185.55 1549.52 Q1179.74 1549.52 1176.67 1544.94 Q1173.61 1540.33 1173.61 1531.6 Q1173.61 1522.85 1176.67 1518.27 Q1179.74 1513.66 1185.55 1513.66 Z" fill="#000000" fill-rule="nonzero" fill-opacity="1" /><path clip-path="url(#clip940)" d="M1655.86 1544.91 L1663.49 1544.91 L1663.49 1518.55 L1655.18 1520.21 L1655.18 1515.95 L1663.45 1514.29 L1668.12 1514.29 L1668.12 1544.91 L1675.76 1544.91 L1675.76 1548.85 L1655.86 1548.85 L1655.86 1544.91 Z" fill="#000000" fill-rule="nonzero" fill-opacity="1" /><path clip-path="url(#clip940)" d="M1685.25 1514.29 L1703.61 1514.29 L1703.61 1518.22 L1689.54 1518.22 L1689.54 1526.7 Q1690.55 1526.35 1691.57 1526.19 Q1692.59 1526 1693.61 1526 Q1699.4 1526 1702.78 1529.17 Q1706.16 1532.34 1706.16 1537.76 Q1706.16 1543.34 1702.68 1546.44 Q1699.21 1549.52 1692.89 1549.52 Q1690.72 1549.52 1688.45 1549.15 Q1686.2 1548.78 1683.8 1548.04 L1683.8 1543.34 Q1685.88 1544.47 1688.1 1545.03 Q1690.32 1545.58 1692.8 1545.58 Q1696.8 1545.58 1699.14 1543.48 Q1701.48 1541.37 1701.48 1537.76 Q1701.48 1534.15 1699.14 1532.04 Q1696.8 1529.94 1692.8 1529.94 Q1690.93 1529.94 1689.05 1530.35 Q1687.2 1530.77 1685.25 1531.65 L1685.25 1514.29 Z" fill="#000000" fill-rule="nonzero" fill-opacity="1" /><path clip-path="url(#clip940)" d="M2168.6 1544.91 L2184.92 1544.91 L2184.92 1548.85 L2162.97 1548.85 L2162.97 1544.91 Q2165.64 1542.16 2170.22 1537.53 Q2174.83 1532.88 2176.01 1531.53 Q2178.25 1529.01 2179.13 1527.27 Q2180.03 1525.51 2180.03 1523.82 Q2180.03 1521.07 2178.09 1519.33 Q2176.17 1517.6 2173.07 1517.6 Q2170.87 1517.6 2168.41 1518.36 Q2165.98 1519.13 2163.21 1520.68 L2163.21 1515.95 Q2166.03 1514.82 2168.48 1514.24 Q2170.94 1513.66 2172.97 1513.66 Q2178.34 1513.66 2181.54 1516.35 Q2184.73 1519.03 2184.73 1523.52 Q2184.73 1525.65 2183.92 1527.57 Q2183.14 1529.47 2181.03 1532.07 Q2180.45 1532.74 2177.35 1535.95 Q2174.25 1539.15 2168.6 1544.91 Z" fill="#000000" fill-rule="nonzero" fill-opacity="1" /><path clip-path="url(#clip940)" d="M2204.73 1517.37 Q2201.12 1517.37 2199.29 1520.93 Q2197.49 1524.47 2197.49 1531.6 Q2197.49 1538.71 2199.29 1542.27 Q2201.12 1545.82 2204.73 1545.82 Q2208.37 1545.82 2210.17 1542.27 Q2212 1538.71 2212 1531.6 Q2212 1524.47 2210.17 1520.93 Q2208.37 1517.37 2204.73 1517.37 M2204.73 1513.66 Q2210.54 1513.66 2213.6 1518.27 Q2216.68 1522.85 2216.68 1531.6 Q2216.68 1540.33 2213.6 1544.94 Q2210.54 1549.52 2204.73 1549.52 Q2198.92 1549.52 2195.84 1544.94 Q2192.79 1540.33 2192.79 1531.6 Q2192.79 1522.85 2195.84 1518.27 Q2198.92 1513.66 2204.73 1513.66 Z" fill="#000000" fill-rule="nonzero" fill-opacity="1" /><polyline clip-path="url(#clip942)" style="stroke:#000000; stroke-linecap:round; stroke-linejoin:round; stroke-width:2; stroke-opacity:0.1; fill:none" points="193.936,1372.87 2352.76,1372.87 "/>
<polyline clip-path="url(#clip942)" style="stroke:#000000; stroke-linecap:round; stroke-linejoin:round; stroke-width:2; stroke-opacity:0.1; fill:none" points="193.936,1088.91 2352.76,1088.91 "/>
<polyline clip-path="url(#clip942)" style="stroke:#000000; stroke-linecap:round; stroke-linejoin:round; stroke-width:2; stroke-opacity:0.1; fill:none" points="193.936,804.96 2352.76,804.96 "/>
<polyline clip-path="url(#clip942)" style="stroke:#000000; stroke-linecap:round; stroke-linejoin:round; stroke-width:2; stroke-opacity:0.1; fill:none" points="193.936,521.007 2352.76,521.007 "/>
<polyline clip-path="url(#clip942)" style="stroke:#000000; stroke-linecap:round; stroke-linejoin:round; stroke-width:2; stroke-opacity:0.1; fill:none" points="193.936,237.053 2352.76,237.053 "/>
<polyline clip-path="url(#clip940)" style="stroke:#000000; stroke-linecap:round; stroke-linejoin:round; stroke-width:4; stroke-opacity:1; fill:none" points="193.936,1486.45 193.936,123.472 "/>
<polyline clip-path="url(#clip940)" style="stroke:#000000; stroke-linecap:round; stroke-linejoin:round; stroke-width:4; stroke-opacity:1; fill:none" points="193.936,1372.87 212.834,1372.87 "/>
<polyline clip-path="url(#clip940)" style="stroke:#000000; stroke-linecap:round; stroke-linejoin:round; stroke-width:4; stroke-opacity:1; fill:none" points="193.936,1088.91 212.834,1088.91 "/>
<polyline clip-path="url(#clip940)" style="stroke:#000000; stroke-linecap:round; stroke-linejoin:round; stroke-width:4; stroke-opacity:1; fill:none" points="193.936,804.96 212.834,804.96 "/>
<polyline clip-path="url(#clip940)" style="stroke:#000000; stroke-linecap:round; stroke-linejoin:round; stroke-width:4; stroke-opacity:1; fill:none" points="193.936,521.007 212.834,521.007 "/>
<polyline clip-path="url(#clip940)" style="stroke:#000000; stroke-linecap:round; stroke-linejoin:round; stroke-width:4; stroke-opacity:1; fill:none" points="193.936,237.053 212.834,237.053 "/>
<path clip-path="url(#clip940)" d="M50.9921 1373.32 L80.6679 1373.32 L80.6679 1377.25 L50.9921 1377.25 L50.9921 1373.32 Z" fill="#000000" fill-rule="nonzero" fill-opacity="1" /><path clip-path="url(#clip940)" d="M91.5706 1386.21 L99.2095 1386.21 L99.2095 1359.85 L90.8993 1361.51 L90.8993 1357.25 L99.1632 1355.59 L103.839 1355.59 L103.839 1386.21 L111.478 1386.21 L111.478 1390.15 L91.5706 1390.15 L91.5706 1386.21 Z" fill="#000000" fill-rule="nonzero" fill-opacity="1" /><path clip-path="url(#clip940)" d="M120.922 1384.27 L125.807 1384.27 L125.807 1390.15 L120.922 1390.15 L120.922 1384.27 Z" fill="#000000" fill-rule="nonzero" fill-opacity="1" /><path clip-path="url(#clip940)" d="M145.992 1358.67 Q142.381 1358.67 140.552 1362.23 Q138.746 1365.77 138.746 1372.9 Q138.746 1380.01 140.552 1383.57 Q142.381 1387.11 145.992 1387.11 Q149.626 1387.11 151.431 1383.57 Q153.26 1380.01 153.26 1372.9 Q153.26 1365.77 151.431 1362.23 Q149.626 1358.67 145.992 1358.67 M145.992 1354.96 Q151.802 1354.96 154.857 1359.57 Q157.936 1364.15 157.936 1372.9 Q157.936 1381.63 154.857 1386.23 Q151.802 1390.82 145.992 1390.82 Q140.181 1390.82 137.103 1386.23 Q134.047 1381.63 134.047 1372.9 Q134.047 1364.15 137.103 1359.57 Q140.181 1354.96 145.992 1354.96 Z" fill="#000000" fill-rule="nonzero" fill-opacity="1" /><path clip-path="url(#clip940)" d="M51.9875 1089.36 L81.6633 1089.36 L81.6633 1093.3 L51.9875 1093.3 L51.9875 1089.36 Z" fill="#000000" fill-rule="nonzero" fill-opacity="1" /><path clip-path="url(#clip940)" d="M101.756 1074.71 Q98.1447 1074.71 96.316 1078.28 Q94.5104 1081.82 94.5104 1088.95 Q94.5104 1096.05 96.316 1099.62 Q98.1447 1103.16 101.756 1103.16 Q105.39 1103.16 107.196 1099.62 Q109.024 1096.05 109.024 1088.95 Q109.024 1081.82 107.196 1078.28 Q105.39 1074.71 101.756 1074.71 M101.756 1071.01 Q107.566 1071.01 110.621 1075.61 Q113.7 1080.2 113.7 1088.95 Q113.7 1097.67 110.621 1102.28 Q107.566 1106.86 101.756 1106.86 Q95.9456 1106.86 92.8669 1102.28 Q89.8114 1097.67 89.8114 1088.95 Q89.8114 1080.2 92.8669 1075.61 Q95.9456 1071.01 101.756 1071.01 Z" fill="#000000" fill-rule="nonzero" fill-opacity="1" /><path clip-path="url(#clip940)" d="M121.918 1100.31 L126.802 1100.31 L126.802 1106.19 L121.918 1106.19 L121.918 1100.31 Z" fill="#000000" fill-rule="nonzero" fill-opacity="1" /><path clip-path="url(#clip940)" d="M137.033 1071.63 L155.39 1071.63 L155.39 1075.57 L141.316 1075.57 L141.316 1084.04 Q142.334 1083.69 143.353 1083.53 Q144.371 1083.35 145.39 1083.35 Q151.177 1083.35 154.556 1086.52 Q157.936 1089.69 157.936 1095.11 Q157.936 1100.68 154.464 1103.79 Q150.992 1106.86 144.672 1106.86 Q142.496 1106.86 140.228 1106.49 Q137.982 1106.12 135.575 1105.38 L135.575 1100.68 Q137.658 1101.82 139.881 1102.37 Q142.103 1102.93 144.58 1102.93 Q148.584 1102.93 150.922 1100.82 Q153.26 1098.72 153.26 1095.11 Q153.26 1091.49 150.922 1089.39 Q148.584 1087.28 144.58 1087.28 Q142.705 1087.28 140.83 1087.7 Q138.978 1088.11 137.033 1088.99 L137.033 1071.63 Z" fill="#000000" fill-rule="nonzero" fill-opacity="1" /><path clip-path="url(#clip940)" d="M100.76 790.759 Q97.1493 790.759 95.3206 794.323 Q93.515 797.865 93.515 804.995 Q93.515 812.101 95.3206 815.666 Q97.1493 819.208 100.76 819.208 Q104.395 819.208 106.2 815.666 Q108.029 812.101 108.029 804.995 Q108.029 797.865 106.2 794.323 Q104.395 790.759 100.76 790.759 M100.76 787.055 Q106.571 787.055 109.626 791.661 Q112.705 796.245 112.705 804.995 Q112.705 813.722 109.626 818.328 Q106.571 822.911 100.76 822.911 Q94.9502 822.911 91.8715 818.328 Q88.816 813.722 88.816 804.995 Q88.816 796.245 91.8715 791.661 Q94.9502 787.055 100.76 787.055 Z" fill="#000000" fill-rule="nonzero" fill-opacity="1" /><path clip-path="url(#clip940)" d="M120.922 816.36 L125.807 816.36 L125.807 822.24 L120.922 822.24 L120.922 816.36 Z" fill="#000000" fill-rule="nonzero" fill-opacity="1" /><path clip-path="url(#clip940)" d="M145.992 790.759 Q142.381 790.759 140.552 794.323 Q138.746 797.865 138.746 804.995 Q138.746 812.101 140.552 815.666 Q142.381 819.208 145.992 819.208 Q149.626 819.208 151.431 815.666 Q153.26 812.101 153.26 804.995 Q153.26 797.865 151.431 794.323 Q149.626 790.759 145.992 790.759 M145.992 787.055 Q151.802 787.055 154.857 791.661 Q157.936 796.245 157.936 804.995 Q157.936 813.722 154.857 818.328 Q151.802 822.911 145.992 822.911 Q140.181 822.911 137.103 818.328 Q134.047 813.722 134.047 804.995 Q134.047 796.245 137.103 791.661 Q140.181 787.055 145.992 787.055 Z" fill="#000000" fill-rule="nonzero" fill-opacity="1" /><path clip-path="url(#clip940)" d="M101.756 506.805 Q98.1447 506.805 96.316 510.37 Q94.5104 513.912 94.5104 521.041 Q94.5104 528.148 96.316 531.713 Q98.1447 535.254 101.756 535.254 Q105.39 535.254 107.196 531.713 Q109.024 528.148 109.024 521.041 Q109.024 513.912 107.196 510.37 Q105.39 506.805 101.756 506.805 M101.756 503.102 Q107.566 503.102 110.621 507.708 Q113.7 512.291 113.7 521.041 Q113.7 529.768 110.621 534.375 Q107.566 538.958 101.756 538.958 Q95.9456 538.958 92.8669 534.375 Q89.8114 529.768 89.8114 521.041 Q89.8114 512.291 92.8669 507.708 Q95.9456 503.102 101.756 503.102 Z" fill="#000000" fill-rule="nonzero" fill-opacity="1" /><path clip-path="url(#clip940)" d="M121.918 532.407 L126.802 532.407 L126.802 538.287 L121.918 538.287 L121.918 532.407 Z" fill="#000000" fill-rule="nonzero" fill-opacity="1" /><path clip-path="url(#clip940)" d="M137.033 503.727 L155.39 503.727 L155.39 507.662 L141.316 507.662 L141.316 516.134 Q142.334 515.787 143.353 515.625 Q144.371 515.44 145.39 515.44 Q151.177 515.44 154.556 518.611 Q157.936 521.782 157.936 527.199 Q157.936 532.777 154.464 535.879 Q150.992 538.958 144.672 538.958 Q142.496 538.958 140.228 538.588 Q137.982 538.217 135.575 537.477 L135.575 532.777 Q137.658 533.912 139.881 534.467 Q142.103 535.023 144.58 535.023 Q148.584 535.023 150.922 532.916 Q153.26 530.81 153.26 527.199 Q153.26 523.588 150.922 521.481 Q148.584 519.375 144.58 519.375 Q142.705 519.375 140.83 519.791 Q138.978 520.208 137.033 521.088 L137.033 503.727 Z" fill="#000000" fill-rule="nonzero" fill-opacity="1" /><path clip-path="url(#clip940)" d="M91.5706 250.398 L99.2095 250.398 L99.2095 224.033 L90.8993 225.699 L90.8993 221.44 L99.1632 219.773 L103.839 219.773 L103.839 250.398 L111.478 250.398 L111.478 254.333 L91.5706 254.333 L91.5706 250.398 Z" fill="#000000" fill-rule="nonzero" fill-opacity="1" /><path clip-path="url(#clip940)" d="M120.922 248.454 L125.807 248.454 L125.807 254.333 L120.922 254.333 L120.922 248.454 Z" fill="#000000" fill-rule="nonzero" fill-opacity="1" /><path clip-path="url(#clip940)" d="M145.992 222.852 Q142.381 222.852 140.552 226.417 Q138.746 229.959 138.746 237.088 Q138.746 244.195 140.552 247.759 Q142.381 251.301 145.992 251.301 Q149.626 251.301 151.431 247.759 Q153.26 244.195 153.26 237.088 Q153.26 229.959 151.431 226.417 Q149.626 222.852 145.992 222.852 M145.992 219.148 Q151.802 219.148 154.857 223.755 Q157.936 228.338 157.936 237.088 Q157.936 245.815 154.857 250.421 Q151.802 255.005 145.992 255.005 Q140.181 255.005 137.103 250.421 Q134.047 245.815 134.047 237.088 Q134.047 228.338 137.103 223.755 Q140.181 219.148 145.992 219.148 Z" fill="#000000" fill-rule="nonzero" fill-opacity="1" /><path clip-path="url(#clip940)" d="M994.583 12.096 L1045.75 12.096 L1045.75 18.9825 L1024.28 18.9825 L1024.28 72.576 L1016.05 72.576 L1016.05 18.9825 L994.583 18.9825 L994.583 12.096 Z" fill="#000000" fill-rule="nonzero" fill-opacity="1" /><path clip-path="url(#clip940)" d="M1050.77 27.2059 L1058.22 27.2059 L1058.22 72.576 L1050.77 72.576 L1050.77 27.2059 M1050.77 9.54393 L1058.22 9.54393 L1058.22 18.9825 L1050.77 18.9825 L1050.77 9.54393 Z" fill="#000000" fill-rule="nonzero" fill-opacity="1" /><path clip-path="url(#clip940)" d="M1109.14 35.9153 Q1111.94 30.8922 1115.83 28.5022 Q1119.72 26.1121 1124.98 26.1121 Q1132.07 26.1121 1135.92 31.0947 Q1139.77 36.0368 1139.77 45.1919 L1139.77 72.576 L1132.27 72.576 L1132.27 45.4349 Q1132.27 38.913 1129.96 35.7533 Q1127.66 32.5936 1122.92 32.5936 Q1117.12 32.5936 1113.76 36.4419 Q1110.4 40.2903 1110.4 46.9338 L1110.4 72.576 L1102.9 72.576 L1102.9 45.4349 Q1102.9 38.8725 1100.6 35.7533 Q1098.29 32.5936 1093.47 32.5936 Q1087.75 32.5936 1084.39 36.4824 Q1081.03 40.3308 1081.03 46.9338 L1081.03 72.576 L1073.54 72.576 L1073.54 27.2059 L1081.03 27.2059 L1081.03 34.2544 Q1083.58 30.082 1087.15 28.0971 Q1090.71 26.1121 1095.61 26.1121 Q1100.55 26.1121 1104 28.6237 Q1107.48 31.1352 1109.14 35.9153 Z" fill="#000000" fill-rule="nonzero" fill-opacity="1" /><path clip-path="url(#clip940)" d="M1193.44 48.0275 L1193.44 51.6733 L1159.17 51.6733 Q1159.66 59.3701 1163.79 63.421 Q1167.96 67.4314 1175.37 67.4314 Q1179.67 67.4314 1183.68 66.3781 Q1187.73 65.3249 1191.7 63.2184 L1191.7 70.267 Q1187.69 71.9684 1183.48 72.8596 Q1179.26 73.7508 1174.93 73.7508 Q1164.07 73.7508 1157.71 67.4314 Q1151.39 61.1119 1151.39 50.3365 Q1151.39 39.1965 1157.39 32.6746 Q1163.42 26.1121 1173.63 26.1121 Q1182.79 26.1121 1188.09 32.0264 Q1193.44 37.9003 1193.44 48.0275 M1185.99 45.84 Q1185.91 39.7232 1182.54 36.0774 Q1179.22 32.4315 1173.71 32.4315 Q1167.48 32.4315 1163.71 35.9558 Q1159.98 39.4801 1159.41 45.8805 L1185.99 45.84 Z" fill="#000000" fill-rule="nonzero" fill-opacity="1" /><path clip-path="url(#clip940)" d="M1233.02 34.9026 L1284.95 34.9026 L1284.95 41.7081 L1233.02 41.7081 L1233.02 34.9026 M1233.02 51.4303 L1284.95 51.4303 L1284.95 58.3168 L1233.02 58.3168 L1233.02 51.4303 Z" fill="#000000" fill-rule="nonzero" fill-opacity="1" /><path clip-path="url(#clip940)" d="M1330.4 65.6895 L1343.77 65.6895 L1343.77 19.5497 L1329.23 22.4663 L1329.23 15.0127 L1343.69 12.096 L1351.87 12.096 L1351.87 65.6895 L1365.24 65.6895 L1365.24 72.576 L1330.4 72.576 L1330.4 65.6895 Z" fill="#000000" fill-rule="nonzero" fill-opacity="1" /><path clip-path="url(#clip940)" d="M1399.27 17.4837 Q1392.95 17.4837 1389.75 23.7221 Q1386.59 29.92 1386.59 42.3968 Q1386.59 54.833 1389.75 61.0714 Q1392.95 67.2693 1399.27 67.2693 Q1405.63 67.2693 1408.79 61.0714 Q1411.99 54.833 1411.99 42.3968 Q1411.99 29.92 1408.79 23.7221 Q1405.63 17.4837 1399.27 17.4837 M1399.27 11.0023 Q1409.44 11.0023 1414.78 19.0636 Q1420.17 27.0843 1420.17 42.3968 Q1420.17 57.6687 1414.78 65.73 Q1409.44 73.7508 1399.27 73.7508 Q1389.1 73.7508 1383.71 65.73 Q1378.37 57.6687 1378.37 42.3968 Q1378.37 27.0843 1383.71 19.0636 Q1389.1 11.0023 1399.27 11.0023 Z" fill="#000000" fill-rule="nonzero" fill-opacity="1" /><path clip-path="url(#clip940)" d="M1452.05 17.4837 Q1445.73 17.4837 1442.53 23.7221 Q1439.37 29.92 1439.37 42.3968 Q1439.37 54.833 1442.53 61.0714 Q1445.73 67.2693 1452.05 67.2693 Q1458.41 67.2693 1461.57 61.0714 Q1464.77 54.833 1464.77 42.3968 Q1464.77 29.92 1461.57 23.7221 Q1458.41 17.4837 1452.05 17.4837 M1452.05 11.0023 Q1462.22 11.0023 1467.57 19.0636 Q1472.95 27.0843 1472.95 42.3968 Q1472.95 57.6687 1467.57 65.73 Q1462.22 73.7508 1452.05 73.7508 Q1441.88 73.7508 1436.5 65.73 Q1431.15 57.6687 1431.15 42.3968 Q1431.15 27.0843 1436.5 19.0636 Q1441.88 11.0023 1452.05 11.0023 Z" fill="#000000" fill-rule="nonzero" fill-opacity="1" /><path clip-path="url(#clip940)" d="M1487.33 62.2867 L1495.88 62.2867 L1495.88 72.576 L1487.33 72.576 L1487.33 62.2867 Z" fill="#000000" fill-rule="nonzero" fill-opacity="1" /><path clip-path="url(#clip940)" d="M1531.21 17.4837 Q1524.89 17.4837 1521.69 23.7221 Q1518.53 29.92 1518.53 42.3968 Q1518.53 54.833 1521.69 61.0714 Q1524.89 67.2693 1531.21 67.2693 Q1537.57 67.2693 1540.73 61.0714 Q1543.93 54.833 1543.93 42.3968 Q1543.93 29.92 1540.73 23.7221 Q1537.57 17.4837 1531.21 17.4837 M1531.21 11.0023 Q1541.37 11.0023 1546.72 19.0636 Q1552.11 27.0843 1552.11 42.3968 Q1552.11 57.6687 1546.72 65.73 Q1541.37 73.7508 1531.21 73.7508 Q1521.04 73.7508 1515.65 65.73 Q1510.3 57.6687 1510.3 42.3968 Q1510.3 27.0843 1515.65 19.0636 Q1521.04 11.0023 1531.21 11.0023 Z" fill="#000000" fill-rule="nonzero" fill-opacity="1" /><polyline clip-path="url(#clip942)" style="stroke:#000000; stroke-linecap:round; stroke-linejoin:round; stroke-width:12; stroke-opacity:0.5; fill:none" points="255.035,1372.85 356.866,1372.85 458.697,1372.85 560.528,1372.85 662.359,1372.85 764.19,1372.83 866.021,1354.57 967.853,237.053 1069.68,237.053 1171.51,237.053 1273.35,237.053 1375.18,237.053 1477.01,237.053 1578.84,237.053 1680.67,1354.57 1782.5,1372.83 1884.33,1372.85 1986.16,1372.85 2087.99,1372.85 2189.83,1372.85 2291.66,1372.85 "/>
<polyline clip-path="url(#clip942)" style="stroke:#000000; stroke-linecap:round; stroke-linejoin:round; stroke-width:4; stroke-opacity:1; fill:none" stroke-dasharray="16, 10" points="255.035,963.311 356.866,963.308 458.697,963.289 560.528,963.146 662.359,962.081 764.19,953.813 866.021,864.066 967.853,454.24 1069.68,372.251 1171.51,364 1273.35,363.079 1375.18,364 1477.01,372.251 1578.84,454.24 1680.67,864.066 1782.5,953.813 1884.33,962.081 1986.16,963.146 2087.99,963.289 2189.83,963.308 2291.66,963.311 "/>
<polyline clip-path="url(#clip942)" style="stroke:#ff0000; stroke-linecap:round; stroke-linejoin:round; stroke-width:8; stroke-opacity:0.7; fill:none" points="255.035,1372.87 356.866,1372.86 458.697,1372.82 560.528,1372.54 662.359,1370.41 764.19,1353.88 866.021,1189.97 967.853,419.951 1069.68,256.044 1171.51,239.513 1273.35,237.384 1375.18,237.098 1477.01,237.059 1578.84,237.054 1680.67,237.054 1782.5,237.053 1884.33,237.053 1986.16,237.053 2087.99,237.053 2189.83,237.053 2291.66,237.053 "/>
<polyline clip-path="url(#clip942)" style="stroke:#ff0000; stroke-linecap:round; stroke-linejoin:round; stroke-width:8; stroke-opacity:0.7; fill:none" points="255.035,1372.87 356.866,1372.87 458.697,1372.87 560.528,1372.87 662.359,1372.87 764.19,1372.87 866.021,1372.87 967.853,1372.87 1069.68,1372.86 1171.51,1372.82 1273.35,1372.54 1375.18,1370.41 1477.01,1353.88 1578.84,1189.97 1680.67,419.951 1782.5,256.044 1884.33,239.513 1986.16,237.384 2087.99,237.098 2189.83,237.059 2291.66,237.054 "/>
<polyline clip-path="url(#clip942)" style="stroke:#ff0000; stroke-linecap:round; stroke-linejoin:round; stroke-width:8; stroke-opacity:0.7; fill:none" points="255.035,804.96 356.866,804.96 458.697,804.96 560.528,804.96 662.359,804.96 764.19,804.96 866.021,804.96 967.853,804.96 1069.68,804.96 1171.51,804.96 1273.35,804.96 1375.18,804.96 1477.01,804.96 1578.84,804.96 1680.67,804.96 1782.5,804.96 1884.33,804.96 1986.16,804.96 2087.99,804.96 2189.83,804.96 2291.66,804.96 "/>
<polyline clip-path="url(#clip942)" style="stroke:#0000ff; stroke-linecap:round; stroke-linejoin:round; stroke-width:4; stroke-opacity:1; fill:none" points="255.035,1372.87 356.866,1316.08 458.697,1259.29 560.528,1202.49 662.359,1145.7 764.19,1088.91 866.021,1032.12 967.853,975.332 1069.68,918.541 1171.51,861.751 1273.35,804.96 1375.18,748.169 1477.01,691.379 1578.84,634.588 1680.67,577.797 1782.5,521.007 1884.33,464.216 1986.16,407.425 2087.99,350.635 2189.83,293.844 2291.66,237.053 "/>
<path clip-path="url(#clip940)" d="M265.897 531.785 L784.944 531.785 L784.944 168.905 L265.897 168.905  Z" fill="#ffffff" fill-rule="evenodd" fill-opacity="1"/>
<polyline clip-path="url(#clip940)" style="stroke:#000000; stroke-linecap:round; stroke-linejoin:round; stroke-width:4; stroke-opacity:1; fill:none" points="265.897,531.785 784.944,531.785 784.944,168.905 265.897,168.905 265.897,531.785 "/>
<polyline clip-path="url(#clip940)" style="stroke:#000000; stroke-linecap:round; stroke-linejoin:round; stroke-width:12; stroke-opacity:0.5; fill:none" points="289.884,220.745 433.805,220.745 "/>
<path clip-path="url(#clip940)" d="M481.683 206.291 Q481.683 207.603 480.863 208.353 Q480.043 209.079 479.106 209.079 Q478.216 209.079 477.748 208.563 Q477.279 208.048 477.279 207.392 Q477.279 206.502 477.935 205.729 Q478.591 204.956 479.575 204.792 Q478.614 204.183 477.186 204.183 Q476.249 204.183 475.429 204.675 Q474.633 205.167 474.141 205.8 Q473.672 206.432 473.251 207.345 Q472.852 208.235 472.688 208.774 Q472.548 209.289 472.431 209.852 L470.791 216.41 Q469.995 219.525 469.995 220.626 Q469.995 221.984 470.651 222.898 Q471.307 223.788 472.618 223.788 Q473.133 223.788 473.719 223.647 Q474.305 223.483 475.054 223.062 Q475.827 222.617 476.506 221.961 Q477.209 221.282 477.888 220.134 Q478.567 218.986 479.012 217.511 Q479.153 216.995 479.621 216.995 Q480.207 216.995 480.207 217.464 Q480.207 217.862 479.879 218.705 Q479.575 219.525 478.895 220.603 Q478.24 221.657 477.373 222.617 Q476.506 223.554 475.218 224.21 Q473.93 224.865 472.524 224.865 Q470.51 224.865 469.175 223.788 Q467.84 222.711 467.348 221.211 Q467.231 221.422 467.067 221.703 Q466.903 221.984 466.411 222.617 Q465.943 223.226 465.404 223.694 Q464.865 224.139 464.022 224.491 Q463.202 224.865 462.312 224.865 Q461.188 224.865 460.181 224.537 Q459.197 224.21 458.494 223.46 Q457.792 222.711 457.792 221.68 Q457.792 220.532 458.565 219.736 Q459.361 218.916 460.439 218.916 Q461.118 218.916 461.656 219.314 Q462.219 219.712 462.219 220.579 Q462.219 221.539 461.563 222.266 Q460.907 222.992 459.97 223.179 Q460.93 223.788 462.359 223.788 Q463.905 223.788 465.123 222.429 Q466.341 221.071 466.927 218.799 Q468.379 213.342 468.941 210.906 Q469.503 208.446 469.503 207.392 Q469.503 206.409 469.245 205.729 Q468.988 205.05 468.543 204.746 Q468.121 204.418 467.723 204.3 Q467.348 204.183 466.927 204.183 Q466.224 204.183 465.427 204.464 Q464.655 204.746 463.718 205.401 Q462.804 206.034 461.938 207.345 Q461.071 208.657 460.485 210.461 Q460.368 210.999 459.853 210.999 Q459.291 210.976 459.291 210.507 Q459.291 210.109 459.595 209.289 Q459.923 208.446 460.579 207.392 Q461.258 206.338 462.125 205.401 Q463.015 204.441 464.303 203.785 Q465.615 203.129 467.02 203.129 Q467.653 203.129 468.262 203.27 Q468.894 203.387 469.644 203.738 Q470.416 204.09 471.096 204.863 Q471.775 205.636 472.197 206.76 Q472.478 206.221 472.852 205.706 Q473.251 205.191 473.86 204.558 Q474.492 203.902 475.359 203.528 Q476.249 203.129 477.232 203.129 Q478.193 203.129 479.13 203.387 Q480.067 203.621 480.863 204.394 Q481.683 205.144 481.683 206.291 Z" fill="#000000" fill-rule="nonzero" fill-opacity="1" /><path clip-path="url(#clip940)" d="M486.568 218.98 L486.568 217.931 Q490.601 217.931 492.684 215.783 Q493.257 215.783 493.356 215.914 Q493.454 216.046 493.454 216.652 L493.454 235.491 Q493.454 236.491 493.946 236.803 Q494.438 237.114 496.586 237.114 L497.652 237.114 L497.652 238.147 Q496.471 238.049 492.208 238.049 Q487.945 238.049 486.781 238.147 L486.781 237.114 L487.847 237.114 Q489.962 237.114 490.47 236.819 Q490.978 236.507 490.978 235.491 L490.978 218.095 Q489.224 218.98 486.568 218.98 Z" fill="#000000" fill-rule="nonzero" fill-opacity="1" /><polyline clip-path="url(#clip940)" style="stroke:#000000; stroke-linecap:round; stroke-linejoin:round; stroke-width:4; stroke-opacity:1; fill:none" stroke-dasharray="16, 10" points="289.884,272.585 433.805,272.585 "/>
<path clip-path="url(#clip940)" d="M480.629 250.672 L473.719 278.404 Q473.438 279.646 473.438 280.7 Q473.438 282.901 474.867 282.901 Q475.569 282.901 476.132 282.456 Q476.694 282.011 477.139 281.074 Q477.584 280.138 477.865 279.271 Q478.146 278.381 478.521 276.976 Q478.638 276.413 478.731 276.273 Q478.849 276.109 479.176 276.109 Q479.762 276.109 479.762 276.577 Q479.13 279.599 478.31 281.332 Q476.998 283.979 474.773 283.979 Q473.087 283.979 471.892 282.948 Q470.698 281.918 470.416 280.372 Q467.348 283.979 464.163 283.979 Q461.352 283.979 459.572 281.847 Q457.792 279.693 457.792 276.296 Q457.792 272.877 459.478 269.597 Q461.188 266.318 463.882 264.281 Q466.575 262.243 469.339 262.243 Q472.267 262.243 473.766 265.311 L476.647 253.928 L476.787 252.991 Q476.787 252.71 476.67 252.569 Q476.577 252.405 476.014 252.288 Q475.476 252.171 474.398 252.171 Q473.953 252.171 473.742 252.148 Q473.555 252.124 473.391 252.007 Q473.227 251.867 473.227 251.586 Q473.227 250.766 473.906 250.672 Q478.404 250.157 479.996 250.157 Q480.277 250.157 480.441 250.297 Q480.605 250.414 480.605 250.555 L480.629 250.672 M473.18 267.513 Q473.18 267.302 473.016 266.716 Q472.852 266.131 472.478 265.311 Q472.103 264.491 471.283 263.906 Q470.487 263.297 469.409 263.297 Q467.957 263.297 466.435 264.538 Q464.936 265.78 463.835 267.888 Q462.992 269.574 462.078 273.111 Q461.188 276.648 461.188 278.404 Q461.188 279.482 461.422 280.442 Q461.68 281.379 462.406 282.152 Q463.132 282.901 464.256 282.901 Q466.997 282.901 469.69 279.505 Q470.206 278.92 470.323 278.685 Q470.463 278.428 470.651 277.725 L473.04 268.333 Q473.18 267.63 473.18 267.513 Z" fill="#000000" fill-rule="nonzero" fill-opacity="1" /><path clip-path="url(#clip940)" d="M485.521 278.094 L485.521 277.045 Q489.554 277.045 491.637 274.897 Q492.211 274.897 492.309 275.028 Q492.407 275.159 492.407 275.766 L492.407 294.604 Q492.407 295.604 492.899 295.916 Q493.391 296.228 495.539 296.228 L496.605 296.228 L496.605 297.26 Q495.424 297.162 491.161 297.162 Q486.898 297.162 485.734 297.26 L485.734 296.228 L486.8 296.228 Q488.915 296.228 489.423 295.932 Q489.932 295.621 489.932 294.604 L489.932 277.208 Q488.177 278.094 485.521 278.094 Z" fill="#000000" fill-rule="nonzero" fill-opacity="1" /><path clip-path="url(#clip940)" d="M501.611 294.753 Q501.611 294.519 501.799 294.004 L518.733 248.751 Q518.733 248.705 518.85 248.447 Q518.967 248.189 519.038 248.025 Q519.108 247.838 519.249 247.697 Q519.413 247.557 519.6 247.557 Q520.068 247.557 520.068 248.142 Q520.068 248.189 519.928 248.751 L502.947 294.05 Q502.665 294.87 502.478 295.104 Q502.314 295.339 502.033 295.339 Q501.611 295.339 501.611 294.753 Z" fill="#000000" fill-rule="nonzero" fill-opacity="1" /><path clip-path="url(#clip940)" d="M525.361 283.44 Q525.361 282.573 525.432 282.316 Q525.525 282.058 525.9 281.66 L535.105 271.401 Q540.141 265.733 540.141 260.791 Q540.141 257.582 538.455 255.286 Q536.792 252.991 533.723 252.991 Q531.615 252.991 529.835 254.279 Q528.055 255.567 527.235 257.863 Q527.376 257.816 527.868 257.816 Q529.062 257.816 529.718 258.565 Q530.397 259.315 530.397 260.322 Q530.397 261.61 529.554 262.243 Q528.734 262.852 527.914 262.852 Q527.587 262.852 527.142 262.782 Q526.72 262.711 526.041 262.055 Q525.361 261.376 525.361 260.182 Q525.361 256.832 527.891 254.162 Q530.444 251.492 534.332 251.492 Q538.736 251.492 541.617 254.115 Q544.521 256.715 544.521 260.791 Q544.521 262.219 544.076 263.531 Q543.654 264.819 543.069 265.826 Q542.507 266.834 540.961 268.45 Q539.415 270.066 538.174 271.214 Q536.932 272.361 534.145 274.797 L529.062 279.739 L537.705 279.739 Q541.921 279.739 542.249 279.365 Q542.717 278.685 543.303 275.102 L544.521 275.102 L543.163 283.44 L525.361 283.44 Z" fill="#000000" fill-rule="nonzero" fill-opacity="1" /><path clip-path="url(#clip940)" d="M549.303 268.098 Q549.303 261.048 551.084 257.207 Q553.566 251.492 559.422 251.492 Q560.663 251.492 561.952 251.843 Q563.263 252.171 564.903 253.459 Q566.566 254.748 567.573 256.856 Q569.494 260.931 569.494 268.098 Q569.494 275.102 567.713 278.92 Q565.114 284.494 559.375 284.494 Q557.22 284.494 555.019 283.393 Q552.84 282.292 551.458 279.646 Q549.303 275.687 549.303 268.098 M553.285 267.513 Q553.285 274.75 553.801 277.631 Q554.386 280.747 555.979 282.105 Q557.595 283.44 559.375 283.44 Q561.296 283.44 562.888 282.011 Q564.505 280.559 564.996 277.444 Q565.535 274.376 565.512 267.513 Q565.512 260.837 565.043 258.167 Q564.411 255.052 562.725 253.811 Q561.062 252.546 559.375 252.546 Q558.743 252.546 558.063 252.733 Q557.408 252.921 556.447 253.459 Q555.487 253.998 554.737 255.333 Q554.011 256.668 553.66 258.683 Q553.285 261.282 553.285 267.513 Z" fill="#000000" fill-rule="nonzero" fill-opacity="1" /><polyline clip-path="url(#clip940)" style="stroke:#ff0000; stroke-linecap:round; stroke-linejoin:round; stroke-width:8; stroke-opacity:0.7; fill:none" points="289.884,324.425 433.805,324.425 "/>
<path clip-path="url(#clip940)" d="M491.848 307.313 L488.827 319.54 Q488.616 320.313 488.475 320.406 Q488.358 320.5 487.983 320.5 Q487.257 320.5 487.257 320.008 Q487.257 319.961 487.327 319.352 Q487.398 318.72 487.398 317.572 Q487.398 313.333 485.337 310.827 Q483.299 308.32 479.668 308.32 Q476.272 308.32 473.016 310.101 Q469.761 311.881 467.676 314.504 Q465.919 316.659 464.701 319.282 Q463.507 321.905 463.015 324.201 Q462.523 326.473 462.336 327.855 Q462.172 329.237 462.172 330.127 Q462.172 332.75 463.015 334.788 Q463.858 336.802 465.264 337.95 Q466.692 339.098 468.332 339.66 Q469.995 340.222 471.798 340.222 Q472.478 340.222 473.297 340.128 Q474.117 340.034 475.382 339.683 Q476.67 339.332 477.724 338.746 Q478.802 338.161 479.739 337.036 Q480.699 335.912 481.074 334.413 Q482.081 330.595 482.081 330.033 Q482.081 329.565 481.8 329.401 Q481.519 329.237 480.582 329.12 L478.052 329.026 Q478.005 329.026 477.935 329.026 Q477.49 329.026 477.303 329.026 Q477.115 329.002 476.904 328.956 Q476.717 328.909 476.647 328.815 Q476.6 328.698 476.6 328.511 Q476.6 328.066 476.787 327.855 Q476.975 327.621 477.139 327.597 Q477.303 327.55 477.607 327.55 L484.329 327.691 Q484.868 327.691 486.836 327.621 Q488.803 327.55 489.365 327.55 Q489.998 327.55 489.998 328.066 Q489.998 329.026 489.225 329.026 Q488.452 329.049 488.054 329.073 Q487.655 329.073 487.257 329.19 Q486.882 329.307 486.742 329.401 Q486.601 329.471 486.414 329.822 Q486.227 330.15 486.156 330.431 Q486.086 330.689 485.922 331.345 Q485.828 331.766 485.594 332.563 Q485.383 333.359 485.29 333.781 L484.376 337.481 Q483.744 340.222 483.556 340.409 Q483.463 340.597 483.229 340.597 Q482.877 340.597 482.128 339.566 Q481.402 338.535 481.074 337.622 Q480.488 338.254 480.113 338.629 Q479.739 338.98 478.872 339.543 Q478.029 340.105 476.904 340.55 Q474.164 341.697 470.908 341.697 Q465.1 341.697 461.446 338.02 Q457.792 334.319 457.792 328.557 Q457.792 324.482 459.666 320.477 Q461.539 316.471 464.514 313.497 Q467.489 310.522 471.424 308.672 Q475.359 306.821 479.294 306.821 Q480.793 306.821 482.128 307.22 Q483.463 307.618 484.259 308.11 Q485.079 308.601 485.805 309.328 Q486.531 310.03 486.765 310.358 Q487.023 310.686 487.257 311.084 L490.607 307.407 Q491.192 306.821 491.333 306.821 Q491.614 306.821 491.731 306.985 Q491.848 307.149 491.848 307.313 Z" fill="#000000" fill-rule="nonzero" fill-opacity="1" /><path clip-path="url(#clip940)" d="M513.164 335.092 Q513.351 335.303 513.351 335.514 Q513.351 335.725 512.883 336.334 Q512.438 336.943 511.478 337.762 Q510.517 338.582 509.276 339.355 Q508.034 340.128 506.207 340.643 Q504.381 341.182 502.46 341.182 Q499.017 341.182 496.956 338.723 Q494.918 336.263 494.918 332.492 Q494.918 330.08 495.714 327.948 Q496.511 325.794 497.799 324.271 Q499.11 322.749 500.75 321.648 Q502.413 320.524 504.146 319.985 Q505.88 319.446 507.496 319.446 Q509.861 319.446 511.243 320.641 Q512.625 321.835 512.625 323.522 Q512.625 323.92 512.508 324.412 Q512.414 324.904 512.087 325.676 Q511.782 326.449 510.986 327.222 Q510.189 327.972 509.018 328.464 Q506.418 329.565 501.687 329.565 L499.134 329.565 Q498.384 332.586 498.384 334.554 Q498.384 335.327 498.525 336.123 Q498.665 336.896 499.04 337.88 Q499.438 338.863 500.328 339.496 Q501.242 340.105 502.554 340.105 Q502.975 340.105 503.42 340.081 Q503.889 340.058 505.06 339.8 Q506.254 339.543 507.308 339.098 Q508.362 338.652 509.697 337.692 Q511.056 336.708 512.133 335.373 Q512.508 334.881 512.766 334.881 Q512.977 334.881 513.164 335.092 M511.033 323.522 Q511.033 322.233 510.072 321.367 Q509.135 320.5 507.496 320.5 Q506.98 320.5 506.348 320.617 Q505.716 320.734 504.662 321.226 Q503.631 321.718 502.718 322.538 Q501.804 323.334 500.891 324.904 Q499.977 326.449 499.438 328.511 L501.406 328.511 Q502.085 328.511 502.577 328.511 Q503.069 328.487 504.146 328.393 Q505.247 328.3 506.044 328.136 Q506.84 327.948 507.847 327.574 Q508.854 327.199 509.487 326.707 Q510.142 326.192 510.587 325.372 Q511.033 324.552 511.033 323.522 Z" fill="#000000" fill-rule="nonzero" fill-opacity="1" /><path clip-path="url(#clip940)" d="M542.083 333.781 Q542.083 333.968 541.872 334.694 Q541.662 335.42 541.146 336.544 Q540.654 337.669 539.975 338.699 Q539.296 339.707 538.172 340.456 Q537.071 341.182 535.806 341.182 Q534.12 341.182 532.995 340.058 Q531.871 338.934 531.871 337.247 Q531.871 336.31 532.363 335.022 Q535.478 326.707 535.478 323.85 Q535.478 320.5 532.878 320.5 Q531.59 320.5 530.372 320.992 Q529.177 321.46 528.358 322.116 Q527.538 322.772 526.788 323.686 Q526.062 324.576 525.688 325.185 Q525.336 325.77 525.055 326.356 L524.446 328.745 Q524.306 329.401 523.626 331.954 L522.572 336.287 Q521.823 339.519 521.659 339.824 Q521.425 340.479 520.909 340.831 Q520.394 341.182 519.879 341.182 Q519.293 341.182 518.895 340.831 Q518.497 340.479 518.497 339.87 Q518.497 339.777 518.567 339.425 Q518.637 339.074 518.755 338.582 Q518.872 338.09 518.918 337.809 L521.706 326.73 Q522.221 324.716 522.338 324.084 Q522.479 323.428 522.479 322.702 Q522.479 320.5 520.98 320.5 Q519.762 320.5 518.965 321.952 Q518.169 323.404 517.49 326.215 Q517.279 326.988 517.138 327.152 Q517.021 327.316 516.67 327.316 Q516.084 327.293 516.084 326.824 Q516.084 326.707 516.272 325.934 Q516.459 325.161 516.81 324.06 Q517.185 322.936 517.537 322.187 Q517.841 321.624 518.005 321.367 Q518.192 321.086 518.637 320.547 Q519.106 319.985 519.715 319.727 Q520.347 319.446 521.12 319.446 Q522.853 319.446 524.118 320.57 Q525.383 321.671 525.547 323.615 Q528.662 319.446 533.019 319.446 Q535.595 319.446 537.071 320.805 Q538.546 322.163 538.546 324.576 Q538.546 325.138 538.429 325.864 Q538.336 326.567 538.101 327.457 Q537.891 328.347 537.703 329.026 Q537.516 329.705 537.141 330.806 Q536.766 331.883 536.602 332.352 Q536.438 332.82 536.04 333.921 Q535.666 334.999 535.619 335.116 Q534.752 337.294 534.752 338.535 Q534.752 339.355 535.01 339.73 Q535.291 340.105 535.9 340.105 Q537.539 340.105 538.757 338.489 Q539.999 336.849 540.795 334.179 Q540.982 333.593 541.076 333.453 Q541.193 333.312 541.521 333.312 Q542.083 333.312 542.083 333.781 Z" fill="#000000" fill-rule="nonzero" fill-opacity="1" /><path clip-path="url(#clip940)" d="M564.156 335.092 Q564.343 335.303 564.343 335.514 Q564.343 335.725 563.875 336.334 Q563.43 336.943 562.469 337.762 Q561.509 338.582 560.268 339.355 Q559.026 340.128 557.199 340.643 Q555.372 341.182 553.452 341.182 Q550.009 341.182 547.948 338.723 Q545.91 336.263 545.91 332.492 Q545.91 330.08 546.706 327.948 Q547.503 325.794 548.791 324.271 Q550.102 322.749 551.742 321.648 Q553.405 320.524 555.138 319.985 Q556.871 319.446 558.488 319.446 Q560.853 319.446 562.235 320.641 Q563.617 321.835 563.617 323.522 Q563.617 323.92 563.5 324.412 Q563.406 324.904 563.078 325.676 Q562.774 326.449 561.978 327.222 Q561.181 327.972 560.01 328.464 Q557.41 329.565 552.679 329.565 L550.126 329.565 Q549.376 332.586 549.376 334.554 Q549.376 335.327 549.517 336.123 Q549.657 336.896 550.032 337.88 Q550.43 338.863 551.32 339.496 Q552.234 340.105 553.546 340.105 Q553.967 340.105 554.412 340.081 Q554.881 340.058 556.052 339.8 Q557.246 339.543 558.3 339.098 Q559.354 338.652 560.689 337.692 Q562.048 336.708 563.125 335.373 Q563.5 334.881 563.758 334.881 Q563.968 334.881 564.156 335.092 M562.024 323.522 Q562.024 322.233 561.064 321.367 Q560.127 320.5 558.488 320.5 Q557.972 320.5 557.34 320.617 Q556.708 320.734 555.654 321.226 Q554.623 321.718 553.709 322.538 Q552.796 323.334 551.883 324.904 Q550.969 326.449 550.43 328.511 L552.398 328.511 Q553.077 328.511 553.569 328.511 Q554.061 328.487 555.138 328.393 Q556.239 328.3 557.035 328.136 Q557.832 327.948 558.839 327.574 Q559.846 327.199 560.479 326.707 Q561.134 326.192 561.579 325.372 Q562.024 324.552 562.024 323.522 Z" fill="#000000" fill-rule="nonzero" fill-opacity="1" /><path clip-path="url(#clip940)" d="M568.036 340.643 Q568.036 339.777 568.107 339.519 Q568.2 339.261 568.575 338.863 L577.78 328.604 Q582.816 322.936 582.816 317.994 Q582.816 314.785 581.129 312.49 Q579.466 310.194 576.398 310.194 Q574.29 310.194 572.51 311.482 Q570.73 312.771 569.91 315.066 Q570.051 315.019 570.542 315.019 Q571.737 315.019 572.393 315.769 Q573.072 316.518 573.072 317.525 Q573.072 318.814 572.229 319.446 Q571.409 320.055 570.589 320.055 Q570.261 320.055 569.816 319.985 Q569.395 319.915 568.716 319.259 Q568.036 318.579 568.036 317.385 Q568.036 314.036 570.566 311.365 Q573.119 308.695 577.007 308.695 Q581.41 308.695 584.291 311.319 Q587.196 313.918 587.196 317.994 Q587.196 319.423 586.751 320.734 Q586.329 322.023 585.744 323.03 Q585.181 324.037 583.636 325.653 Q582.09 327.269 580.848 328.417 Q579.607 329.565 576.82 332.001 L571.737 336.943 L580.38 336.943 Q584.596 336.943 584.924 336.568 Q585.392 335.889 585.978 332.305 L587.196 332.305 L585.837 340.643 L568.036 340.643 Z" fill="#000000" fill-rule="nonzero" fill-opacity="1" /><polyline clip-path="url(#clip940)" style="stroke:#ff0000; stroke-linecap:round; stroke-linejoin:round; stroke-width:8; stroke-opacity:0.7; fill:none" points="289.884,376.265 433.805,376.265 "/>
<path clip-path="url(#clip940)" d="M491.848 359.153 L488.827 371.38 Q488.616 372.153 488.475 372.246 Q488.358 372.34 487.983 372.34 Q487.257 372.34 487.257 371.848 Q487.257 371.801 487.327 371.192 Q487.398 370.56 487.398 369.412 Q487.398 365.173 485.337 362.667 Q483.299 360.16 479.668 360.16 Q476.272 360.16 473.016 361.941 Q469.761 363.721 467.676 366.344 Q465.919 368.499 464.701 371.122 Q463.507 373.745 463.015 376.041 Q462.523 378.313 462.336 379.695 Q462.172 381.077 462.172 381.967 Q462.172 384.59 463.015 386.628 Q463.858 388.642 465.264 389.79 Q466.692 390.938 468.332 391.5 Q469.995 392.062 471.798 392.062 Q472.478 392.062 473.297 391.968 Q474.117 391.874 475.382 391.523 Q476.67 391.172 477.724 390.586 Q478.802 390.001 479.739 388.876 Q480.699 387.752 481.074 386.253 Q482.081 382.435 482.081 381.873 Q482.081 381.405 481.8 381.241 Q481.519 381.077 480.582 380.96 L478.052 380.866 Q478.005 380.866 477.935 380.866 Q477.49 380.866 477.303 380.866 Q477.115 380.842 476.904 380.796 Q476.717 380.749 476.647 380.655 Q476.6 380.538 476.6 380.351 Q476.6 379.906 476.787 379.695 Q476.975 379.461 477.139 379.437 Q477.303 379.39 477.607 379.39 L484.329 379.531 Q484.868 379.531 486.836 379.461 Q488.803 379.39 489.365 379.39 Q489.998 379.39 489.998 379.906 Q489.998 380.866 489.225 380.866 Q488.452 380.889 488.054 380.913 Q487.655 380.913 487.257 381.03 Q486.882 381.147 486.742 381.241 Q486.601 381.311 486.414 381.662 Q486.227 381.99 486.156 382.271 Q486.086 382.529 485.922 383.185 Q485.828 383.606 485.594 384.403 Q485.383 385.199 485.29 385.621 L484.376 389.321 Q483.744 392.062 483.556 392.249 Q483.463 392.437 483.229 392.437 Q482.877 392.437 482.128 391.406 Q481.402 390.375 481.074 389.462 Q480.488 390.094 480.113 390.469 Q479.739 390.82 478.872 391.383 Q478.029 391.945 476.904 392.39 Q474.164 393.537 470.908 393.537 Q465.1 393.537 461.446 389.86 Q457.792 386.159 457.792 380.397 Q457.792 376.322 459.666 372.317 Q461.539 368.311 464.514 365.337 Q467.489 362.362 471.424 360.512 Q475.359 358.661 479.294 358.661 Q480.793 358.661 482.128 359.06 Q483.463 359.458 484.259 359.95 Q485.079 360.441 485.805 361.168 Q486.531 361.87 486.765 362.198 Q487.023 362.526 487.257 362.924 L490.607 359.247 Q491.192 358.661 491.333 358.661 Q491.614 358.661 491.731 358.825 Q491.848 358.989 491.848 359.153 Z" fill="#000000" fill-rule="nonzero" fill-opacity="1" /><path clip-path="url(#clip940)" d="M513.164 386.932 Q513.351 387.143 513.351 387.354 Q513.351 387.565 512.883 388.174 Q512.438 388.783 511.478 389.602 Q510.517 390.422 509.276 391.195 Q508.034 391.968 506.207 392.483 Q504.381 393.022 502.46 393.022 Q499.017 393.022 496.956 390.563 Q494.918 388.103 494.918 384.332 Q494.918 381.92 495.714 379.788 Q496.511 377.634 497.799 376.111 Q499.11 374.589 500.75 373.488 Q502.413 372.364 504.146 371.825 Q505.88 371.286 507.496 371.286 Q509.861 371.286 511.243 372.481 Q512.625 373.675 512.625 375.362 Q512.625 375.76 512.508 376.252 Q512.414 376.744 512.087 377.516 Q511.782 378.289 510.986 379.062 Q510.189 379.812 509.018 380.304 Q506.418 381.405 501.687 381.405 L499.134 381.405 Q498.384 384.426 498.384 386.394 Q498.384 387.167 498.525 387.963 Q498.665 388.736 499.04 389.72 Q499.438 390.703 500.328 391.336 Q501.242 391.945 502.554 391.945 Q502.975 391.945 503.42 391.921 Q503.889 391.898 505.06 391.64 Q506.254 391.383 507.308 390.938 Q508.362 390.492 509.697 389.532 Q511.056 388.548 512.133 387.213 Q512.508 386.721 512.766 386.721 Q512.977 386.721 513.164 386.932 M511.033 375.362 Q511.033 374.073 510.072 373.207 Q509.135 372.34 507.496 372.34 Q506.98 372.34 506.348 372.457 Q505.716 372.574 504.662 373.066 Q503.631 373.558 502.718 374.378 Q501.804 375.174 500.891 376.744 Q499.977 378.289 499.438 380.351 L501.406 380.351 Q502.085 380.351 502.577 380.351 Q503.069 380.327 504.146 380.233 Q505.247 380.14 506.044 379.976 Q506.84 379.788 507.847 379.414 Q508.854 379.039 509.487 378.547 Q510.142 378.032 510.587 377.212 Q511.033 376.392 511.033 375.362 Z" fill="#000000" fill-rule="nonzero" fill-opacity="1" /><path clip-path="url(#clip940)" d="M542.083 385.621 Q542.083 385.808 541.872 386.534 Q541.662 387.26 541.146 388.384 Q540.654 389.509 539.975 390.539 Q539.296 391.547 538.172 392.296 Q537.071 393.022 535.806 393.022 Q534.12 393.022 532.995 391.898 Q531.871 390.774 531.871 389.087 Q531.871 388.15 532.363 386.862 Q535.478 378.547 535.478 375.69 Q535.478 372.34 532.878 372.34 Q531.59 372.34 530.372 372.832 Q529.177 373.3 528.358 373.956 Q527.538 374.612 526.788 375.526 Q526.062 376.416 525.688 377.025 Q525.336 377.61 525.055 378.196 L524.446 380.585 Q524.306 381.241 523.626 383.794 L522.572 388.127 Q521.823 391.359 521.659 391.664 Q521.425 392.319 520.909 392.671 Q520.394 393.022 519.879 393.022 Q519.293 393.022 518.895 392.671 Q518.497 392.319 518.497 391.71 Q518.497 391.617 518.567 391.265 Q518.637 390.914 518.755 390.422 Q518.872 389.93 518.918 389.649 L521.706 378.57 Q522.221 376.556 522.338 375.924 Q522.479 375.268 522.479 374.542 Q522.479 372.34 520.98 372.34 Q519.762 372.34 518.965 373.792 Q518.169 375.244 517.49 378.055 Q517.279 378.828 517.138 378.992 Q517.021 379.156 516.67 379.156 Q516.084 379.133 516.084 378.664 Q516.084 378.547 516.272 377.774 Q516.459 377.001 516.81 375.9 Q517.185 374.776 517.537 374.027 Q517.841 373.464 518.005 373.207 Q518.192 372.926 518.637 372.387 Q519.106 371.825 519.715 371.567 Q520.347 371.286 521.12 371.286 Q522.853 371.286 524.118 372.41 Q525.383 373.511 525.547 375.455 Q528.662 371.286 533.019 371.286 Q535.595 371.286 537.071 372.645 Q538.546 374.003 538.546 376.416 Q538.546 376.978 538.429 377.704 Q538.336 378.407 538.101 379.297 Q537.891 380.187 537.703 380.866 Q537.516 381.545 537.141 382.646 Q536.766 383.723 536.602 384.192 Q536.438 384.66 536.04 385.761 Q535.666 386.839 535.619 386.956 Q534.752 389.134 534.752 390.375 Q534.752 391.195 535.01 391.57 Q535.291 391.945 535.9 391.945 Q537.539 391.945 538.757 390.329 Q539.999 388.689 540.795 386.019 Q540.982 385.433 541.076 385.293 Q541.193 385.152 541.521 385.152 Q542.083 385.152 542.083 385.621 Z" fill="#000000" fill-rule="nonzero" fill-opacity="1" /><path clip-path="url(#clip940)" d="M564.156 386.932 Q564.343 387.143 564.343 387.354 Q564.343 387.565 563.875 388.174 Q563.43 388.783 562.469 389.602 Q561.509 390.422 560.268 391.195 Q559.026 391.968 557.199 392.483 Q555.372 393.022 553.452 393.022 Q550.009 393.022 547.948 390.563 Q545.91 388.103 545.91 384.332 Q545.91 381.92 546.706 379.788 Q547.503 377.634 548.791 376.111 Q550.102 374.589 551.742 373.488 Q553.405 372.364 555.138 371.825 Q556.871 371.286 558.488 371.286 Q560.853 371.286 562.235 372.481 Q563.617 373.675 563.617 375.362 Q563.617 375.76 563.5 376.252 Q563.406 376.744 563.078 377.516 Q562.774 378.289 561.978 379.062 Q561.181 379.812 560.01 380.304 Q557.41 381.405 552.679 381.405 L550.126 381.405 Q549.376 384.426 549.376 386.394 Q549.376 387.167 549.517 387.963 Q549.657 388.736 550.032 389.72 Q550.43 390.703 551.32 391.336 Q552.234 391.945 553.546 391.945 Q553.967 391.945 554.412 391.921 Q554.881 391.898 556.052 391.64 Q557.246 391.383 558.3 390.938 Q559.354 390.492 560.689 389.532 Q562.048 388.548 563.125 387.213 Q563.5 386.721 563.758 386.721 Q563.968 386.721 564.156 386.932 M562.024 375.362 Q562.024 374.073 561.064 373.207 Q560.127 372.34 558.488 372.34 Q557.972 372.34 557.34 372.457 Q556.708 372.574 555.654 373.066 Q554.623 373.558 553.709 374.378 Q552.796 375.174 551.883 376.744 Q550.969 378.289 550.43 380.351 L552.398 380.351 Q553.077 380.351 553.569 380.351 Q554.061 380.327 555.138 380.233 Q556.239 380.14 557.035 379.976 Q557.832 379.788 558.839 379.414 Q559.846 379.039 560.479 378.547 Q561.134 378.032 561.579 377.212 Q562.024 376.392 562.024 375.362 Z" fill="#000000" fill-rule="nonzero" fill-opacity="1" /><path clip-path="url(#clip940)" d="M568.036 386.019 Q568.036 384.59 568.856 383.911 Q569.676 383.232 570.73 383.232 Q571.831 383.232 572.604 383.958 Q573.4 384.66 573.4 385.902 Q573.4 387.237 572.463 387.986 Q571.55 388.736 570.238 388.548 Q571.386 390.469 573.494 391.336 Q575.625 392.202 577.593 392.202 Q579.654 392.202 581.317 390.422 Q583.003 388.642 583.003 384.286 Q583.003 380.585 581.551 378.453 Q580.122 376.322 577.288 376.322 L575.18 376.322 Q574.454 376.322 574.243 376.252 Q574.032 376.181 574.032 375.783 Q574.032 375.315 574.758 375.221 Q575.485 375.221 576.632 375.081 Q579.42 374.987 580.895 372.574 Q582.23 370.326 582.23 367.117 Q582.23 364.189 580.825 362.971 Q579.443 361.73 577.639 361.73 Q575.953 361.73 574.103 362.432 Q572.252 363.135 571.245 364.704 Q574.22 364.704 574.22 367.117 Q574.22 368.171 573.541 368.874 Q572.885 369.553 571.784 369.553 Q570.73 369.553 570.027 368.897 Q569.324 368.218 569.324 367.07 Q569.324 364.33 571.76 362.432 Q574.22 360.535 577.827 360.535 Q581.387 360.535 584.01 362.409 Q586.657 364.283 586.657 367.164 Q586.657 369.998 584.783 372.317 Q582.91 374.635 579.935 375.596 Q583.589 376.322 585.767 378.805 Q587.945 381.264 587.945 384.286 Q587.945 388.033 584.994 390.797 Q582.043 393.537 577.733 393.537 Q573.751 393.537 570.894 391.383 Q568.036 389.228 568.036 386.019 Z" fill="#000000" fill-rule="nonzero" fill-opacity="1" /><polyline clip-path="url(#clip940)" style="stroke:#ff0000; stroke-linecap:round; stroke-linejoin:round; stroke-width:8; stroke-opacity:0.7; fill:none" points="289.884,428.105 433.805,428.105 "/>
<path clip-path="url(#clip940)" d="M491.848 410.993 L488.827 423.22 Q488.616 423.993 488.475 424.086 Q488.358 424.18 487.983 424.18 Q487.257 424.18 487.257 423.688 Q487.257 423.641 487.327 423.032 Q487.398 422.4 487.398 421.252 Q487.398 417.013 485.337 414.507 Q483.299 412 479.668 412 Q476.272 412 473.016 413.781 Q469.761 415.561 467.676 418.184 Q465.919 420.339 464.701 422.962 Q463.507 425.585 463.015 427.881 Q462.523 430.153 462.336 431.535 Q462.172 432.917 462.172 433.807 Q462.172 436.43 463.015 438.468 Q463.858 440.482 465.264 441.63 Q466.692 442.778 468.332 443.34 Q469.995 443.902 471.798 443.902 Q472.478 443.902 473.297 443.808 Q474.117 443.714 475.382 443.363 Q476.67 443.012 477.724 442.426 Q478.802 441.841 479.739 440.716 Q480.699 439.592 481.074 438.093 Q482.081 434.275 482.081 433.713 Q482.081 433.245 481.8 433.081 Q481.519 432.917 480.582 432.8 L478.052 432.706 Q478.005 432.706 477.935 432.706 Q477.49 432.706 477.303 432.706 Q477.115 432.682 476.904 432.636 Q476.717 432.589 476.647 432.495 Q476.6 432.378 476.6 432.191 Q476.6 431.746 476.787 431.535 Q476.975 431.301 477.139 431.277 Q477.303 431.23 477.607 431.23 L484.329 431.371 Q484.868 431.371 486.836 431.301 Q488.803 431.23 489.365 431.23 Q489.998 431.23 489.998 431.746 Q489.998 432.706 489.225 432.706 Q488.452 432.729 488.054 432.753 Q487.655 432.753 487.257 432.87 Q486.882 432.987 486.742 433.081 Q486.601 433.151 486.414 433.502 Q486.227 433.83 486.156 434.111 Q486.086 434.369 485.922 435.025 Q485.828 435.446 485.594 436.243 Q485.383 437.039 485.29 437.461 L484.376 441.161 Q483.744 443.902 483.556 444.089 Q483.463 444.277 483.229 444.277 Q482.877 444.277 482.128 443.246 Q481.402 442.215 481.074 441.302 Q480.488 441.934 480.113 442.309 Q479.739 442.66 478.872 443.223 Q478.029 443.785 476.904 444.23 Q474.164 445.377 470.908 445.377 Q465.1 445.377 461.446 441.7 Q457.792 437.999 457.792 432.237 Q457.792 428.162 459.666 424.157 Q461.539 420.151 464.514 417.177 Q467.489 414.202 471.424 412.352 Q475.359 410.501 479.294 410.501 Q480.793 410.501 482.128 410.9 Q483.463 411.298 484.259 411.79 Q485.079 412.281 485.805 413.008 Q486.531 413.71 486.765 414.038 Q487.023 414.366 487.257 414.764 L490.607 411.087 Q491.192 410.501 491.333 410.501 Q491.614 410.501 491.731 410.665 Q491.848 410.829 491.848 410.993 Z" fill="#000000" fill-rule="nonzero" fill-opacity="1" /><path clip-path="url(#clip940)" d="M513.164 438.772 Q513.351 438.983 513.351 439.194 Q513.351 439.405 512.883 440.014 Q512.438 440.623 511.478 441.442 Q510.517 442.262 509.276 443.035 Q508.034 443.808 506.207 444.323 Q504.381 444.862 502.46 444.862 Q499.017 444.862 496.956 442.403 Q494.918 439.943 494.918 436.172 Q494.918 433.76 495.714 431.628 Q496.511 429.474 497.799 427.951 Q499.11 426.429 500.75 425.328 Q502.413 424.204 504.146 423.665 Q505.88 423.126 507.496 423.126 Q509.861 423.126 511.243 424.321 Q512.625 425.515 512.625 427.202 Q512.625 427.6 512.508 428.092 Q512.414 428.584 512.087 429.356 Q511.782 430.129 510.986 430.902 Q510.189 431.652 509.018 432.144 Q506.418 433.245 501.687 433.245 L499.134 433.245 Q498.384 436.266 498.384 438.234 Q498.384 439.007 498.525 439.803 Q498.665 440.576 499.04 441.56 Q499.438 442.543 500.328 443.176 Q501.242 443.785 502.554 443.785 Q502.975 443.785 503.42 443.761 Q503.889 443.738 505.06 443.48 Q506.254 443.223 507.308 442.778 Q508.362 442.332 509.697 441.372 Q511.056 440.388 512.133 439.053 Q512.508 438.561 512.766 438.561 Q512.977 438.561 513.164 438.772 M511.033 427.202 Q511.033 425.913 510.072 425.047 Q509.135 424.18 507.496 424.18 Q506.98 424.18 506.348 424.297 Q505.716 424.414 504.662 424.906 Q503.631 425.398 502.718 426.218 Q501.804 427.014 500.891 428.584 Q499.977 430.129 499.438 432.191 L501.406 432.191 Q502.085 432.191 502.577 432.191 Q503.069 432.167 504.146 432.073 Q505.247 431.98 506.044 431.816 Q506.84 431.628 507.847 431.254 Q508.854 430.879 509.487 430.387 Q510.142 429.872 510.587 429.052 Q511.033 428.232 511.033 427.202 Z" fill="#000000" fill-rule="nonzero" fill-opacity="1" /><path clip-path="url(#clip940)" d="M542.083 437.461 Q542.083 437.648 541.872 438.374 Q541.662 439.1 541.146 440.224 Q540.654 441.349 539.975 442.379 Q539.296 443.387 538.172 444.136 Q537.071 444.862 535.806 444.862 Q534.12 444.862 532.995 443.738 Q531.871 442.614 531.871 440.927 Q531.871 439.99 532.363 438.702 Q535.478 430.387 535.478 427.53 Q535.478 424.18 532.878 424.18 Q531.59 424.18 530.372 424.672 Q529.177 425.14 528.358 425.796 Q527.538 426.452 526.788 427.366 Q526.062 428.256 525.688 428.865 Q525.336 429.45 525.055 430.036 L524.446 432.425 Q524.306 433.081 523.626 435.634 L522.572 439.967 Q521.823 443.199 521.659 443.504 Q521.425 444.159 520.909 444.511 Q520.394 444.862 519.879 444.862 Q519.293 444.862 518.895 444.511 Q518.497 444.159 518.497 443.55 Q518.497 443.457 518.567 443.105 Q518.637 442.754 518.755 442.262 Q518.872 441.77 518.918 441.489 L521.706 430.41 Q522.221 428.396 522.338 427.764 Q522.479 427.108 522.479 426.382 Q522.479 424.18 520.98 424.18 Q519.762 424.18 518.965 425.632 Q518.169 427.084 517.49 429.895 Q517.279 430.668 517.138 430.832 Q517.021 430.996 516.67 430.996 Q516.084 430.973 516.084 430.504 Q516.084 430.387 516.272 429.614 Q516.459 428.841 516.81 427.74 Q517.185 426.616 517.537 425.867 Q517.841 425.304 518.005 425.047 Q518.192 424.766 518.637 424.227 Q519.106 423.665 519.715 423.407 Q520.347 423.126 521.12 423.126 Q522.853 423.126 524.118 424.25 Q525.383 425.351 525.547 427.295 Q528.662 423.126 533.019 423.126 Q535.595 423.126 537.071 424.485 Q538.546 425.843 538.546 428.256 Q538.546 428.818 538.429 429.544 Q538.336 430.247 538.101 431.137 Q537.891 432.027 537.703 432.706 Q537.516 433.385 537.141 434.486 Q536.766 435.563 536.602 436.032 Q536.438 436.5 536.04 437.601 Q535.666 438.679 535.619 438.796 Q534.752 440.974 534.752 442.215 Q534.752 443.035 535.01 443.41 Q535.291 443.785 535.9 443.785 Q537.539 443.785 538.757 442.169 Q539.999 440.529 540.795 437.859 Q540.982 437.273 541.076 437.133 Q541.193 436.992 541.521 436.992 Q542.083 436.992 542.083 437.461 Z" fill="#000000" fill-rule="nonzero" fill-opacity="1" /><path clip-path="url(#clip940)" d="M564.156 438.772 Q564.343 438.983 564.343 439.194 Q564.343 439.405 563.875 440.014 Q563.43 440.623 562.469 441.442 Q561.509 442.262 560.268 443.035 Q559.026 443.808 557.199 444.323 Q555.372 444.862 553.452 444.862 Q550.009 444.862 547.948 442.403 Q545.91 439.943 545.91 436.172 Q545.91 433.76 546.706 431.628 Q547.503 429.474 548.791 427.951 Q550.102 426.429 551.742 425.328 Q553.405 424.204 555.138 423.665 Q556.871 423.126 558.488 423.126 Q560.853 423.126 562.235 424.321 Q563.617 425.515 563.617 427.202 Q563.617 427.6 563.5 428.092 Q563.406 428.584 563.078 429.356 Q562.774 430.129 561.978 430.902 Q561.181 431.652 560.01 432.144 Q557.41 433.245 552.679 433.245 L550.126 433.245 Q549.376 436.266 549.376 438.234 Q549.376 439.007 549.517 439.803 Q549.657 440.576 550.032 441.56 Q550.43 442.543 551.32 443.176 Q552.234 443.785 553.546 443.785 Q553.967 443.785 554.412 443.761 Q554.881 443.738 556.052 443.48 Q557.246 443.223 558.3 442.778 Q559.354 442.332 560.689 441.372 Q562.048 440.388 563.125 439.053 Q563.5 438.561 563.758 438.561 Q563.968 438.561 564.156 438.772 M562.024 427.202 Q562.024 425.913 561.064 425.047 Q560.127 424.18 558.488 424.18 Q557.972 424.18 557.34 424.297 Q556.708 424.414 555.654 424.906 Q554.623 425.398 553.709 426.218 Q552.796 427.014 551.883 428.584 Q550.969 430.129 550.43 432.191 L552.398 432.191 Q553.077 432.191 553.569 432.191 Q554.061 432.167 555.138 432.073 Q556.239 431.98 557.035 431.816 Q557.832 431.628 558.839 431.254 Q559.846 430.879 560.479 430.387 Q561.134 429.872 561.579 429.052 Q562.024 428.232 562.024 427.202 Z" fill="#000000" fill-rule="nonzero" fill-opacity="1" /><path clip-path="url(#clip940)" d="M567.076 436.407 L567.076 434.931 L581.809 412.422 Q582.184 411.836 582.769 411.86 Q583.308 411.86 583.425 412.071 Q583.542 412.281 583.542 413.101 L583.542 434.931 L588.344 434.931 L588.344 436.407 L583.542 436.407 L583.542 440.576 Q583.542 441.958 584.104 442.403 Q584.69 442.848 587.173 442.848 L588.18 442.848 L588.18 444.323 Q586.212 444.183 581.668 444.183 Q577.148 444.183 575.18 444.323 L575.18 442.848 L576.188 442.848 Q578.67 442.848 579.256 442.426 Q579.841 441.981 579.841 440.576 L579.841 436.407 L567.076 436.407 M568.435 434.931 L580.123 434.931 L580.123 417.036 L568.435 434.931 Z" fill="#000000" fill-rule="nonzero" fill-opacity="1" /><polyline clip-path="url(#clip940)" style="stroke:#0000ff; stroke-linecap:round; stroke-linejoin:round; stroke-width:4; stroke-opacity:1; fill:none" points="289.884,479.945 433.805,479.945 "/>
<path clip-path="url(#clip940)" d="M491.848 462.833 L488.827 475.06 Q488.616 475.833 488.475 475.926 Q488.358 476.02 487.983 476.02 Q487.257 476.02 487.257 475.528 Q487.257 475.481 487.327 474.872 Q487.398 474.24 487.398 473.092 Q487.398 468.853 485.337 466.347 Q483.299 463.84 479.668 463.84 Q476.272 463.84 473.016 465.621 Q469.761 467.401 467.676 470.024 Q465.919 472.179 464.701 474.802 Q463.507 477.425 463.015 479.721 Q462.523 481.993 462.336 483.375 Q462.172 484.757 462.172 485.647 Q462.172 488.27 463.015 490.308 Q463.858 492.322 465.264 493.47 Q466.692 494.618 468.332 495.18 Q469.995 495.742 471.798 495.742 Q472.478 495.742 473.297 495.648 Q474.117 495.554 475.382 495.203 Q476.67 494.852 477.724 494.266 Q478.802 493.681 479.739 492.556 Q480.699 491.432 481.074 489.933 Q482.081 486.115 482.081 485.553 Q482.081 485.085 481.8 484.921 Q481.519 484.757 480.582 484.64 L478.052 484.546 Q478.005 484.546 477.935 484.546 Q477.49 484.546 477.303 484.546 Q477.115 484.522 476.904 484.476 Q476.717 484.429 476.647 484.335 Q476.6 484.218 476.6 484.031 Q476.6 483.586 476.787 483.375 Q476.975 483.141 477.139 483.117 Q477.303 483.07 477.607 483.07 L484.329 483.211 Q484.868 483.211 486.836 483.141 Q488.803 483.07 489.365 483.07 Q489.998 483.07 489.998 483.586 Q489.998 484.546 489.225 484.546 Q488.452 484.569 488.054 484.593 Q487.655 484.593 487.257 484.71 Q486.882 484.827 486.742 484.921 Q486.601 484.991 486.414 485.342 Q486.227 485.67 486.156 485.951 Q486.086 486.209 485.922 486.865 Q485.828 487.286 485.594 488.083 Q485.383 488.879 485.29 489.301 L484.376 493.001 Q483.744 495.742 483.556 495.929 Q483.463 496.117 483.229 496.117 Q482.877 496.117 482.128 495.086 Q481.402 494.055 481.074 493.142 Q480.488 493.774 480.113 494.149 Q479.739 494.5 478.872 495.063 Q478.029 495.625 476.904 496.07 Q474.164 497.217 470.908 497.217 Q465.1 497.217 461.446 493.54 Q457.792 489.839 457.792 484.077 Q457.792 480.002 459.666 475.997 Q461.539 471.991 464.514 469.017 Q467.489 466.042 471.424 464.192 Q475.359 462.341 479.294 462.341 Q480.793 462.341 482.128 462.74 Q483.463 463.138 484.259 463.63 Q485.079 464.121 485.805 464.848 Q486.531 465.55 486.765 465.878 Q487.023 466.206 487.257 466.604 L490.607 462.927 Q491.192 462.341 491.333 462.341 Q491.614 462.341 491.731 462.505 Q491.848 462.669 491.848 462.833 Z" fill="#000000" fill-rule="nonzero" fill-opacity="1" /><path clip-path="url(#clip940)" d="M513.492 478.081 Q513.492 479.323 512.672 480.119 Q511.876 480.915 510.845 480.915 Q509.955 480.915 509.487 480.4 Q509.019 479.885 509.019 479.229 Q509.019 478.292 509.745 477.519 Q510.471 476.746 511.525 476.582 Q510.752 476.02 509.51 476.02 Q507.473 476.02 505.669 477.589 Q504.873 478.315 504.006 479.651 Q503.139 480.962 502.976 481.524 L501.453 487.778 Q501.313 488.481 500.446 491.854 Q499.603 495.203 499.532 495.344 Q499.298 495.999 498.783 496.351 Q498.268 496.702 497.752 496.702 Q497.167 496.702 496.769 496.351 Q496.37 495.999 496.37 495.39 Q496.37 495.297 496.441 494.945 Q496.511 494.594 496.628 494.102 Q496.745 493.61 496.792 493.329 L499.579 482.25 Q500.095 480.236 500.212 479.604 Q500.352 478.948 500.352 478.222 Q500.352 476.957 499.954 476.489 Q499.556 476.02 498.853 476.02 Q497.635 476.02 496.839 477.472 Q496.042 478.924 495.363 481.735 Q495.152 482.508 495.012 482.672 Q494.895 482.836 494.543 482.836 Q493.958 482.813 493.958 482.344 Q493.958 482.227 494.145 481.478 Q494.333 480.705 494.684 479.58 Q495.059 478.433 495.457 477.707 Q495.691 477.215 495.902 476.887 Q496.113 476.559 496.534 476.044 Q496.956 475.528 497.588 475.247 Q498.221 474.966 498.994 474.966 Q500.68 474.966 501.875 475.997 Q503.093 477.027 503.374 478.643 Q503.959 477.8 504.685 477.074 Q505.411 476.325 506.747 475.645 Q508.082 474.966 509.51 474.966 Q511.29 474.966 512.391 475.88 Q513.492 476.77 513.492 478.081 Z" fill="#000000" fill-rule="nonzero" fill-opacity="1" /><path clip-path="url(#clip940)" d="M538.765 489.301 Q538.132 492.322 537.312 494.055 Q536.001 496.702 533.776 496.702 Q532.089 496.702 530.895 495.672 Q529.7 494.641 529.419 493.095 Q526.351 496.702 523.165 496.702 Q520.355 496.702 518.574 494.571 Q516.794 492.416 516.794 489.02 Q516.794 485.6 518.481 482.321 Q520.191 479.042 522.884 477.004 Q525.578 474.966 528.342 474.966 Q531.269 474.966 532.768 478.034 Q532.886 477.191 533.424 476.559 Q533.963 475.926 534.783 475.926 Q535.415 475.926 535.79 476.278 Q536.165 476.606 536.165 477.215 Q536.165 477.519 535.837 478.854 L534.104 485.553 L533.05 489.886 Q532.651 491.479 532.534 492.064 Q532.441 492.65 532.441 493.423 Q532.441 495.625 533.869 495.625 Q534.572 495.625 535.134 495.18 Q535.696 494.735 536.141 493.798 Q536.586 492.861 536.867 491.994 Q537.148 491.104 537.523 489.699 Q537.64 489.137 537.734 488.996 Q537.851 488.832 538.179 488.832 Q538.765 488.832 538.765 489.301 M532.183 480.236 Q532.183 480.025 532.019 479.44 Q531.855 478.854 531.48 478.034 Q531.105 477.215 530.286 476.629 Q529.489 476.02 528.412 476.02 Q526.96 476.02 525.437 477.261 Q523.938 478.503 522.837 480.611 Q521.994 482.297 521.081 485.834 Q520.191 489.371 520.191 491.128 Q520.191 492.205 520.425 493.165 Q520.682 494.102 521.409 494.875 Q522.135 495.625 523.259 495.625 Q525.999 495.625 528.693 492.228 Q529.208 491.643 529.325 491.409 Q529.466 491.151 529.653 490.448 L532.042 481.056 Q532.183 480.353 532.183 480.236 Z" fill="#000000" fill-rule="nonzero" fill-opacity="1" /><path clip-path="url(#clip940)" d="M564.75 463.395 L557.84 491.128 Q557.559 492.369 557.559 493.423 Q557.559 495.625 558.988 495.625 Q559.69 495.625 560.253 495.18 Q560.815 494.735 561.26 493.798 Q561.705 492.861 561.986 491.994 Q562.267 491.104 562.642 489.699 Q562.759 489.137 562.852 488.996 Q562.97 488.832 563.297 488.832 Q563.883 488.832 563.883 489.301 Q563.251 492.322 562.431 494.055 Q561.119 496.702 558.894 496.702 Q557.208 496.702 556.013 495.672 Q554.819 494.641 554.537 493.095 Q551.469 496.702 548.284 496.702 Q545.473 496.702 543.693 494.571 Q541.913 492.416 541.913 489.02 Q541.913 485.6 543.599 482.321 Q545.309 479.042 548.003 477.004 Q550.696 474.966 553.46 474.966 Q556.388 474.966 557.887 478.034 L560.768 466.651 L560.908 465.714 Q560.908 465.433 560.791 465.293 Q560.698 465.129 560.135 465.012 Q559.597 464.894 558.519 464.894 Q558.074 464.894 557.863 464.871 Q557.676 464.848 557.512 464.73 Q557.348 464.59 557.348 464.309 Q557.348 463.489 558.027 463.395 Q562.525 462.88 564.117 462.88 Q564.398 462.88 564.562 463.021 Q564.726 463.138 564.726 463.278 L564.75 463.395 M557.301 480.236 Q557.301 480.025 557.137 479.44 Q556.973 478.854 556.599 478.034 Q556.224 477.215 555.404 476.629 Q554.608 476.02 553.53 476.02 Q552.078 476.02 550.556 477.261 Q549.057 478.503 547.956 480.611 Q547.113 482.297 546.199 485.834 Q545.309 489.371 545.309 491.128 Q545.309 492.205 545.543 493.165 Q545.801 494.102 546.527 494.875 Q547.253 495.625 548.377 495.625 Q551.118 495.625 553.811 492.228 Q554.327 491.643 554.444 491.409 Q554.584 491.151 554.772 490.448 L557.161 481.056 Q557.301 480.353 557.301 480.236 Z" fill="#000000" fill-rule="nonzero" fill-opacity="1" /><path clip-path="url(#clip940)" d="M577.88 466.183 Q577.88 467.213 577.037 467.986 Q576.217 468.736 575.327 468.736 Q574.508 468.736 573.992 468.244 Q573.5 467.729 573.5 467.002 Q573.5 466.042 574.32 465.246 Q575.14 464.449 576.1 464.449 Q576.897 464.449 577.389 464.941 Q577.88 465.433 577.88 466.183 M578.302 489.301 Q578.302 489.488 578.091 490.238 Q577.88 490.964 577.365 492.088 Q576.873 493.189 576.194 494.219 Q575.515 495.25 574.39 495.976 Q573.29 496.702 572.025 496.702 Q570.315 496.702 569.191 495.578 Q568.09 494.454 568.09 492.767 Q568.09 491.854 569.191 488.926 Q572.376 480.4 572.493 480.049 Q573.032 478.714 573.032 477.543 Q573.032 477.004 572.915 476.676 Q572.798 476.325 572.564 476.207 Q572.329 476.067 572.189 476.044 Q572.072 476.02 571.837 476.02 Q570.456 476.02 569.167 477.425 Q567.879 478.831 566.989 481.969 Q566.802 482.555 566.685 482.695 Q566.567 482.836 566.216 482.836 Q565.63 482.813 565.63 482.344 Q565.63 482.204 565.794 481.665 Q565.958 481.103 566.263 480.26 Q566.567 479.393 567.106 478.503 Q567.645 477.589 568.301 476.793 Q568.98 475.997 569.94 475.481 Q570.901 474.966 571.978 474.966 Q573.735 474.966 574.812 476.114 Q575.913 477.238 575.913 478.901 Q575.913 479.815 575.281 481.431 Q574.508 483.539 574.227 484.218 L572.353 489.254 Q571.673 491.081 571.463 491.643 Q571.275 492.182 571.111 492.837 Q570.971 493.47 570.971 494.055 Q570.971 494.875 571.228 495.25 Q571.51 495.625 572.119 495.625 Q573.805 495.625 575.046 493.962 Q576.288 492.275 577.014 489.699 Q577.037 489.629 577.061 489.511 Q577.248 488.926 577.435 488.856 Q577.529 488.832 577.716 488.832 Q578.302 488.832 578.302 489.301 Z" fill="#000000" fill-rule="nonzero" fill-opacity="1" /><path clip-path="url(#clip940)" d="M601.595 490.612 Q601.782 490.823 601.782 491.034 Q601.782 491.245 601.314 491.854 Q600.869 492.463 599.909 493.282 Q598.948 494.102 597.707 494.875 Q596.466 495.648 594.639 496.163 Q592.812 496.702 590.891 496.702 Q587.448 496.702 585.387 494.243 Q583.349 491.783 583.349 488.012 Q583.349 485.6 584.145 483.468 Q584.942 481.314 586.23 479.791 Q587.542 478.269 589.181 477.168 Q590.844 476.044 592.577 475.505 Q594.311 474.966 595.927 474.966 Q598.293 474.966 599.674 476.161 Q601.056 477.355 601.056 479.042 Q601.056 479.44 600.939 479.932 Q600.846 480.424 600.518 481.196 Q600.213 481.969 599.417 482.742 Q598.62 483.492 597.449 483.984 Q594.849 485.085 590.118 485.085 L587.565 485.085 Q586.816 488.106 586.816 490.074 Q586.816 490.847 586.956 491.643 Q587.097 492.416 587.471 493.4 Q587.87 494.383 588.76 495.016 Q589.673 495.625 590.985 495.625 Q591.406 495.625 591.851 495.601 Q592.32 495.578 593.491 495.32 Q594.685 495.063 595.739 494.618 Q596.793 494.172 598.129 493.212 Q599.487 492.228 600.565 490.893 Q600.939 490.401 601.197 490.401 Q601.408 490.401 601.595 490.612 M599.464 479.042 Q599.464 477.753 598.503 476.887 Q597.566 476.02 595.927 476.02 Q595.412 476.02 594.779 476.137 Q594.147 476.254 593.093 476.746 Q592.062 477.238 591.149 478.058 Q590.235 478.854 589.322 480.424 Q588.408 481.969 587.87 484.031 L589.837 484.031 Q590.516 484.031 591.008 484.031 Q591.5 484.007 592.577 483.913 Q593.678 483.82 594.475 483.656 Q595.271 483.468 596.278 483.094 Q597.285 482.719 597.918 482.227 Q598.574 481.712 599.019 480.892 Q599.464 480.072 599.464 479.042 Z" fill="#000000" fill-rule="nonzero" fill-opacity="1" /><path clip-path="url(#clip940)" d="M630.514 489.301 Q630.514 489.488 630.304 490.214 Q630.093 490.94 629.577 492.064 Q629.086 493.189 628.406 494.219 Q627.727 495.227 626.603 495.976 Q625.502 496.702 624.237 496.702 Q622.551 496.702 621.426 495.578 Q620.302 494.454 620.302 492.767 Q620.302 491.83 620.794 490.542 Q623.909 482.227 623.909 479.37 Q623.909 476.02 621.309 476.02 Q620.021 476.02 618.803 476.512 Q617.609 476.98 616.789 477.636 Q615.969 478.292 615.22 479.206 Q614.493 480.096 614.119 480.705 Q613.767 481.29 613.486 481.876 L612.877 484.265 Q612.737 484.921 612.057 487.474 L611.003 491.807 Q610.254 495.039 610.09 495.344 Q609.856 495.999 609.34 496.351 Q608.825 496.702 608.31 496.702 Q607.724 496.702 607.326 496.351 Q606.928 495.999 606.928 495.39 Q606.928 495.297 606.998 494.945 Q607.069 494.594 607.186 494.102 Q607.303 493.61 607.35 493.329 L610.137 482.25 Q610.652 480.236 610.769 479.604 Q610.91 478.948 610.91 478.222 Q610.91 476.02 609.411 476.02 Q608.193 476.02 607.396 477.472 Q606.6 478.924 605.921 481.735 Q605.71 482.508 605.569 482.672 Q605.452 482.836 605.101 482.836 Q604.515 482.813 604.515 482.344 Q604.515 482.227 604.703 481.454 Q604.89 480.681 605.242 479.58 Q605.616 478.456 605.968 477.707 Q606.272 477.144 606.436 476.887 Q606.623 476.606 607.069 476.067 Q607.537 475.505 608.146 475.247 Q608.778 474.966 609.551 474.966 Q611.285 474.966 612.549 476.09 Q613.814 477.191 613.978 479.135 Q617.093 474.966 621.45 474.966 Q624.026 474.966 625.502 476.325 Q626.978 477.683 626.978 480.096 Q626.978 480.658 626.86 481.384 Q626.767 482.087 626.533 482.977 Q626.322 483.867 626.134 484.546 Q625.947 485.225 625.572 486.326 Q625.197 487.403 625.034 487.872 Q624.87 488.34 624.471 489.441 Q624.097 490.519 624.05 490.636 Q623.183 492.814 623.183 494.055 Q623.183 494.875 623.441 495.25 Q623.722 495.625 624.331 495.625 Q625.97 495.625 627.188 494.009 Q628.43 492.369 629.226 489.699 Q629.414 489.113 629.507 488.973 Q629.624 488.832 629.952 488.832 Q630.514 488.832 630.514 489.301 Z" fill="#000000" fill-rule="nonzero" fill-opacity="1" /><path clip-path="url(#clip940)" d="M647.922 476.02 Q647.922 476.676 647.617 476.84 Q647.313 476.98 646.469 476.98 L641.972 476.98 L638.412 491.128 Q638.131 492.369 638.131 493.423 Q638.131 494.594 638.482 495.109 Q638.857 495.625 639.63 495.625 Q641.153 495.625 642.792 494.243 Q644.455 492.861 645.86 489.488 Q646.048 489.043 646.142 488.949 Q646.259 488.832 646.563 488.832 Q647.149 488.832 647.149 489.301 Q647.149 489.465 646.821 490.214 Q646.516 490.964 645.837 492.064 Q645.181 493.165 644.315 494.196 Q643.471 495.227 642.183 495.976 Q640.895 496.702 639.513 496.702 Q637.569 496.702 636.328 495.461 Q635.11 494.219 635.11 492.275 Q635.11 491.643 635.601 489.629 Q636.093 487.591 638.763 476.98 L634.524 476.98 Q633.938 476.98 633.704 476.957 Q633.493 476.934 633.329 476.816 Q633.189 476.676 633.189 476.395 Q633.189 475.95 633.376 475.762 Q633.564 475.552 633.798 475.528 Q634.056 475.481 634.641 475.481 L639.138 475.481 L641.012 467.869 Q641.199 467.12 641.668 466.698 Q642.16 466.253 642.441 466.206 Q642.722 466.136 642.933 466.136 Q643.565 466.136 643.94 466.487 Q644.315 466.815 644.315 467.424 Q644.315 467.752 642.347 475.481 L646.563 475.481 Q647.102 475.481 647.313 475.505 Q647.547 475.528 647.734 475.645 Q647.922 475.762 647.922 476.02 Z" fill="#000000" fill-rule="nonzero" fill-opacity="1" /><path clip-path="url(#clip940)" d="M684.769 462.833 L681.748 475.06 Q681.537 475.833 681.396 475.926 Q681.279 476.02 680.904 476.02 Q680.178 476.02 680.178 475.528 Q680.178 475.481 680.249 474.872 Q680.319 474.24 680.319 473.092 Q680.319 468.853 678.258 466.347 Q676.22 463.84 672.589 463.84 Q669.193 463.84 665.937 465.621 Q662.682 467.401 660.597 470.024 Q658.84 472.179 657.622 474.802 Q656.428 477.425 655.936 479.721 Q655.444 481.993 655.257 483.375 Q655.093 484.757 655.093 485.647 Q655.093 488.27 655.936 490.308 Q656.779 492.322 658.185 493.47 Q659.613 494.618 661.253 495.18 Q662.916 495.742 664.719 495.742 Q665.399 495.742 666.218 495.648 Q667.038 495.554 668.303 495.203 Q669.591 494.852 670.645 494.266 Q671.723 493.681 672.66 492.556 Q673.62 491.432 673.995 489.933 Q675.002 486.115 675.002 485.553 Q675.002 485.085 674.721 484.921 Q674.44 484.757 673.503 484.64 L670.973 484.546 Q670.926 484.546 670.856 484.546 Q670.411 484.546 670.224 484.546 Q670.036 484.522 669.826 484.476 Q669.638 484.429 669.568 484.335 Q669.521 484.218 669.521 484.031 Q669.521 483.586 669.708 483.375 Q669.896 483.141 670.06 483.117 Q670.224 483.07 670.528 483.07 L677.25 483.211 Q677.789 483.211 679.757 483.141 Q681.724 483.07 682.286 483.07 Q682.919 483.07 682.919 483.586 Q682.919 484.546 682.146 484.546 Q681.373 484.569 680.975 484.593 Q680.576 484.593 680.178 484.71 Q679.803 484.827 679.663 484.921 Q679.522 484.991 679.335 485.342 Q679.148 485.67 679.077 485.951 Q679.007 486.209 678.843 486.865 Q678.749 487.286 678.515 488.083 Q678.304 488.879 678.211 489.301 L677.297 493.001 Q676.665 495.742 676.477 495.929 Q676.384 496.117 676.15 496.117 Q675.798 496.117 675.049 495.086 Q674.323 494.055 673.995 493.142 Q673.409 493.774 673.034 494.149 Q672.66 494.5 671.793 495.063 Q670.95 495.625 669.826 496.07 Q667.085 497.217 663.829 497.217 Q658.021 497.217 654.367 493.54 Q650.713 489.839 650.713 484.077 Q650.713 480.002 652.587 475.997 Q654.46 471.991 657.435 469.017 Q660.41 466.042 664.345 464.192 Q668.28 462.341 672.215 462.341 Q673.714 462.341 675.049 462.74 Q676.384 463.138 677.18 463.63 Q678 464.121 678.726 464.848 Q679.452 465.55 679.686 465.878 Q679.944 466.206 680.178 466.604 L683.528 462.927 Q684.113 462.341 684.254 462.341 Q684.535 462.341 684.652 462.505 Q684.769 462.669 684.769 462.833 Z" fill="#000000" fill-rule="nonzero" fill-opacity="1" /><path clip-path="url(#clip940)" d="M706.085 490.612 Q706.272 490.823 706.272 491.034 Q706.272 491.245 705.804 491.854 Q705.359 492.463 704.399 493.282 Q703.438 494.102 702.197 494.875 Q700.955 495.648 699.129 496.163 Q697.302 496.702 695.381 496.702 Q691.938 496.702 689.877 494.243 Q687.839 491.783 687.839 488.012 Q687.839 485.6 688.635 483.468 Q689.432 481.314 690.72 479.791 Q692.032 478.269 693.671 477.168 Q695.334 476.044 697.067 475.505 Q698.801 474.966 700.417 474.966 Q702.782 474.966 704.164 476.161 Q705.546 477.355 705.546 479.042 Q705.546 479.44 705.429 479.932 Q705.335 480.424 705.008 481.196 Q704.703 481.969 703.907 482.742 Q703.11 483.492 701.939 483.984 Q699.339 485.085 694.608 485.085 L692.055 485.085 Q691.305 488.106 691.305 490.074 Q691.305 490.847 691.446 491.643 Q691.587 492.416 691.961 493.4 Q692.359 494.383 693.25 495.016 Q694.163 495.625 695.475 495.625 Q695.896 495.625 696.341 495.601 Q696.81 495.578 697.981 495.32 Q699.175 495.063 700.229 494.618 Q701.283 494.172 702.618 493.212 Q703.977 492.228 705.054 490.893 Q705.429 490.401 705.687 490.401 Q705.898 490.401 706.085 490.612 M703.954 479.042 Q703.954 477.753 702.993 476.887 Q702.056 476.02 700.417 476.02 Q699.901 476.02 699.269 476.137 Q698.637 476.254 697.583 476.746 Q696.552 477.238 695.639 478.058 Q694.725 478.854 693.812 480.424 Q692.898 481.969 692.359 484.031 L694.327 484.031 Q695.006 484.031 695.498 484.031 Q695.99 484.007 697.067 483.913 Q698.168 483.82 698.965 483.656 Q699.761 483.468 700.768 483.094 Q701.775 482.719 702.408 482.227 Q703.064 481.712 703.509 480.892 Q703.954 480.072 703.954 479.042 Z" fill="#000000" fill-rule="nonzero" fill-opacity="1" /><path clip-path="url(#clip940)" d="M735.004 489.301 Q735.004 489.488 734.793 490.214 Q734.583 490.94 734.067 492.064 Q733.576 493.189 732.896 494.219 Q732.217 495.227 731.093 495.976 Q729.992 496.702 728.727 496.702 Q727.041 496.702 725.916 495.578 Q724.792 494.454 724.792 492.767 Q724.792 491.83 725.284 490.542 Q728.399 482.227 728.399 479.37 Q728.399 476.02 725.799 476.02 Q724.511 476.02 723.293 476.512 Q722.099 476.98 721.279 477.636 Q720.459 478.292 719.709 479.206 Q718.983 480.096 718.609 480.705 Q718.257 481.29 717.976 481.876 L717.367 484.265 Q717.227 484.921 716.547 487.474 L715.493 491.807 Q714.744 495.039 714.58 495.344 Q714.346 495.999 713.83 496.351 Q713.315 496.702 712.8 496.702 Q712.214 496.702 711.816 496.351 Q711.418 495.999 711.418 495.39 Q711.418 495.297 711.488 494.945 Q711.558 494.594 711.676 494.102 Q711.793 493.61 711.84 493.329 L714.627 482.25 Q715.142 480.236 715.259 479.604 Q715.4 478.948 715.4 478.222 Q715.4 476.02 713.901 476.02 Q712.683 476.02 711.886 477.472 Q711.09 478.924 710.411 481.735 Q710.2 482.508 710.059 482.672 Q709.942 482.836 709.591 482.836 Q709.005 482.813 709.005 482.344 Q709.005 482.227 709.193 481.454 Q709.38 480.681 709.731 479.58 Q710.106 478.456 710.458 477.707 Q710.762 477.144 710.926 476.887 Q711.113 476.606 711.558 476.067 Q712.027 475.505 712.636 475.247 Q713.268 474.966 714.041 474.966 Q715.774 474.966 717.039 476.09 Q718.304 477.191 718.468 479.135 Q721.583 474.966 725.94 474.966 Q728.516 474.966 729.992 476.325 Q731.468 477.683 731.468 480.096 Q731.468 480.658 731.35 481.384 Q731.257 482.087 731.022 482.977 Q730.812 483.867 730.624 484.546 Q730.437 485.225 730.062 486.326 Q729.687 487.403 729.523 487.872 Q729.359 488.34 728.961 489.441 Q728.587 490.519 728.54 490.636 Q727.673 492.814 727.673 494.055 Q727.673 494.875 727.931 495.25 Q728.212 495.625 728.821 495.625 Q730.46 495.625 731.678 494.009 Q732.92 492.369 733.716 489.699 Q733.903 489.113 733.997 488.973 Q734.114 488.832 734.442 488.832 Q735.004 488.832 735.004 489.301 Z" fill="#000000" fill-rule="nonzero" fill-opacity="1" /><path clip-path="url(#clip940)" d="M757.077 490.612 Q757.264 490.823 757.264 491.034 Q757.264 491.245 756.796 491.854 Q756.351 492.463 755.391 493.282 Q754.43 494.102 753.189 494.875 Q751.947 495.648 750.12 496.163 Q748.294 496.702 746.373 496.702 Q742.93 496.702 740.869 494.243 Q738.831 491.783 738.831 488.012 Q738.831 485.6 739.627 483.468 Q740.424 481.314 741.712 479.791 Q743.023 478.269 744.663 477.168 Q746.326 476.044 748.059 475.505 Q749.793 474.966 751.409 474.966 Q753.774 474.966 755.156 476.161 Q756.538 477.355 756.538 479.042 Q756.538 479.44 756.421 479.932 Q756.327 480.424 755.999 481.196 Q755.695 481.969 754.899 482.742 Q754.102 483.492 752.931 483.984 Q750.331 485.085 745.6 485.085 L743.047 485.085 Q742.297 488.106 742.297 490.074 Q742.297 490.847 742.438 491.643 Q742.578 492.416 742.953 493.4 Q743.351 494.383 744.241 495.016 Q745.155 495.625 746.467 495.625 Q746.888 495.625 747.333 495.601 Q747.802 495.578 748.973 495.32 Q750.167 495.063 751.221 494.618 Q752.275 494.172 753.61 493.212 Q754.969 492.228 756.046 490.893 Q756.421 490.401 756.679 490.401 Q756.89 490.401 757.077 490.612 M754.945 479.042 Q754.945 477.753 753.985 476.887 Q753.048 476.02 751.409 476.02 Q750.893 476.02 750.261 476.137 Q749.629 476.254 748.575 476.746 Q747.544 477.238 746.631 478.058 Q745.717 478.854 744.804 480.424 Q743.89 481.969 743.351 484.031 L745.319 484.031 Q745.998 484.031 746.49 484.031 Q746.982 484.007 748.059 483.913 Q749.16 483.82 749.956 483.656 Q750.753 483.468 751.76 483.094 Q752.767 482.719 753.4 482.227 Q754.055 481.712 754.5 480.892 Q754.945 480.072 754.945 479.042 Z" fill="#000000" fill-rule="nonzero" fill-opacity="1" /></svg>
