<?xml version="1.0" encoding="utf-8" standalone="no"?>
<!DOCTYPE svg PUBLIC "-//W3C//DTD SVG 1.1//EN"
  "http://www.w3.org/Graphics/SVG/1.1/DTD/svg11.dtd">
<svg xmlns:xlink="http://www.w3.org/1999/xlink" width="720pt" height="432pt" viewBox="0 0 720 432" xmlns="http://www.w3.org/2000/svg" version="1.1">
 <metadata>
  <rdf:RDF xmlns:dc="http://purl.org/dc/elements/1.1/" xmlns:cc="http://creativecommons.org/ns#" xmlns:rdf="http://www.w3.org/1999/02/22-rdf-syntax-ns#">
   <cc:Work>
    <dc:type rdf:resource="http://purl.org/dc/dcmitype/StillImage"/>
    <dc:date>2026-02-20T21:43:18.985360</dc:date>
    <dc:format>image/svg+xml</dc:format>
    <dc:creator>
     <cc:Agent>
      <dc:title>Matplotlib v3.8.0, https://matplotlib.org/</dc:title>
     </cc:Agent>
    </dc:creator>
   </cc:Work>
  </rdf:RDF>
 </metadata>
 <defs>
  <style type="text/css">*{stroke-linejoin: round; stroke-linecap: butt}</style>
 </defs>
 <g id="figure_1">
  <g id="patch_1">
   <path d="M 0 432 
L 720 432 
L 720 0 
L 0 0 
z
" style="fill: #ffffff"/>
  </g>
  <g id="axes_1">
   <g id="patch_2">
    <path d="M 48.53 389.32 
L 698.04 389.32 
L 698.04 40.52 
L 48.53 40.52 
z
" style="fill: #ffffff"/>
   </g>
   <g id="axes_2">
    <g id="patch_3">
     <path d="M 48.53 40.52 
L 698.04 40.52 
L 698.04 40.52 
L 48.53 40.52 
z
" style="fill: #ffffff"/>
    </g>
    <g id="matplotlib.axis_1">
     <g id="xtick_1">
      <g id="line2d_1">
       <defs>
        <path id="m7da9c402b7" d="M 0 0 
L 0 -3.5 
" style="stroke: #000000; stroke-width: 0.8"/>
       </defs>
       <g>
        <use xlink:href="#m7da9c402b7" x="48.53" y="40.52" style="stroke: #000000; stroke-width: 0.8"/>
       </g>
      </g>
      <g id="text_1">
       <!-- Inf -->
       <g transform="translate(42.126094 31.440312) scale(0.1 -0.1)">
        <defs>
         <path id="DejaVuSans-49" d="M 628 4666 
L 1259 4666 
L 1259 0 
L 628 0 
L 628 4666 
z
" transform="scale(0.015625)"/>
         <path id="DejaVuSans-6e" d="M 3513 2113 
L 3513 0 
L 2938 0 
L 2938 2094 
Q 2938 2591 2744 2837 
Q 2550 3084 2163 3084 
Q 1697 3084 1428 2787 
Q 1159 2491 1159 1978 
L 1159 0 
L 581 0 
L 581 3500 
L 1159 3500 
L 1159 2956 
Q 1366 3272 1645 3428 
Q 1925 3584 2291 3584 
Q 2894 3584 3203 3211 
Q 3513 2838 3513 2113 
z
" transform="scale(0.015625)"/>
         <path id="DejaVuSans-66" d="M 2375 4863 
L 2375 4384 
L 1825 4384 
Q 1516 4384 1395 4259 
Q 1275 4134 1275 3809 
L 1275 3500 
L 2222 3500 
L 2222 3053 
L 1275 3053 
L 1275 0 
L 697 0 
L 697 3053 
L 147 3053 
L 147 3500 
L 697 3500 
L 697 3744 
Q 697 4328 969 4595 
Q 1241 4863 1831 4863 
L 2375 4863 
z
" transform="scale(0.015625)"/>
        </defs>
        <use xlink:href="#DejaVuSans-49"/>
        <use xlink:href="#DejaVuSans-6e" x="29.492188"/>
        <use xlink:href="#DejaVuSans-66" x="92.871094"/>
       </g>
      </g>
     </g>
     <g id="xtick_2">
      <g id="line2d_2">
       <g>
        <use xlink:href="#m7da9c402b7" x="133.50151" y="40.52" style="stroke: #000000; stroke-width: 0.8"/>
       </g>
      </g>
      <g id="text_2">
       <!-- 2.43 -->
       <g transform="translate(122.368697 31.440312) scale(0.1 -0.1)">
        <defs>
         <path id="DejaVuSans-32" d="M 1228 531 
L 3431 531 
L 3431 0 
L 469 0 
L 469 531 
Q 828 903 1448 1529 
Q 2069 2156 2228 2338 
Q 2531 2678 2651 2914 
Q 2772 3150 2772 3378 
Q 2772 3750 2511 3984 
Q 2250 4219 1831 4219 
Q 1534 4219 1204 4116 
Q 875 4013 500 3803 
L 500 4441 
Q 881 4594 1212 4672 
Q 1544 4750 1819 4750 
Q 2544 4750 2975 4387 
Q 3406 4025 3406 3419 
Q 3406 3131 3298 2873 
Q 3191 2616 2906 2266 
Q 2828 2175 2409 1742 
Q 1991 1309 1228 531 
z
" transform="scale(0.015625)"/>
         <path id="DejaVuSans-2e" d="M 684 794 
L 1344 794 
L 1344 0 
L 684 0 
L 684 794 
z
" transform="scale(0.015625)"/>
         <path id="DejaVuSans-34" d="M 2419 4116 
L 825 1625 
L 2419 1625 
L 2419 4116 
z
M 2253 4666 
L 3047 4666 
L 3047 1625 
L 3713 1625 
L 3713 1100 
L 3047 1100 
L 3047 0 
L 2419 0 
L 2419 1100 
L 313 1100 
L 313 1709 
L 2253 4666 
z
" transform="scale(0.015625)"/>
         <path id="DejaVuSans-33" d="M 2597 2516 
Q 3050 2419 3304 2112 
Q 3559 1806 3559 1356 
Q 3559 666 3084 287 
Q 2609 -91 1734 -91 
Q 1441 -91 1130 -33 
Q 819 25 488 141 
L 488 750 
Q 750 597 1062 519 
Q 1375 441 1716 441 
Q 2309 441 2620 675 
Q 2931 909 2931 1356 
Q 2931 1769 2642 2001 
Q 2353 2234 1838 2234 
L 1294 2234 
L 1294 2753 
L 1863 2753 
Q 2328 2753 2575 2939 
Q 2822 3125 2822 3475 
Q 2822 3834 2567 4026 
Q 2313 4219 1838 4219 
Q 1578 4219 1281 4162 
Q 984 4106 628 3988 
L 628 4550 
Q 988 4650 1302 4700 
Q 1616 4750 1894 4750 
Q 2613 4750 3031 4423 
Q 3450 4097 3450 3541 
Q 3450 3153 3228 2886 
Q 3006 2619 2597 2516 
z
" transform="scale(0.015625)"/>
        </defs>
        <use xlink:href="#DejaVuSans-32"/>
        <use xlink:href="#DejaVuSans-2e" x="63.623047"/>
        <use xlink:href="#DejaVuSans-34" x="95.410156"/>
        <use xlink:href="#DejaVuSans-33" x="159.033203"/>
       </g>
      </g>
     </g>
     <g id="xtick_3">
      <g id="line2d_3">
       <g>
        <use xlink:href="#m7da9c402b7" x="218.473019" y="40.52" style="stroke: #000000; stroke-width: 0.8"/>
       </g>
      </g>
      <g id="text_3">
       <!-- 1.21 -->
       <g transform="translate(207.340207 31.440312) scale(0.1 -0.1)">
        <defs>
         <path id="DejaVuSans-31" d="M 794 531 
L 1825 531 
L 1825 4091 
L 703 3866 
L 703 4441 
L 1819 4666 
L 2450 4666 
L 2450 531 
L 3481 531 
L 3481 0 
L 794 0 
L 794 531 
z
" transform="scale(0.015625)"/>
        </defs>
        <use xlink:href="#DejaVuSans-31"/>
        <use xlink:href="#DejaVuSans-2e" x="63.623047"/>
        <use xlink:href="#DejaVuSans-32" x="95.410156"/>
        <use xlink:href="#DejaVuSans-31" x="159.033203"/>
       </g>
      </g>
     </g>
     <g id="xtick_4">
      <g id="line2d_4">
       <g>
        <use xlink:href="#m7da9c402b7" x="330.799245" y="40.52" style="stroke: #000000; stroke-width: 0.8"/>
       </g>
      </g>
      <g id="text_4">
       <!-- 0.49 -->
       <g transform="translate(319.666433 31.440312) scale(0.1 -0.1)">
        <defs>
         <path id="DejaVuSans-30" d="M 2034 4250 
Q 1547 4250 1301 3770 
Q 1056 3291 1056 2328 
Q 1056 1369 1301 889 
Q 1547 409 2034 409 
Q 2525 409 2770 889 
Q 3016 1369 3016 2328 
Q 3016 3291 2770 3770 
Q 2525 4250 2034 4250 
z
M 2034 4750 
Q 2819 4750 3233 4129 
Q 3647 3509 3647 2328 
Q 3647 1150 3233 529 
Q 2819 -91 2034 -91 
Q 1250 -91 836 529 
Q 422 1150 422 2328 
Q 422 3509 836 4129 
Q 1250 4750 2034 4750 
z
" transform="scale(0.015625)"/>
         <path id="DejaVuSans-39" d="M 703 97 
L 703 672 
Q 941 559 1184 500 
Q 1428 441 1663 441 
Q 2288 441 2617 861 
Q 2947 1281 2994 2138 
Q 2813 1869 2534 1725 
Q 2256 1581 1919 1581 
Q 1219 1581 811 2004 
Q 403 2428 403 3163 
Q 403 3881 828 4315 
Q 1253 4750 1959 4750 
Q 2769 4750 3195 4129 
Q 3622 3509 3622 2328 
Q 3622 1225 3098 567 
Q 2575 -91 1691 -91 
Q 1453 -91 1209 -44 
Q 966 3 703 97 
z
M 1959 2075 
Q 2384 2075 2632 2365 
Q 2881 2656 2881 3163 
Q 2881 3666 2632 3958 
Q 2384 4250 1959 4250 
Q 1534 4250 1286 3958 
Q 1038 3666 1038 3163 
Q 1038 2656 1286 2365 
Q 1534 2075 1959 2075 
z
" transform="scale(0.015625)"/>
        </defs>
        <use xlink:href="#DejaVuSans-30"/>
        <use xlink:href="#DejaVuSans-2e" x="63.623047"/>
        <use xlink:href="#DejaVuSans-34" x="95.410156"/>
        <use xlink:href="#DejaVuSans-39" x="159.033203"/>
       </g>
      </g>
     </g>
     <g id="xtick_5">
      <g id="line2d_5">
       <g>
        <use xlink:href="#m7da9c402b7" x="415.770755" y="40.52" style="stroke: #000000; stroke-width: 0.8"/>
       </g>
      </g>
      <g id="text_5">
       <!-- 0.24 -->
       <g transform="translate(404.637942 31.440312) scale(0.1 -0.1)">
        <use xlink:href="#DejaVuSans-30"/>
        <use xlink:href="#DejaVuSans-2e" x="63.623047"/>
        <use xlink:href="#DejaVuSans-32" x="95.410156"/>
        <use xlink:href="#DejaVuSans-34" x="159.033203"/>
       </g>
      </g>
     </g>
     <g id="xtick_6">
      <g id="line2d_6">
       <g>
        <use xlink:href="#m7da9c402b7" x="500.742264" y="40.52" style="stroke: #000000; stroke-width: 0.8"/>
       </g>
      </g>
      <g id="text_6">
       <!-- 0.12 -->
       <g transform="translate(489.609452 31.440312) scale(0.1 -0.1)">
        <use xlink:href="#DejaVuSans-30"/>
        <use xlink:href="#DejaVuSans-2e" x="63.623047"/>
        <use xlink:href="#DejaVuSans-31" x="95.410156"/>
        <use xlink:href="#DejaVuSans-32" x="159.033203"/>
       </g>
      </g>
     </g>
     <g id="xtick_7">
      <g id="line2d_7">
       <g>
        <use xlink:href="#m7da9c402b7" x="613.06849" y="40.52" style="stroke: #000000; stroke-width: 0.8"/>
       </g>
      </g>
      <g id="text_7">
       <!-- 0.05 -->
       <g transform="translate(601.935678 31.440312) scale(0.1 -0.1)">
        <defs>
         <path id="DejaVuSans-35" d="M 691 4666 
L 3169 4666 
L 3169 4134 
L 1269 4134 
L 1269 2991 
Q 1406 3038 1543 3061 
Q 1681 3084 1819 3084 
Q 2600 3084 3056 2656 
Q 3513 2228 3513 1497 
Q 3513 744 3044 326 
Q 2575 -91 1722 -91 
Q 1428 -91 1123 -41 
Q 819 9 494 109 
L 494 744 
Q 775 591 1075 516 
Q 1375 441 1709 441 
Q 2250 441 2565 725 
Q 2881 1009 2881 1497 
Q 2881 1984 2565 2268 
Q 2250 2553 1709 2553 
Q 1456 2553 1204 2497 
Q 953 2441 691 2322 
L 691 4666 
z
" transform="scale(0.015625)"/>
        </defs>
        <use xlink:href="#DejaVuSans-30"/>
        <use xlink:href="#DejaVuSans-2e" x="63.623047"/>
        <use xlink:href="#DejaVuSans-30" x="95.410156"/>
        <use xlink:href="#DejaVuSans-35" x="159.033203"/>
       </g>
      </g>
     </g>
     <g id="xtick_8">
      <g id="line2d_8">
       <g>
        <use xlink:href="#m7da9c402b7" x="698.04" y="40.52" style="stroke: #000000; stroke-width: 0.8"/>
       </g>
      </g>
      <g id="text_8">
       <!-- 0.02 -->
       <g transform="translate(686.907187 31.440312) scale(0.1 -0.1)">
        <use xlink:href="#DejaVuSans-30"/>
        <use xlink:href="#DejaVuSans-2e" x="63.623047"/>
        <use xlink:href="#DejaVuSans-30" x="95.410156"/>
        <use xlink:href="#DejaVuSans-32" x="159.033203"/>
       </g>
      </g>
     </g>
     <g id="xtick_9">
      <g id="line2d_9">
       <defs>
        <path id="maac89dea95" d="M 0 0 
L 0 -2 
" style="stroke: #000000; stroke-width: 0.6"/>
       </defs>
       <g>
        <use xlink:href="#maac89dea95" x="70.880431" y="40.52" style="stroke: #000000; stroke-width: 0.6"/>
       </g>
      </g>
     </g>
     <g id="xtick_10">
      <g id="line2d_10">
       <g>
        <use xlink:href="#maac89dea95" x="89.77745" y="40.52" style="stroke: #000000; stroke-width: 0.6"/>
       </g>
      </g>
     </g>
     <g id="xtick_11">
      <g id="line2d_11">
       <g>
        <use xlink:href="#maac89dea95" x="106.146793" y="40.52" style="stroke: #000000; stroke-width: 0.6"/>
       </g>
      </g>
     </g>
     <g id="xtick_12">
      <g id="line2d_12">
       <g>
        <use xlink:href="#maac89dea95" x="120.585577" y="40.52" style="stroke: #000000; stroke-width: 0.6"/>
       </g>
      </g>
     </g>
     <g id="xtick_13">
      <g id="line2d_13">
       <g>
        <use xlink:href="#maac89dea95" x="268.178166" y="40.52" style="stroke: #000000; stroke-width: 0.6"/>
       </g>
      </g>
     </g>
     <g id="xtick_14">
      <g id="line2d_14">
       <g>
        <use xlink:href="#maac89dea95" x="303.444529" y="40.52" style="stroke: #000000; stroke-width: 0.6"/>
       </g>
      </g>
     </g>
     <g id="xtick_15">
      <g id="line2d_15">
       <g>
        <use xlink:href="#maac89dea95" x="353.149676" y="40.52" style="stroke: #000000; stroke-width: 0.6"/>
       </g>
      </g>
     </g>
     <g id="xtick_16">
      <g id="line2d_16">
       <g>
        <use xlink:href="#maac89dea95" x="372.046696" y="40.52" style="stroke: #000000; stroke-width: 0.6"/>
       </g>
      </g>
     </g>
     <g id="xtick_17">
      <g id="line2d_17">
       <g>
        <use xlink:href="#maac89dea95" x="388.416039" y="40.52" style="stroke: #000000; stroke-width: 0.6"/>
       </g>
      </g>
     </g>
     <g id="xtick_18">
      <g id="line2d_18">
       <g>
        <use xlink:href="#maac89dea95" x="402.854823" y="40.52" style="stroke: #000000; stroke-width: 0.6"/>
       </g>
      </g>
     </g>
     <g id="xtick_19">
      <g id="line2d_19">
       <g>
        <use xlink:href="#maac89dea95" x="550.447411" y="40.52" style="stroke: #000000; stroke-width: 0.6"/>
       </g>
      </g>
     </g>
     <g id="xtick_20">
      <g id="line2d_20">
       <g>
        <use xlink:href="#maac89dea95" x="585.713774" y="40.52" style="stroke: #000000; stroke-width: 0.6"/>
       </g>
      </g>
     </g>
     <g id="xtick_21">
      <g id="line2d_21">
       <g>
        <use xlink:href="#maac89dea95" x="635.418921" y="40.52" style="stroke: #000000; stroke-width: 0.6"/>
       </g>
      </g>
     </g>
     <g id="xtick_22">
      <g id="line2d_22">
       <g>
        <use xlink:href="#maac89dea95" x="654.315941" y="40.52" style="stroke: #000000; stroke-width: 0.6"/>
       </g>
      </g>
     </g>
     <g id="xtick_23">
      <g id="line2d_23">
       <g>
        <use xlink:href="#maac89dea95" x="670.685284" y="40.52" style="stroke: #000000; stroke-width: 0.6"/>
       </g>
      </g>
     </g>
     <g id="xtick_24">
      <g id="line2d_24">
       <g>
        <use xlink:href="#maac89dea95" x="685.124068" y="40.52" style="stroke: #000000; stroke-width: 0.6"/>
       </g>
      </g>
     </g>
     <g id="text_9">
      <!-- Signal to Effective Noise ratio (S/N) -->
      <g transform="translate(267.548125 19.841875) scale(0.12 -0.12)">
       <defs>
        <path id="DejaVuSans-53" d="M 3425 4513 
L 3425 3897 
Q 3066 4069 2747 4153 
Q 2428 4238 2131 4238 
Q 1616 4238 1336 4038 
Q 1056 3838 1056 3469 
Q 1056 3159 1242 3001 
Q 1428 2844 1947 2747 
L 2328 2669 
Q 3034 2534 3370 2195 
Q 3706 1856 3706 1288 
Q 3706 609 3251 259 
Q 2797 -91 1919 -91 
Q 1588 -91 1214 -16 
Q 841 59 441 206 
L 441 856 
Q 825 641 1194 531 
Q 1563 422 1919 422 
Q 2459 422 2753 634 
Q 3047 847 3047 1241 
Q 3047 1584 2836 1778 
Q 2625 1972 2144 2069 
L 1759 2144 
Q 1053 2284 737 2584 
Q 422 2884 422 3419 
Q 422 4038 858 4394 
Q 1294 4750 2059 4750 
Q 2388 4750 2728 4690 
Q 3069 4631 3425 4513 
z
" transform="scale(0.015625)"/>
        <path id="DejaVuSans-69" d="M 603 3500 
L 1178 3500 
L 1178 0 
L 603 0 
L 603 3500 
z
M 603 4863 
L 1178 4863 
L 1178 4134 
L 603 4134 
L 603 4863 
z
" transform="scale(0.015625)"/>
        <path id="DejaVuSans-67" d="M 2906 1791 
Q 2906 2416 2648 2759 
Q 2391 3103 1925 3103 
Q 1463 3103 1205 2759 
Q 947 2416 947 1791 
Q 947 1169 1205 825 
Q 1463 481 1925 481 
Q 2391 481 2648 825 
Q 2906 1169 2906 1791 
z
M 3481 434 
Q 3481 -459 3084 -895 
Q 2688 -1331 1869 -1331 
Q 1566 -1331 1297 -1286 
Q 1028 -1241 775 -1147 
L 775 -588 
Q 1028 -725 1275 -790 
Q 1522 -856 1778 -856 
Q 2344 -856 2625 -561 
Q 2906 -266 2906 331 
L 2906 616 
Q 2728 306 2450 153 
Q 2172 0 1784 0 
Q 1141 0 747 490 
Q 353 981 353 1791 
Q 353 2603 747 3093 
Q 1141 3584 1784 3584 
Q 2172 3584 2450 3431 
Q 2728 3278 2906 2969 
L 2906 3500 
L 3481 3500 
L 3481 434 
z
" transform="scale(0.015625)"/>
        <path id="DejaVuSans-61" d="M 2194 1759 
Q 1497 1759 1228 1600 
Q 959 1441 959 1056 
Q 959 750 1161 570 
Q 1363 391 1709 391 
Q 2188 391 2477 730 
Q 2766 1069 2766 1631 
L 2766 1759 
L 2194 1759 
z
M 3341 1997 
L 3341 0 
L 2766 0 
L 2766 531 
Q 2569 213 2275 61 
Q 1981 -91 1556 -91 
Q 1019 -91 701 211 
Q 384 513 384 1019 
Q 384 1609 779 1909 
Q 1175 2209 1959 2209 
L 2766 2209 
L 2766 2266 
Q 2766 2663 2505 2880 
Q 2244 3097 1772 3097 
Q 1472 3097 1187 3025 
Q 903 2953 641 2809 
L 641 3341 
Q 956 3463 1253 3523 
Q 1550 3584 1831 3584 
Q 2591 3584 2966 3190 
Q 3341 2797 3341 1997 
z
" transform="scale(0.015625)"/>
        <path id="DejaVuSans-6c" d="M 603 4863 
L 1178 4863 
L 1178 0 
L 603 0 
L 603 4863 
z
" transform="scale(0.015625)"/>
        <path id="DejaVuSans-20" transform="scale(0.015625)"/>
        <path id="DejaVuSans-74" d="M 1172 4494 
L 1172 3500 
L 2356 3500 
L 2356 3053 
L 1172 3053 
L 1172 1153 
Q 1172 725 1289 603 
Q 1406 481 1766 481 
L 2356 481 
L 2356 0 
L 1766 0 
Q 1100 0 847 248 
Q 594 497 594 1153 
L 594 3053 
L 172 3053 
L 172 3500 
L 594 3500 
L 594 4494 
L 1172 4494 
z
" transform="scale(0.015625)"/>
        <path id="DejaVuSans-6f" d="M 1959 3097 
Q 1497 3097 1228 2736 
Q 959 2375 959 1747 
Q 959 1119 1226 758 
Q 1494 397 1959 397 
Q 2419 397 2687 759 
Q 2956 1122 2956 1747 
Q 2956 2369 2687 2733 
Q 2419 3097 1959 3097 
z
M 1959 3584 
Q 2709 3584 3137 3096 
Q 3566 2609 3566 1747 
Q 3566 888 3137 398 
Q 2709 -91 1959 -91 
Q 1206 -91 779 398 
Q 353 888 353 1747 
Q 353 2609 779 3096 
Q 1206 3584 1959 3584 
z
" transform="scale(0.015625)"/>
        <path id="DejaVuSans-45" d="M 628 4666 
L 3578 4666 
L 3578 4134 
L 1259 4134 
L 1259 2753 
L 3481 2753 
L 3481 2222 
L 1259 2222 
L 1259 531 
L 3634 531 
L 3634 0 
L 628 0 
L 628 4666 
z
" transform="scale(0.015625)"/>
        <path id="DejaVuSans-65" d="M 3597 1894 
L 3597 1613 
L 953 1613 
Q 991 1019 1311 708 
Q 1631 397 2203 397 
Q 2534 397 2845 478 
Q 3156 559 3463 722 
L 3463 178 
Q 3153 47 2828 -22 
Q 2503 -91 2169 -91 
Q 1331 -91 842 396 
Q 353 884 353 1716 
Q 353 2575 817 3079 
Q 1281 3584 2069 3584 
Q 2775 3584 3186 3129 
Q 3597 2675 3597 1894 
z
M 3022 2063 
Q 3016 2534 2758 2815 
Q 2500 3097 2075 3097 
Q 1594 3097 1305 2825 
Q 1016 2553 972 2059 
L 3022 2063 
z
" transform="scale(0.015625)"/>
        <path id="DejaVuSans-63" d="M 3122 3366 
L 3122 2828 
Q 2878 2963 2633 3030 
Q 2388 3097 2138 3097 
Q 1578 3097 1268 2742 
Q 959 2388 959 1747 
Q 959 1106 1268 751 
Q 1578 397 2138 397 
Q 2388 397 2633 464 
Q 2878 531 3122 666 
L 3122 134 
Q 2881 22 2623 -34 
Q 2366 -91 2075 -91 
Q 1284 -91 818 406 
Q 353 903 353 1747 
Q 353 2603 823 3093 
Q 1294 3584 2113 3584 
Q 2378 3584 2631 3529 
Q 2884 3475 3122 3366 
z
" transform="scale(0.015625)"/>
        <path id="DejaVuSans-76" d="M 191 3500 
L 800 3500 
L 1894 563 
L 2988 3500 
L 3597 3500 
L 2284 0 
L 1503 0 
L 191 3500 
z
" transform="scale(0.015625)"/>
        <path id="DejaVuSans-4e" d="M 628 4666 
L 1478 4666 
L 3547 763 
L 3547 4666 
L 4159 4666 
L 4159 0 
L 3309 0 
L 1241 3903 
L 1241 0 
L 628 0 
L 628 4666 
z
" transform="scale(0.015625)"/>
        <path id="DejaVuSans-73" d="M 2834 3397 
L 2834 2853 
Q 2591 2978 2328 3040 
Q 2066 3103 1784 3103 
Q 1356 3103 1142 2972 
Q 928 2841 928 2578 
Q 928 2378 1081 2264 
Q 1234 2150 1697 2047 
L 1894 2003 
Q 2506 1872 2764 1633 
Q 3022 1394 3022 966 
Q 3022 478 2636 193 
Q 2250 -91 1575 -91 
Q 1294 -91 989 -36 
Q 684 19 347 128 
L 347 722 
Q 666 556 975 473 
Q 1284 391 1588 391 
Q 1994 391 2212 530 
Q 2431 669 2431 922 
Q 2431 1156 2273 1281 
Q 2116 1406 1581 1522 
L 1381 1569 
Q 847 1681 609 1914 
Q 372 2147 372 2553 
Q 372 3047 722 3315 
Q 1072 3584 1716 3584 
Q 2034 3584 2315 3537 
Q 2597 3491 2834 3397 
z
" transform="scale(0.015625)"/>
        <path id="DejaVuSans-72" d="M 2631 2963 
Q 2534 3019 2420 3045 
Q 2306 3072 2169 3072 
Q 1681 3072 1420 2755 
Q 1159 2438 1159 1844 
L 1159 0 
L 581 0 
L 581 3500 
L 1159 3500 
L 1159 2956 
Q 1341 3275 1631 3429 
Q 1922 3584 2338 3584 
Q 2397 3584 2469 3576 
Q 2541 3569 2628 3553 
L 2631 2963 
z
" transform="scale(0.015625)"/>
        <path id="DejaVuSans-28" d="M 1984 4856 
Q 1566 4138 1362 3434 
Q 1159 2731 1159 2009 
Q 1159 1288 1364 580 
Q 1569 -128 1984 -844 
L 1484 -844 
Q 1016 -109 783 600 
Q 550 1309 550 2009 
Q 550 2706 781 3412 
Q 1013 4119 1484 4856 
L 1984 4856 
z
" transform="scale(0.015625)"/>
        <path id="DejaVuSans-2f" d="M 1625 4666 
L 2156 4666 
L 531 -594 
L 0 -594 
L 1625 4666 
z
" transform="scale(0.015625)"/>
        <path id="DejaVuSans-29" d="M 513 4856 
L 1013 4856 
Q 1481 4119 1714 3412 
Q 1947 2706 1947 2009 
Q 1947 1309 1714 600 
Q 1481 -109 1013 -844 
L 513 -844 
Q 928 -128 1133 580 
Q 1338 1288 1338 2009 
Q 1338 2731 1133 3434 
Q 928 4138 513 4856 
z
" transform="scale(0.015625)"/>
       </defs>
       <use xlink:href="#DejaVuSans-53"/>
       <use xlink:href="#DejaVuSans-69" x="63.476562"/>
       <use xlink:href="#DejaVuSans-67" x="91.259766"/>
       <use xlink:href="#DejaVuSans-6e" x="154.736328"/>
       <use xlink:href="#DejaVuSans-61" x="218.115234"/>
       <use xlink:href="#DejaVuSans-6c" x="279.394531"/>
       <use xlink:href="#DejaVuSans-20" x="307.177734"/>
       <use xlink:href="#DejaVuSans-74" x="338.964844"/>
       <use xlink:href="#DejaVuSans-6f" x="378.173828"/>
       <use xlink:href="#DejaVuSans-20" x="439.355469"/>
       <use xlink:href="#DejaVuSans-45" x="471.142578"/>
       <use xlink:href="#DejaVuSans-66" x="534.326172"/>
       <use xlink:href="#DejaVuSans-66" x="569.53125"/>
       <use xlink:href="#DejaVuSans-65" x="604.736328"/>
       <use xlink:href="#DejaVuSans-63" x="666.259766"/>
       <use xlink:href="#DejaVuSans-74" x="721.240234"/>
       <use xlink:href="#DejaVuSans-69" x="760.449219"/>
       <use xlink:href="#DejaVuSans-76" x="788.232422"/>
       <use xlink:href="#DejaVuSans-65" x="847.412109"/>
       <use xlink:href="#DejaVuSans-20" x="908.935547"/>
       <use xlink:href="#DejaVuSans-4e" x="940.722656"/>
       <use xlink:href="#DejaVuSans-6f" x="1015.527344"/>
       <use xlink:href="#DejaVuSans-69" x="1076.708984"/>
       <use xlink:href="#DejaVuSans-73" x="1104.492188"/>
       <use xlink:href="#DejaVuSans-65" x="1156.591797"/>
       <use xlink:href="#DejaVuSans-20" x="1218.115234"/>
       <use xlink:href="#DejaVuSans-72" x="1249.902344"/>
       <use xlink:href="#DejaVuSans-61" x="1291.015625"/>
       <use xlink:href="#DejaVuSans-74" x="1352.294922"/>
       <use xlink:href="#DejaVuSans-69" x="1391.503906"/>
       <use xlink:href="#DejaVuSans-6f" x="1419.287109"/>
       <use xlink:href="#DejaVuSans-20" x="1480.46875"/>
       <use xlink:href="#DejaVuSans-28" x="1512.255859"/>
       <use xlink:href="#DejaVuSans-53" x="1551.269531"/>
       <use xlink:href="#DejaVuSans-2f" x="1614.746094"/>
       <use xlink:href="#DejaVuSans-4e" x="1648.4375"/>
       <use xlink:href="#DejaVuSans-29" x="1723.242188"/>
      </g>
     </g>
    </g>
    <g id="matplotlib.axis_2"/>
    <g id="patch_4">
     <path d="M 48.53 40.52 
L 698.04 40.52 
" style="fill: none; stroke: #000000; stroke-width: 0.8; stroke-linejoin: miter; stroke-linecap: square"/>
    </g>
   </g>
   <g id="matplotlib.axis_3">
    <g id="xtick_25">
     <g id="line2d_25">
      <path d="M 48.53 389.32 
L 48.53 40.52 
" clip-path="url(#pea806dee9b)" style="fill: none; stroke-dasharray: 2.96,1.28; stroke-dashoffset: 0; stroke: #b0b0b0; stroke-opacity: 0.5; stroke-width: 0.8"/>
     </g>
     <g id="line2d_26">
      <defs>
       <path id="m2ab4f36a4d" d="M 0 0 
L 0 3.5 
" style="stroke: #000000; stroke-width: 0.8"/>
      </defs>
      <g>
       <use xlink:href="#m2ab4f36a4d" x="48.53" y="389.32" style="stroke: #000000; stroke-width: 0.8"/>
      </g>
     </g>
     <g id="text_10">
      <!-- 0 -->
      <g transform="translate(45.34875 403.918437) scale(0.1 -0.1)">
       <use xlink:href="#DejaVuSans-30"/>
      </g>
     </g>
    </g>
    <g id="xtick_26">
     <g id="line2d_27">
      <path d="M 133.50151 389.32 
L 133.50151 40.52 
" clip-path="url(#pea806dee9b)" style="fill: none; stroke-dasharray: 2.96,1.28; stroke-dashoffset: 0; stroke: #b0b0b0; stroke-opacity: 0.5; stroke-width: 0.8"/>
     </g>
     <g id="line2d_28">
      <g>
       <use xlink:href="#m2ab4f36a4d" x="133.50151" y="389.32" style="stroke: #000000; stroke-width: 0.8"/>
      </g>
     </g>
     <g id="text_11">
      <!-- 0.01 -->
      <g transform="translate(122.368697 403.918437) scale(0.1 -0.1)">
       <use xlink:href="#DejaVuSans-30"/>
       <use xlink:href="#DejaVuSans-2e" x="63.623047"/>
       <use xlink:href="#DejaVuSans-30" x="95.410156"/>
       <use xlink:href="#DejaVuSans-31" x="159.033203"/>
      </g>
     </g>
    </g>
    <g id="xtick_27">
     <g id="line2d_29">
      <path d="M 218.473019 389.32 
L 218.473019 40.52 
" clip-path="url(#pea806dee9b)" style="fill: none; stroke-dasharray: 2.96,1.28; stroke-dashoffset: 0; stroke: #b0b0b0; stroke-opacity: 0.5; stroke-width: 0.8"/>
     </g>
     <g id="line2d_30">
      <g>
       <use xlink:href="#m2ab4f36a4d" x="218.473019" y="389.32" style="stroke: #000000; stroke-width: 0.8"/>
      </g>
     </g>
     <g id="text_12">
      <!-- 0.02 -->
      <g transform="translate(207.340207 403.918437) scale(0.1 -0.1)">
       <use xlink:href="#DejaVuSans-30"/>
       <use xlink:href="#DejaVuSans-2e" x="63.623047"/>
       <use xlink:href="#DejaVuSans-30" x="95.410156"/>
       <use xlink:href="#DejaVuSans-32" x="159.033203"/>
      </g>
     </g>
    </g>
    <g id="xtick_28">
     <g id="line2d_31">
      <path d="M 330.799245 389.32 
L 330.799245 40.52 
" clip-path="url(#pea806dee9b)" style="fill: none; stroke-dasharray: 2.96,1.28; stroke-dashoffset: 0; stroke: #b0b0b0; stroke-opacity: 0.5; stroke-width: 0.8"/>
     </g>
     <g id="line2d_32">
      <g>
       <use xlink:href="#m2ab4f36a4d" x="330.799245" y="389.32" style="stroke: #000000; stroke-width: 0.8"/>
      </g>
     </g>
     <g id="text_13">
      <!-- 0.05 -->
      <g transform="translate(319.666433 403.918437) scale(0.1 -0.1)">
       <use xlink:href="#DejaVuSans-30"/>
       <use xlink:href="#DejaVuSans-2e" x="63.623047"/>
       <use xlink:href="#DejaVuSans-30" x="95.410156"/>
       <use xlink:href="#DejaVuSans-35" x="159.033203"/>
      </g>
     </g>
    </g>
    <g id="xtick_29">
     <g id="line2d_33">
      <path d="M 415.770755 389.32 
L 415.770755 40.52 
" clip-path="url(#pea806dee9b)" style="fill: none; stroke-dasharray: 2.96,1.28; stroke-dashoffset: 0; stroke: #b0b0b0; stroke-opacity: 0.5; stroke-width: 0.8"/>
     </g>
     <g id="line2d_34">
      <g>
       <use xlink:href="#m2ab4f36a4d" x="415.770755" y="389.32" style="stroke: #000000; stroke-width: 0.8"/>
      </g>
     </g>
     <g id="text_14">
      <!-- 0.1 -->
      <g transform="translate(407.819192 403.918437) scale(0.1 -0.1)">
       <use xlink:href="#DejaVuSans-30"/>
       <use xlink:href="#DejaVuSans-2e" x="63.623047"/>
       <use xlink:href="#DejaVuSans-31" x="95.410156"/>
      </g>
     </g>
    </g>
    <g id="xtick_30">
     <g id="line2d_35">
      <path d="M 500.742264 389.32 
L 500.742264 40.52 
" clip-path="url(#pea806dee9b)" style="fill: none; stroke-dasharray: 2.96,1.28; stroke-dashoffset: 0; stroke: #b0b0b0; stroke-opacity: 0.5; stroke-width: 0.8"/>
     </g>
     <g id="line2d_36">
      <g>
       <use xlink:href="#m2ab4f36a4d" x="500.742264" y="389.32" style="stroke: #000000; stroke-width: 0.8"/>
      </g>
     </g>
     <g id="text_15">
      <!-- 0.2 -->
      <g transform="translate(492.790702 403.918437) scale(0.1 -0.1)">
       <use xlink:href="#DejaVuSans-30"/>
       <use xlink:href="#DejaVuSans-2e" x="63.623047"/>
       <use xlink:href="#DejaVuSans-32" x="95.410156"/>
      </g>
     </g>
    </g>
    <g id="xtick_31">
     <g id="line2d_37">
      <path d="M 613.06849 389.32 
L 613.06849 40.52 
" clip-path="url(#pea806dee9b)" style="fill: none; stroke-dasharray: 2.96,1.28; stroke-dashoffset: 0; stroke: #b0b0b0; stroke-opacity: 0.5; stroke-width: 0.8"/>
     </g>
     <g id="line2d_38">
      <g>
       <use xlink:href="#m2ab4f36a4d" x="613.06849" y="389.32" style="stroke: #000000; stroke-width: 0.8"/>
      </g>
     </g>
     <g id="text_16">
      <!-- 0.5 -->
      <g transform="translate(605.116928 403.918437) scale(0.1 -0.1)">
       <use xlink:href="#DejaVuSans-30"/>
       <use xlink:href="#DejaVuSans-2e" x="63.623047"/>
       <use xlink:href="#DejaVuSans-35" x="95.410156"/>
      </g>
     </g>
    </g>
    <g id="xtick_32">
     <g id="line2d_39">
      <path d="M 698.04 389.32 
L 698.04 40.52 
" clip-path="url(#pea806dee9b)" style="fill: none; stroke-dasharray: 2.96,1.28; stroke-dashoffset: 0; stroke: #b0b0b0; stroke-opacity: 0.5; stroke-width: 0.8"/>
     </g>
     <g id="line2d_40">
      <g>
       <use xlink:href="#m2ab4f36a4d" x="698.04" y="389.32" style="stroke: #000000; stroke-width: 0.8"/>
      </g>
     </g>
     <g id="text_17">
      <!-- 1 -->
      <g transform="translate(694.85875 403.918437) scale(0.1 -0.1)">
       <use xlink:href="#DejaVuSans-31"/>
      </g>
     </g>
    </g>
    <g id="xtick_33">
     <g id="line2d_41">
      <path d="M 70.880431 389.32 
L 70.880431 40.52 
" clip-path="url(#pea806dee9b)" style="fill: none; stroke-dasharray: 2.96,1.28; stroke-dashoffset: 0; stroke: #b0b0b0; stroke-opacity: 0.5; stroke-width: 0.8"/>
     </g>
     <g id="line2d_42">
      <defs>
       <path id="mcf71614ca2" d="M 0 0 
L 0 2 
" style="stroke: #000000; stroke-width: 0.6"/>
      </defs>
      <g>
       <use xlink:href="#mcf71614ca2" x="70.880431" y="389.32" style="stroke: #000000; stroke-width: 0.6"/>
      </g>
     </g>
    </g>
    <g id="xtick_34">
     <g id="line2d_43">
      <path d="M 89.77745 389.32 
L 89.77745 40.52 
" clip-path="url(#pea806dee9b)" style="fill: none; stroke-dasharray: 2.96,1.28; stroke-dashoffset: 0; stroke: #b0b0b0; stroke-opacity: 0.5; stroke-width: 0.8"/>
     </g>
     <g id="line2d_44">
      <g>
       <use xlink:href="#mcf71614ca2" x="89.77745" y="389.32" style="stroke: #000000; stroke-width: 0.6"/>
      </g>
     </g>
    </g>
    <g id="xtick_35">
     <g id="line2d_45">
      <path d="M 106.146793 389.32 
L 106.146793 40.52 
" clip-path="url(#pea806dee9b)" style="fill: none; stroke-dasharray: 2.96,1.28; stroke-dashoffset: 0; stroke: #b0b0b0; stroke-opacity: 0.5; stroke-width: 0.8"/>
     </g>
     <g id="line2d_46">
      <g>
       <use xlink:href="#mcf71614ca2" x="106.146793" y="389.32" style="stroke: #000000; stroke-width: 0.6"/>
      </g>
     </g>
    </g>
    <g id="xtick_36">
     <g id="line2d_47">
      <path d="M 120.585577 389.32 
L 120.585577 40.52 
" clip-path="url(#pea806dee9b)" style="fill: none; stroke-dasharray: 2.96,1.28; stroke-dashoffset: 0; stroke: #b0b0b0; stroke-opacity: 0.5; stroke-width: 0.8"/>
     </g>
     <g id="line2d_48">
      <g>
       <use xlink:href="#mcf71614ca2" x="120.585577" y="389.32" style="stroke: #000000; stroke-width: 0.6"/>
      </g>
     </g>
    </g>
    <g id="xtick_37">
     <g id="line2d_49">
      <path d="M 268.178166 389.32 
L 268.178166 40.52 
" clip-path="url(#pea806dee9b)" style="fill: none; stroke-dasharray: 2.96,1.28; stroke-dashoffset: 0; stroke: #b0b0b0; stroke-opacity: 0.5; stroke-width: 0.8"/>
     </g>
     <g id="line2d_50">
      <g>
       <use xlink:href="#mcf71614ca2" x="268.178166" y="389.32" style="stroke: #000000; stroke-width: 0.6"/>
      </g>
     </g>
    </g>
    <g id="xtick_38">
     <g id="line2d_51">
      <path d="M 303.444529 389.32 
L 303.444529 40.52 
" clip-path="url(#pea806dee9b)" style="fill: none; stroke-dasharray: 2.96,1.28; stroke-dashoffset: 0; stroke: #b0b0b0; stroke-opacity: 0.5; stroke-width: 0.8"/>
     </g>
     <g id="line2d_52">
      <g>
       <use xlink:href="#mcf71614ca2" x="303.444529" y="389.32" style="stroke: #000000; stroke-width: 0.6"/>
      </g>
     </g>
    </g>
    <g id="xtick_39">
     <g id="line2d_53">
      <path d="M 353.149676 389.32 
L 353.149676 40.52 
" clip-path="url(#pea806dee9b)" style="fill: none; stroke-dasharray: 2.96,1.28; stroke-dashoffset: 0; stroke: #b0b0b0; stroke-opacity: 0.5; stroke-width: 0.8"/>
     </g>
     <g id="line2d_54">
      <g>
       <use xlink:href="#mcf71614ca2" x="353.149676" y="389.32" style="stroke: #000000; stroke-width: 0.6"/>
      </g>
     </g>
    </g>
    <g id="xtick_40">
     <g id="line2d_55">
      <path d="M 372.046696 389.32 
L 372.046696 40.52 
" clip-path="url(#pea806dee9b)" style="fill: none; stroke-dasharray: 2.96,1.28; stroke-dashoffset: 0; stroke: #b0b0b0; stroke-opacity: 0.5; stroke-width: 0.8"/>
     </g>
     <g id="line2d_56">
      <g>
       <use xlink:href="#mcf71614ca2" x="372.046696" y="389.32" style="stroke: #000000; stroke-width: 0.6"/>
      </g>
     </g>
    </g>
    <g id="xtick_41">
     <g id="line2d_57">
      <path d="M 388.416039 389.32 
L 388.416039 40.52 
" clip-path="url(#pea806dee9b)" style="fill: none; stroke-dasharray: 2.96,1.28; stroke-dashoffset: 0; stroke: #b0b0b0; stroke-opacity: 0.5; stroke-width: 0.8"/>
     </g>
     <g id="line2d_58">
      <g>
       <use xlink:href="#mcf71614ca2" x="388.416039" y="389.32" style="stroke: #000000; stroke-width: 0.6"/>
      </g>
     </g>
    </g>
    <g id="xtick_42">
     <g id="line2d_59">
      <path d="M 402.854823 389.32 
L 402.854823 40.52 
" clip-path="url(#pea806dee9b)" style="fill: none; stroke-dasharray: 2.96,1.28; stroke-dashoffset: 0; stroke: #b0b0b0; stroke-opacity: 0.5; stroke-width: 0.8"/>
     </g>
     <g id="line2d_60">
      <g>
       <use xlink:href="#mcf71614ca2" x="402.854823" y="389.32" style="stroke: #000000; stroke-width: 0.6"/>
      </g>
     </g>
    </g>
    <g id="xtick_43">
     <g id="line2d_61">
      <path d="M 550.447411 389.32 
L 550.447411 40.52 
" clip-path="url(#pea806dee9b)" style="fill: none; stroke-dasharray: 2.96,1.28; stroke-dashoffset: 0; stroke: #b0b0b0; stroke-opacity: 0.5; stroke-width: 0.8"/>
     </g>
     <g id="line2d_62">
      <g>
       <use xlink:href="#mcf71614ca2" x="550.447411" y="389.32" style="stroke: #000000; stroke-width: 0.6"/>
      </g>
     </g>
    </g>
    <g id="xtick_44">
     <g id="line2d_63">
      <path d="M 585.713774 389.32 
L 585.713774 40.52 
" clip-path="url(#pea806dee9b)" style="fill: none; stroke-dasharray: 2.96,1.28; stroke-dashoffset: 0; stroke: #b0b0b0; stroke-opacity: 0.5; stroke-width: 0.8"/>
     </g>
     <g id="line2d_64">
      <g>
       <use xlink:href="#mcf71614ca2" x="585.713774" y="389.32" style="stroke: #000000; stroke-width: 0.6"/>
      </g>
     </g>
    </g>
    <g id="xtick_45">
     <g id="line2d_65">
      <path d="M 635.418921 389.32 
L 635.418921 40.52 
" clip-path="url(#pea806dee9b)" style="fill: none; stroke-dasharray: 2.96,1.28; stroke-dashoffset: 0; stroke: #b0b0b0; stroke-opacity: 0.5; stroke-width: 0.8"/>
     </g>
     <g id="line2d_66">
      <g>
       <use xlink:href="#mcf71614ca2" x="635.418921" y="389.32" style="stroke: #000000; stroke-width: 0.6"/>
      </g>
     </g>
    </g>
    <g id="xtick_46">
     <g id="line2d_67">
      <path d="M 654.315941 389.32 
L 654.315941 40.52 
" clip-path="url(#pea806dee9b)" style="fill: none; stroke-dasharray: 2.96,1.28; stroke-dashoffset: 0; stroke: #b0b0b0; stroke-opacity: 0.5; stroke-width: 0.8"/>
     </g>
     <g id="line2d_68">
      <g>
       <use xlink:href="#mcf71614ca2" x="654.315941" y="389.32" style="stroke: #000000; stroke-width: 0.6"/>
      </g>
     </g>
    </g>
    <g id="xtick_47">
     <g id="line2d_69">
      <path d="M 670.685284 389.32 
L 670.685284 40.52 
" clip-path="url(#pea806dee9b)" style="fill: none; stroke-dasharray: 2.96,1.28; stroke-dashoffset: 0; stroke: #b0b0b0; stroke-opacity: 0.5; stroke-width: 0.8"/>
     </g>
     <g id="line2d_70">
      <g>
       <use xlink:href="#mcf71614ca2" x="670.685284" y="389.32" style="stroke: #000000; stroke-width: 0.6"/>
      </g>
     </g>
    </g>
    <g id="xtick_48">
     <g id="line2d_71">
      <path d="M 685.124068 389.32 
L 685.124068 40.52 
" clip-path="url(#pea806dee9b)" style="fill: none; stroke-dasharray: 2.96,1.28; stroke-dashoffset: 0; stroke: #b0b0b0; stroke-opacity: 0.5; stroke-width: 0.8"/>
     </g>
     <g id="line2d_72">
      <g>
       <use xlink:href="#mcf71614ca2" x="685.124068" y="389.32" style="stroke: #000000; stroke-width: 0.6"/>
      </g>
     </g>
    </g>
    <g id="text_18">
     <!-- Gene Noise (σ) -->
     <g transform="translate(328.507187 419.11625) scale(0.12 -0.12)">
      <defs>
       <path id="DejaVuSans-47" d="M 3809 666 
L 3809 1919 
L 2778 1919 
L 2778 2438 
L 4434 2438 
L 4434 434 
Q 4069 175 3628 42 
Q 3188 -91 2688 -91 
Q 1594 -91 976 548 
Q 359 1188 359 2328 
Q 359 3472 976 4111 
Q 1594 4750 2688 4750 
Q 3144 4750 3555 4637 
Q 3966 4525 4313 4306 
L 4313 3634 
Q 3963 3931 3569 4081 
Q 3175 4231 2741 4231 
Q 1884 4231 1454 3753 
Q 1025 3275 1025 2328 
Q 1025 1384 1454 906 
Q 1884 428 2741 428 
Q 3075 428 3337 486 
Q 3600 544 3809 666 
z
" transform="scale(0.015625)"/>
       <path id="DejaVuSans-3c3" d="M 1959 3044 
Q 1484 3044 1228 2700 
Q 959 2341 959 1747 
Q 959 1119 1226 758 
Q 1494 397 1959 397 
Q 2419 397 2687 759 
Q 2956 1122 2956 1747 
Q 2956 2319 2688 2700 
Q 2441 3044 1959 3044 
z
M 1959 3500 
L 3869 3500 
L 3869 2925 
L 3225 2925 
Q 3566 2438 3566 1747 
Q 3566 888 3138 400 
Q 2709 -91 1959 -91 
Q 1206 -91 781 400 
Q 353 888 353 1747 
Q 353 2613 781 3097 
Q 1134 3500 1959 3500 
z
" transform="scale(0.015625)"/>
      </defs>
      <use xlink:href="#DejaVuSans-47"/>
      <use xlink:href="#DejaVuSans-65" x="77.490234"/>
      <use xlink:href="#DejaVuSans-6e" x="139.013672"/>
      <use xlink:href="#DejaVuSans-65" x="202.392578"/>
      <use xlink:href="#DejaVuSans-20" x="263.916016"/>
      <use xlink:href="#DejaVuSans-4e" x="295.703125"/>
      <use xlink:href="#DejaVuSans-6f" x="370.507812"/>
      <use xlink:href="#DejaVuSans-69" x="431.689453"/>
      <use xlink:href="#DejaVuSans-73" x="459.472656"/>
      <use xlink:href="#DejaVuSans-65" x="511.572266"/>
      <use xlink:href="#DejaVuSans-20" x="573.095703"/>
      <use xlink:href="#DejaVuSans-28" x="604.882812"/>
      <use xlink:href="#DejaVuSans-3c3" x="643.896484"/>
      <use xlink:href="#DejaVuSans-29" x="707.275391"/>
     </g>
    </g>
   </g>
   <g id="matplotlib.axis_4">
    <g id="ytick_1">
     <g id="line2d_73">
      <defs>
       <path id="mc8d0830864" d="M 0 0 
L -3.5 0 
" style="stroke: #000000; stroke-width: 0.8"/>
      </defs>
      <g>
       <use xlink:href="#mc8d0830864" x="48.53" y="379.765274" style="stroke: #000000; stroke-width: 0.8"/>
      </g>
     </g>
     <g id="text_19">
      <!-- 0.5 -->
      <g transform="translate(25.626875 383.564493) scale(0.1 -0.1)">
       <use xlink:href="#DejaVuSans-30"/>
       <use xlink:href="#DejaVuSans-2e" x="63.623047"/>
       <use xlink:href="#DejaVuSans-35" x="95.410156"/>
      </g>
     </g>
    </g>
    <g id="ytick_2">
     <g id="line2d_74">
      <g>
       <use xlink:href="#mc8d0830864" x="48.53" y="315.087128" style="stroke: #000000; stroke-width: 0.8"/>
      </g>
     </g>
     <g id="text_20">
      <!-- 0.6 -->
      <g transform="translate(25.626875 318.886347) scale(0.1 -0.1)">
       <defs>
        <path id="DejaVuSans-36" d="M 2113 2584 
Q 1688 2584 1439 2293 
Q 1191 2003 1191 1497 
Q 1191 994 1439 701 
Q 1688 409 2113 409 
Q 2538 409 2786 701 
Q 3034 994 3034 1497 
Q 3034 2003 2786 2293 
Q 2538 2584 2113 2584 
z
M 3366 4563 
L 3366 3988 
Q 3128 4100 2886 4159 
Q 2644 4219 2406 4219 
Q 1781 4219 1451 3797 
Q 1122 3375 1075 2522 
Q 1259 2794 1537 2939 
Q 1816 3084 2150 3084 
Q 2853 3084 3261 2657 
Q 3669 2231 3669 1497 
Q 3669 778 3244 343 
Q 2819 -91 2113 -91 
Q 1303 -91 875 529 
Q 447 1150 447 2328 
Q 447 3434 972 4092 
Q 1497 4750 2381 4750 
Q 2619 4750 2861 4703 
Q 3103 4656 3366 4563 
z
" transform="scale(0.015625)"/>
       </defs>
       <use xlink:href="#DejaVuSans-30"/>
       <use xlink:href="#DejaVuSans-2e" x="63.623047"/>
       <use xlink:href="#DejaVuSans-36" x="95.410156"/>
      </g>
     </g>
    </g>
    <g id="ytick_3">
     <g id="line2d_75">
      <g>
       <use xlink:href="#mc8d0830864" x="48.53" y="250.408983" style="stroke: #000000; stroke-width: 0.8"/>
      </g>
     </g>
     <g id="text_21">
      <!-- 0.7 -->
      <g transform="translate(25.626875 254.208201) scale(0.1 -0.1)">
       <defs>
        <path id="DejaVuSans-37" d="M 525 4666 
L 3525 4666 
L 3525 4397 
L 1831 0 
L 1172 0 
L 2766 4134 
L 525 4134 
L 525 4666 
z
" transform="scale(0.015625)"/>
       </defs>
       <use xlink:href="#DejaVuSans-30"/>
       <use xlink:href="#DejaVuSans-2e" x="63.623047"/>
       <use xlink:href="#DejaVuSans-37" x="95.410156"/>
      </g>
     </g>
    </g>
    <g id="ytick_4">
     <g id="line2d_76">
      <g>
       <use xlink:href="#mc8d0830864" x="48.53" y="185.730837" style="stroke: #000000; stroke-width: 0.8"/>
      </g>
     </g>
     <g id="text_22">
      <!-- 0.8 -->
      <g transform="translate(25.626875 189.530056) scale(0.1 -0.1)">
       <defs>
        <path id="DejaVuSans-38" d="M 2034 2216 
Q 1584 2216 1326 1975 
Q 1069 1734 1069 1313 
Q 1069 891 1326 650 
Q 1584 409 2034 409 
Q 2484 409 2743 651 
Q 3003 894 3003 1313 
Q 3003 1734 2745 1975 
Q 2488 2216 2034 2216 
z
M 1403 2484 
Q 997 2584 770 2862 
Q 544 3141 544 3541 
Q 544 4100 942 4425 
Q 1341 4750 2034 4750 
Q 2731 4750 3128 4425 
Q 3525 4100 3525 3541 
Q 3525 3141 3298 2862 
Q 3072 2584 2669 2484 
Q 3125 2378 3379 2068 
Q 3634 1759 3634 1313 
Q 3634 634 3220 271 
Q 2806 -91 2034 -91 
Q 1263 -91 848 271 
Q 434 634 434 1313 
Q 434 1759 690 2068 
Q 947 2378 1403 2484 
z
M 1172 3481 
Q 1172 3119 1398 2916 
Q 1625 2713 2034 2713 
Q 2441 2713 2670 2916 
Q 2900 3119 2900 3481 
Q 2900 3844 2670 4047 
Q 2441 4250 2034 4250 
Q 1625 4250 1398 4047 
Q 1172 3844 1172 3481 
z
" transform="scale(0.015625)"/>
       </defs>
       <use xlink:href="#DejaVuSans-30"/>
       <use xlink:href="#DejaVuSans-2e" x="63.623047"/>
       <use xlink:href="#DejaVuSans-38" x="95.410156"/>
      </g>
     </g>
    </g>
    <g id="ytick_5">
     <g id="line2d_77">
      <g>
       <use xlink:href="#mc8d0830864" x="48.53" y="121.052691" style="stroke: #000000; stroke-width: 0.8"/>
      </g>
     </g>
     <g id="text_23">
      <!-- 0.9 -->
      <g transform="translate(25.626875 124.85191) scale(0.1 -0.1)">
       <use xlink:href="#DejaVuSans-30"/>
       <use xlink:href="#DejaVuSans-2e" x="63.623047"/>
       <use xlink:href="#DejaVuSans-39" x="95.410156"/>
      </g>
     </g>
    </g>
    <g id="ytick_6">
     <g id="line2d_78">
      <g>
       <use xlink:href="#mc8d0830864" x="48.53" y="56.374545" style="stroke: #000000; stroke-width: 0.8"/>
      </g>
     </g>
     <g id="text_24">
      <!-- 1.0 -->
      <g transform="translate(25.626875 60.173764) scale(0.1 -0.1)">
       <use xlink:href="#DejaVuSans-31"/>
       <use xlink:href="#DejaVuSans-2e" x="63.623047"/>
       <use xlink:href="#DejaVuSans-30" x="95.410156"/>
      </g>
     </g>
    </g>
    <g id="text_25">
     <!-- Pattern Fidelity -->
     <g transform="translate(19.13125 259.832813) rotate(-90) scale(0.12 -0.12)">
      <defs>
       <path id="DejaVuSans-50" d="M 1259 4147 
L 1259 2394 
L 2053 2394 
Q 2494 2394 2734 2622 
Q 2975 2850 2975 3272 
Q 2975 3691 2734 3919 
Q 2494 4147 2053 4147 
L 1259 4147 
z
M 628 4666 
L 2053 4666 
Q 2838 4666 3239 4311 
Q 3641 3956 3641 3272 
Q 3641 2581 3239 2228 
Q 2838 1875 2053 1875 
L 1259 1875 
L 1259 0 
L 628 0 
L 628 4666 
z
" transform="scale(0.015625)"/>
       <path id="DejaVuSans-46" d="M 628 4666 
L 3309 4666 
L 3309 4134 
L 1259 4134 
L 1259 2759 
L 3109 2759 
L 3109 2228 
L 1259 2228 
L 1259 0 
L 628 0 
L 628 4666 
z
" transform="scale(0.015625)"/>
       <path id="DejaVuSans-64" d="M 2906 2969 
L 2906 4863 
L 3481 4863 
L 3481 0 
L 2906 0 
L 2906 525 
Q 2725 213 2448 61 
Q 2172 -91 1784 -91 
Q 1150 -91 751 415 
Q 353 922 353 1747 
Q 353 2572 751 3078 
Q 1150 3584 1784 3584 
Q 2172 3584 2448 3432 
Q 2725 3281 2906 2969 
z
M 947 1747 
Q 947 1113 1208 752 
Q 1469 391 1925 391 
Q 2381 391 2643 752 
Q 2906 1113 2906 1747 
Q 2906 2381 2643 2742 
Q 2381 3103 1925 3103 
Q 1469 3103 1208 2742 
Q 947 2381 947 1747 
z
" transform="scale(0.015625)"/>
       <path id="DejaVuSans-79" d="M 2059 -325 
Q 1816 -950 1584 -1140 
Q 1353 -1331 966 -1331 
L 506 -1331 
L 506 -850 
L 844 -850 
Q 1081 -850 1212 -737 
Q 1344 -625 1503 -206 
L 1606 56 
L 191 3500 
L 800 3500 
L 1894 763 
L 2988 3500 
L 3597 3500 
L 2059 -325 
z
" transform="scale(0.015625)"/>
      </defs>
      <use xlink:href="#DejaVuSans-50"/>
      <use xlink:href="#DejaVuSans-61" x="55.802734"/>
      <use xlink:href="#DejaVuSans-74" x="117.082031"/>
      <use xlink:href="#DejaVuSans-74" x="156.291016"/>
      <use xlink:href="#DejaVuSans-65" x="195.5"/>
      <use xlink:href="#DejaVuSans-72" x="257.023438"/>
      <use xlink:href="#DejaVuSans-6e" x="296.386719"/>
      <use xlink:href="#DejaVuSans-20" x="359.765625"/>
      <use xlink:href="#DejaVuSans-46" x="391.552734"/>
      <use xlink:href="#DejaVuSans-69" x="441.822266"/>
      <use xlink:href="#DejaVuSans-64" x="469.605469"/>
      <use xlink:href="#DejaVuSans-65" x="533.082031"/>
      <use xlink:href="#DejaVuSans-6c" x="594.605469"/>
      <use xlink:href="#DejaVuSans-69" x="622.388672"/>
      <use xlink:href="#DejaVuSans-74" x="650.171875"/>
      <use xlink:href="#DejaVuSans-79" x="689.380859"/>
     </g>
    </g>
   </g>
   <g id="line2d_79">
    <path d="M 48.53 56.374545 
L 133.50151 56.374545 
L 163.214062 56.374545 
L 192.926614 56.374545 
L 222.639166 56.374545 
L 252.351718 56.374545 
L 282.06427 56.374545 
L 311.776822 56.374545 
L 341.489375 56.374545 
L 371.201927 56.374545 
L 400.914479 56.374545 
L 430.627031 56.374545 
L 460.339583 60.416945 
L 490.052135 64.459306 
L 519.764687 108.925547 
L 549.477239 141.264627 
L 579.189792 165.518909 
L 608.902344 201.900389 
L 638.614896 238.28183 
L 668.327448 266.578511 
L 698.04 266.578511 
" clip-path="url(#pea806dee9b)" style="fill: none; stroke: #1f77b4; stroke-width: 2; stroke-linecap: square"/>
   </g>
   <g id="line2d_80">
    <path d="M 48.53 56.374545 
L 133.50151 56.374545 
L 163.214062 56.374545 
L 192.926614 56.374545 
L 222.639166 56.374545 
L 252.351718 56.374545 
L 282.06427 56.374545 
L 311.776822 56.374545 
L 341.489375 56.374545 
L 371.201927 56.374545 
L 400.914479 56.374661 
L 430.627031 56.393513 
L 460.339583 56.896336 
L 490.052135 60.686842 
L 519.764687 73.244811 
L 549.477239 97.951722 
L 579.189792 134.078957 
L 608.902344 178.69786 
L 638.614896 226.167662 
L 668.327448 269.615959 
L 698.04 304.624284 
" clip-path="url(#pea806dee9b)" style="fill: none; stroke-dasharray: 7.4,3.2; stroke-dashoffset: 0; stroke: #1f77b4; stroke-width: 2"/>
   </g>
   <g id="line2d_81">
    <path d="M 48.53 56.374545 
L 133.50151 56.374545 
L 163.214062 56.374545 
L 192.926614 56.374545 
L 222.639166 56.374545 
L 252.351718 56.374545 
L 282.06427 56.374545 
L 311.776822 56.374545 
L 341.489375 56.374545 
L 371.201927 56.374545 
L 400.914479 56.374545 
L 430.627031 60.416945 
L 460.339583 56.374545 
L 490.052135 60.416945 
L 519.764687 92.755987 
L 549.477239 104.883147 
L 579.189792 161.476548 
L 608.902344 205.94275 
L 638.614896 250.40899 
L 668.327448 311.044752 
L 698.04 246.366591 
" clip-path="url(#pea806dee9b)" style="fill: none; stroke: #ff7f0e; stroke-width: 2; stroke-linecap: square"/>
   </g>
   <g id="line2d_82">
    <path d="M 48.53 56.374545 
L 133.50151 56.374545 
L 163.214062 56.374545 
L 192.926614 56.374545 
L 222.639166 56.374545 
L 252.351718 56.374545 
L 282.06427 56.374545 
L 311.776822 56.374545 
L 341.489375 56.374545 
L 371.201927 56.374545 
L 400.914479 56.374661 
L 430.627031 56.393513 
L 460.339583 56.896336 
L 490.052135 60.687112 
L 519.764687 73.257842 
L 549.477239 98.074007 
L 579.189792 134.439064 
L 608.902344 179.194323 
L 638.614896 226.589181 
L 668.327448 269.879687 
L 698.04 304.76064 
" clip-path="url(#pea806dee9b)" style="fill: none; stroke-dasharray: 7.4,3.2; stroke-dashoffset: 0; stroke: #ff7f0e; stroke-width: 2"/>
   </g>
   <g id="line2d_83">
    <path d="M 48.53 56.374545 
L 133.50151 56.374545 
L 163.214062 56.374545 
L 192.926614 56.374545 
L 222.639166 56.374545 
L 252.351718 56.374545 
L 282.06427 56.374545 
L 311.776822 56.374545 
L 341.489375 56.374545 
L 371.201927 56.374545 
L 400.914479 56.374545 
L 430.627031 56.374545 
L 460.339583 56.374545 
L 490.052135 68.501706 
L 519.764687 96.798387 
L 549.477239 149.349388 
L 579.189792 161.476548 
L 608.902344 218.06991 
L 638.614896 205.94275 
L 668.327448 343.383832 
L 698.04 327.214273 
" clip-path="url(#pea806dee9b)" style="fill: none; stroke: #2ca02c; stroke-width: 2; stroke-linecap: square"/>
   </g>
   <g id="line2d_84">
    <path d="M 48.53 56.374545 
L 133.50151 56.374545 
L 163.214062 56.374545 
L 192.926614 56.374545 
L 222.639166 56.374545 
L 252.351718 56.374545 
L 282.06427 56.374545 
L 311.776822 56.374545 
L 341.489375 56.374545 
L 371.201927 56.374545 
L 400.914479 56.374661 
L 430.627031 56.393513 
L 460.339583 56.896683 
L 490.052135 60.694205 
L 519.764687 73.342847 
L 549.477239 98.515186 
L 579.189792 135.476823 
L 608.902344 180.517746 
L 638.614896 227.687349 
L 668.327448 270.564048 
L 698.04 305.115079 
" clip-path="url(#pea806dee9b)" style="fill: none; stroke-dasharray: 7.4,3.2; stroke-dashoffset: 0; stroke: #2ca02c; stroke-width: 2"/>
   </g>
   <g id="line2d_85">
    <path d="M 48.53 56.374545 
L 133.50151 56.374545 
L 163.214062 56.374545 
L 192.926614 56.374545 
L 222.639166 56.374545 
L 252.351718 56.374545 
L 282.06427 56.374545 
L 311.776822 56.374545 
L 341.489375 56.374545 
L 371.201927 56.374545 
L 400.914479 56.374545 
L 430.627031 56.374545 
L 460.339583 68.501706 
L 490.052135 68.501706 
L 519.764687 84.671227 
L 549.477239 137.222228 
L 579.189792 157.434148 
L 608.902344 181.688468 
L 638.614896 238.28183 
L 668.327448 274.663272 
L 698.04 319.129512 
" clip-path="url(#pea806dee9b)" style="fill: none; stroke: #d62728; stroke-width: 2; stroke-linecap: square"/>
   </g>
   <g id="line2d_86">
    <path d="M 48.53 56.43056 
L 133.50151 56.431216 
L 163.214062 56.431601 
L 192.926614 56.432257 
L 222.639166 56.433375 
L 252.351718 56.435148 
L 282.06427 56.438155 
L 311.776822 56.443244 
L 341.489375 56.45211 
L 371.201927 56.468302 
L 400.914479 56.499683 
L 430.627031 56.584071 
L 460.339583 57.238092 
L 490.052135 61.406824 
L 519.764687 74.924024 
L 549.477239 101.63629 
L 579.189792 140.129835 
L 608.902344 185.464363 
L 638.614896 231.560779 
L 668.327448 272.954915 
L 698.04 306.360437 
" clip-path="url(#pea806dee9b)" style="fill: none; stroke-dasharray: 7.4,3.2; stroke-dashoffset: 0; stroke: #d62728; stroke-width: 2"/>
   </g>
   <g id="line2d_87">
    <path d="M 48.53 84.671227 
L 133.50151 68.501706 
L 163.214062 72.544066 
L 192.926614 72.544066 
L 222.639166 68.501706 
L 252.351718 72.544066 
L 282.06427 76.586466 
L 311.776822 88.713626 
L 341.489375 84.671227 
L 371.201927 72.544066 
L 400.914479 88.713626 
L 430.627031 76.586466 
L 460.339583 92.755987 
L 490.052135 92.755987 
L 519.764687 141.264627 
L 549.477239 189.773229 
L 579.189792 197.857989 
L 608.902344 209.985149 
L 638.614896 266.578511 
L 668.327448 331.256672 
L 698.04 290.832831 
" clip-path="url(#pea806dee9b)" style="fill: none; stroke: #9467bd; stroke-width: 2; stroke-linecap: square"/>
   </g>
   <g id="line2d_88">
    <path d="M 48.53 72.072277 
L 133.50151 72.087582 
L 163.214062 72.097104 
L 192.926614 72.112602 
L 222.639166 72.137737 
L 252.351718 72.178601 
L 282.06427 72.244986 
L 311.776822 72.352891 
L 341.489375 72.528415 
L 371.201927 72.814156 
L 400.914479 73.280124 
L 430.627031 74.059012 
L 460.339583 75.778934 
L 490.052135 81.36739 
L 519.764687 96.288393 
L 549.477239 123.62114 
L 579.189792 160.968906 
L 608.902344 202.872572 
L 638.614896 244.016858 
L 668.327448 280.571433 
L 698.04 310.417987 
" clip-path="url(#pea806dee9b)" style="fill: none; stroke-dasharray: 7.4,3.2; stroke-dashoffset: 0; stroke: #9467bd; stroke-width: 2"/>
   </g>
   <g id="line2d_89">
    <path d="M 48.53 129.137467 
L 133.50151 141.264627 
L 163.214062 141.264627 
L 192.926614 125.095068 
L 222.639166 133.179828 
L 252.351718 165.518909 
L 282.06427 141.264627 
L 311.776822 141.264627 
L 341.489375 153.391749 
L 371.201927 185.730829 
L 400.914479 161.476548 
L 430.627031 169.561308 
L 460.339583 197.857989 
L 490.052135 165.518909 
L 519.764687 222.112309 
L 549.477239 205.94275 
L 579.189792 218.06991 
L 608.902344 238.28183 
L 638.614896 274.663272 
L 668.327448 290.832831 
L 698.04 298.917592 
" clip-path="url(#pea806dee9b)" style="fill: none; stroke: #8c564b; stroke-width: 2; stroke-linecap: square"/>
   </g>
   <g id="line2d_90">
    <path d="M 48.53 153.424247 
L 133.50151 153.433307 
L 163.214062 153.438974 
L 192.926614 153.448149 
L 222.639166 153.46303 
L 252.351718 153.48724 
L 282.06427 153.526485 
L 311.776822 153.59021 
L 341.489375 153.693527 
L 371.201927 153.861071 
L 400.914479 154.132432 
L 430.627031 154.584098 
L 460.339583 155.640208 
L 490.052135 159.391314 
L 519.764687 169.771412 
L 549.477239 188.956406 
L 579.189792 215.136281 
L 608.902344 244.387913 
L 638.614896 273.135604 
L 668.327448 299.071334 
L 698.04 321.010309 
" clip-path="url(#pea806dee9b)" style="fill: none; stroke-dasharray: 7.4,3.2; stroke-dashoffset: 0; stroke: #8c564b; stroke-width: 2"/>
   </g>
   <g id="line2d_91">
    <path d="M 48.53 246.366591 
L 133.50151 246.366591 
L 163.214062 226.15467 
L 192.926614 250.40899 
L 222.639166 238.28183 
L 252.351718 230.19707 
L 282.06427 222.112309 
L 311.776822 250.40899 
L 341.489375 282.748071 
L 371.201927 222.112309 
L 400.914479 250.40899 
L 430.627031 278.705671 
L 460.339583 262.53615 
L 490.052135 262.53615 
L 519.764687 278.705671 
L 549.477239 294.875192 
L 579.189792 355.510954 
L 608.902344 323.171912 
L 638.614896 238.28183 
L 668.327448 335.299033 
L 698.04 343.383832 
" clip-path="url(#pea806dee9b)" style="fill: none; stroke: #e377c2; stroke-width: 2; stroke-linecap: square"/>
   </g>
   <g id="line2d_92">
    <path d="M 48.53 245.950624 
L 133.50151 245.952551 
L 163.214062 245.953746 
L 192.926614 245.955712 
L 222.639166 245.958912 
L 252.351718 245.964078 
L 282.06427 245.972482 
L 311.776822 245.986129 
L 341.489375 246.008258 
L 371.201927 246.044187 
L 400.914479 246.102477 
L 430.627031 246.204676 
L 460.339583 246.565052 
L 490.052135 248.372717 
L 519.764687 253.916878 
L 549.477239 264.481327 
L 579.189792 279.031737 
L 608.902344 295.321037 
L 638.614896 311.352043 
L 668.327448 325.92809 
L 698.04 338.539491 
" clip-path="url(#pea806dee9b)" style="fill: none; stroke-dasharray: 7.4,3.2; stroke-dashoffset: 0; stroke: #e377c2; stroke-width: 2"/>
   </g>
   <g id="line2d_93">
    <path d="M 48.53 56.374545 
L 133.50151 56.374545 
L 163.214062 56.374545 
L 192.926614 56.374545 
L 222.639166 56.374545 
L 252.351718 57.666816 
L 282.06427 65.581974 
L 311.776822 83.99683 
L 341.489375 110.165311 
L 371.201927 151.841039 
L 400.914479 186.086211 
L 430.627031 221.46212 
L 460.339583 248.922871 
L 490.052135 282.037307 
L 519.764687 304.652043 
L 549.477239 312.728734 
L 579.189792 330.982057 
L 608.902344 332.920463 
L 638.614896 364.096492 
L 668.327448 358.604342 
L 698.04 367.81177 
" clip-path="url(#pea806dee9b)" style="fill: none; stroke-dasharray: 1.5,2.475; stroke-dashoffset: 0; stroke: #1f77b4; stroke-width: 1.5"/>
   </g>
   <g id="line2d_94">
    <path d="M 48.53 181.886332 
L 133.50151 186.570813 
L 163.214062 189.801489 
L 192.926614 195.455173 
L 222.639166 192.062963 
L 252.351718 193.1937 
L 282.06427 201.108858 
L 311.776822 205.631805 
L 341.489375 207.731745 
L 371.201927 236.161699 
L 400.914479 261.684044 
L 430.627031 276.222089 
L 460.339583 305.78278 
L 490.052135 312.244133 
L 519.764687 323.551501 
L 549.477239 341.804824 
L 579.189792 345.0355 
L 608.902344 356.181335 
L 638.614896 349.558448 
L 668.327448 370.557846 
L 698.04 373.465455 
" clip-path="url(#pea806dee9b)" style="fill: none; stroke-dasharray: 1.5,2.475; stroke-dashoffset: 0; stroke: #8c564b; stroke-width: 1.5"/>
   </g>
   <g id="line2d_95">
    <path d="M 48.53 270.891472 
L 133.50151 277.998961 
L 163.214062 269.437668 
L 192.926614 271.699141 
L 222.639166 275.414419 
L 252.351718 274.929818 
L 282.06427 272.345277 
L 311.776822 275.091352 
L 341.489375 285.752585 
L 371.201927 293.667742 
L 400.914479 307.721186 
L 430.627031 332.112794 
L 460.339583 326.943711 
L 490.052135 339.866418 
L 519.764687 340.189485 
L 549.477239 348.912312 
L 579.189792 354.565996 
L 608.902344 365.388763 
L 638.614896 370.234778 
L 668.327448 371.203981 
L 698.04 367.650237 
" clip-path="url(#pea806dee9b)" style="fill: none; stroke-dasharray: 1.5,2.475; stroke-dashoffset: 0; stroke: #e377c2; stroke-width: 1.5"/>
   </g>
   <g id="line2d_96">
    <path d="M 415.770755 250.408983 
" clip-path="url(#pea806dee9b)" style="fill: none; stroke-dasharray: 5.55,2.4; stroke-dashoffset: 0; stroke: #000000; stroke-width: 1.5"/>
   </g>
   <g id="line2d_97">
    <path d="M 415.770755 250.408983 
" clip-path="url(#pea806dee9b)" style="fill: none; stroke-dasharray: 1.5,2.475; stroke-dashoffset: 0; stroke: #000000; stroke-width: 1.5"/>
   </g>
   <g id="line2d_98">
    <path d="M 48.53 379.765274 
L 698.04 379.765274 
" clip-path="url(#pea806dee9b)" style="fill: none; stroke-dasharray: 12.8,3.2,2,3.2; stroke-dashoffset: 0; stroke: #000000; stroke-width: 2"/>
   </g>
   <g id="patch_5">
    <path d="M 48.53 389.32 
L 48.53 40.52 
" style="fill: none; stroke: #000000; stroke-width: 0.8; stroke-linejoin: miter; stroke-linecap: square"/>
   </g>
   <g id="patch_6">
    <path d="M 698.04 389.32 
L 698.04 40.52 
" style="fill: none; stroke: #000000; stroke-width: 0.8; stroke-linejoin: miter; stroke-linecap: square"/>
   </g>
   <g id="patch_7">
    <path d="M 48.53 389.32 
L 698.04 389.32 
" style="fill: none; stroke: #000000; stroke-width: 0.8; stroke-linejoin: miter; stroke-linecap: square"/>
   </g>
   <g id="patch_8">
    <path d="M 48.53 40.52 
L 698.04 40.52 
" style="fill: none; stroke: #000000; stroke-width: 0.8; stroke-linejoin: miter; stroke-linecap: square"/>
   </g>
   <g id="text_26">
    <!-- Random Patterning -->
    <g transform="translate(205.557087 374.451679) scale(0.1 -0.1)">
     <defs>
      <path id="DejaVuSans-52" d="M 2841 2188 
Q 3044 2119 3236 1894 
Q 3428 1669 3622 1275 
L 4263 0 
L 3584 0 
L 2988 1197 
Q 2756 1666 2539 1819 
Q 2322 1972 1947 1972 
L 1259 1972 
L 1259 0 
L 628 0 
L 628 4666 
L 2053 4666 
Q 2853 4666 3247 4331 
Q 3641 3997 3641 3322 
Q 3641 2881 3436 2590 
Q 3231 2300 2841 2188 
z
M 1259 4147 
L 1259 2491 
L 2053 2491 
Q 2509 2491 2742 2702 
Q 2975 2913 2975 3322 
Q 2975 3731 2742 3939 
Q 2509 4147 2053 4147 
L 1259 4147 
z
" transform="scale(0.015625)"/>
      <path id="DejaVuSans-6d" d="M 3328 2828 
Q 3544 3216 3844 3400 
Q 4144 3584 4550 3584 
Q 5097 3584 5394 3201 
Q 5691 2819 5691 2113 
L 5691 0 
L 5113 0 
L 5113 2094 
Q 5113 2597 4934 2840 
Q 4756 3084 4391 3084 
Q 3944 3084 3684 2787 
Q 3425 2491 3425 1978 
L 3425 0 
L 2847 0 
L 2847 2094 
Q 2847 2600 2669 2842 
Q 2491 3084 2119 3084 
Q 1678 3084 1418 2786 
Q 1159 2488 1159 1978 
L 1159 0 
L 581 0 
L 581 3500 
L 1159 3500 
L 1159 2956 
Q 1356 3278 1631 3431 
Q 1906 3584 2284 3584 
Q 2666 3584 2933 3390 
Q 3200 3197 3328 2828 
z
" transform="scale(0.015625)"/>
     </defs>
     <use xlink:href="#DejaVuSans-52"/>
     <use xlink:href="#DejaVuSans-61" x="67.232422"/>
     <use xlink:href="#DejaVuSans-6e" x="128.511719"/>
     <use xlink:href="#DejaVuSans-64" x="191.890625"/>
     <use xlink:href="#DejaVuSans-6f" x="255.367188"/>
     <use xlink:href="#DejaVuSans-6d" x="316.548828"/>
     <use xlink:href="#DejaVuSans-20" x="413.960938"/>
     <use xlink:href="#DejaVuSans-50" x="445.748047"/>
     <use xlink:href="#DejaVuSans-61" x="501.550781"/>
     <use xlink:href="#DejaVuSans-74" x="562.830078"/>
     <use xlink:href="#DejaVuSans-74" x="602.039062"/>
     <use xlink:href="#DejaVuSans-65" x="641.248047"/>
     <use xlink:href="#DejaVuSans-72" x="702.771484"/>
     <use xlink:href="#DejaVuSans-6e" x="742.134766"/>
     <use xlink:href="#DejaVuSans-69" x="805.513672"/>
     <use xlink:href="#DejaVuSans-6e" x="833.296875"/>
     <use xlink:href="#DejaVuSans-67" x="896.675781"/>
    </g>
   </g>
   <g id="legend_1">
    <g id="patch_9">
     <path d="M 56.23 383.82 
L 187.731563 383.82 
Q 189.931563 383.82 189.931563 381.62 
L 189.931563 229.538125 
Q 189.931563 227.338125 187.731563 227.338125 
L 56.23 227.338125 
Q 54.03 227.338125 54.03 229.538125 
L 54.03 381.62 
Q 54.03 383.82 56.23 383.82 
z
" style="fill: #ffffff; opacity: 0.8; stroke: #cccccc; stroke-linejoin: miter"/>
    </g>
    <g id="line2d_99">
     <path d="M 58.43 236.248125 
L 69.43 236.248125 
L 80.43 236.248125 
" style="fill: none; stroke: #1f77b4; stroke-width: 2; stroke-linecap: square"/>
    </g>
    <g id="text_27">
     <!-- $(S/N)_{Morph} = inf$ -->
     <g transform="translate(89.23 240.098125) scale(0.11 -0.11)">
      <defs>
       <path id="DejaVuSans-Oblique-53" d="M 3859 4513 
L 3738 3897 
Q 3422 4066 3111 4152 
Q 2800 4238 2509 4238 
Q 1944 4238 1609 3991 
Q 1275 3744 1275 3334 
Q 1275 3109 1398 2989 
Q 1522 2869 2034 2731 
L 2413 2638 
Q 3053 2472 3303 2217 
Q 3553 1963 3553 1503 
Q 3553 797 2998 353 
Q 2444 -91 1538 -91 
Q 1166 -91 791 -17 
Q 416 56 38 206 
L 166 856 
Q 513 641 861 531 
Q 1209 422 1556 422 
Q 2147 422 2503 684 
Q 2859 947 2859 1369 
Q 2859 1650 2717 1795 
Q 2575 1941 2106 2059 
L 1728 2156 
Q 1081 2325 845 2545 
Q 609 2766 609 3163 
Q 609 3859 1145 4304 
Q 1681 4750 2541 4750 
Q 2875 4750 3203 4690 
Q 3531 4631 3859 4513 
z
" transform="scale(0.015625)"/>
       <path id="DejaVuSans-Oblique-4e" d="M 1081 4666 
L 1931 4666 
L 3219 666 
L 4000 4666 
L 4616 4666 
L 3706 0 
L 2853 0 
L 1569 4025 
L 788 0 
L 172 0 
L 1081 4666 
z
" transform="scale(0.015625)"/>
       <path id="DejaVuSans-Oblique-4d" d="M 1081 4666 
L 2028 4666 
L 2572 1522 
L 4378 4666 
L 5350 4666 
L 4441 0 
L 3828 0 
L 4622 4091 
L 2791 897 
L 2175 897 
L 1581 4103 
L 788 0 
L 172 0 
L 1081 4666 
z
" transform="scale(0.015625)"/>
       <path id="DejaVuSans-Oblique-6f" d="M 1625 -91 
Q 1009 -91 651 289 
Q 294 669 294 1325 
Q 294 1706 417 2101 
Q 541 2497 738 2766 
Q 1047 3184 1428 3384 
Q 1809 3584 2291 3584 
Q 2888 3584 3255 3212 
Q 3622 2841 3622 2241 
Q 3622 1825 3500 1412 
Q 3378 1000 3181 728 
Q 2875 309 2494 109 
Q 2113 -91 1625 -91 
z
M 891 1344 
Q 891 869 1089 633 
Q 1288 397 1691 397 
Q 2269 397 2648 901 
Q 3028 1406 3028 2181 
Q 3028 2634 2825 2865 
Q 2622 3097 2228 3097 
Q 1903 3097 1650 2945 
Q 1397 2794 1197 2484 
Q 1050 2253 970 1956 
Q 891 1659 891 1344 
z
" transform="scale(0.015625)"/>
       <path id="DejaVuSans-Oblique-72" d="M 2853 2969 
Q 2766 3016 2653 3041 
Q 2541 3066 2413 3066 
Q 1953 3066 1609 2717 
Q 1266 2369 1153 1784 
L 800 0 
L 225 0 
L 909 3500 
L 1484 3500 
L 1375 2956 
Q 1603 3259 1920 3421 
Q 2238 3584 2597 3584 
Q 2691 3584 2781 3573 
Q 2872 3563 2963 3538 
L 2853 2969 
z
" transform="scale(0.015625)"/>
       <path id="DejaVuSans-Oblique-70" d="M 3175 2156 
Q 3175 2616 2975 2859 
Q 2775 3103 2400 3103 
Q 2144 3103 1911 2972 
Q 1678 2841 1497 2591 
Q 1319 2344 1212 1994 
Q 1106 1644 1106 1300 
Q 1106 863 1306 627 
Q 1506 391 1875 391 
Q 2147 391 2380 519 
Q 2613 647 2778 891 
Q 2956 1147 3065 1494 
Q 3175 1841 3175 2156 
z
M 1394 2969 
Q 1625 3272 1939 3428 
Q 2253 3584 2638 3584 
Q 3175 3584 3472 3232 
Q 3769 2881 3769 2247 
Q 3769 1728 3584 1258 
Q 3400 788 3053 416 
Q 2822 169 2531 39 
Q 2241 -91 1919 -91 
Q 1547 -91 1294 64 
Q 1041 219 916 525 
L 556 -1331 
L -19 -1331 
L 922 3500 
L 1497 3500 
L 1394 2969 
z
" transform="scale(0.015625)"/>
       <path id="DejaVuSans-Oblique-68" d="M 3566 2113 
L 3156 0 
L 2578 0 
L 2988 2091 
Q 3016 2238 3031 2350 
Q 3047 2463 3047 2528 
Q 3047 2791 2881 2937 
Q 2716 3084 2419 3084 
Q 1956 3084 1617 2771 
Q 1278 2459 1178 1941 
L 800 0 
L 225 0 
L 1172 4863 
L 1747 4863 
L 1375 2950 
Q 1594 3244 1934 3414 
Q 2275 3584 2650 3584 
Q 3113 3584 3367 3334 
Q 3622 3084 3622 2631 
Q 3622 2519 3608 2391 
Q 3594 2263 3566 2113 
z
" transform="scale(0.015625)"/>
       <path id="DejaVuSans-3d" d="M 678 2906 
L 4684 2906 
L 4684 2381 
L 678 2381 
L 678 2906 
z
M 678 1631 
L 4684 1631 
L 4684 1100 
L 678 1100 
L 678 1631 
z
" transform="scale(0.015625)"/>
       <path id="DejaVuSans-Oblique-69" d="M 1172 4863 
L 1747 4863 
L 1606 4134 
L 1031 4134 
L 1172 4863 
z
M 909 3500 
L 1484 3500 
L 800 0 
L 225 0 
L 909 3500 
z
" transform="scale(0.015625)"/>
       <path id="DejaVuSans-Oblique-6e" d="M 3566 2113 
L 3156 0 
L 2578 0 
L 2988 2091 
Q 3016 2238 3031 2350 
Q 3047 2463 3047 2528 
Q 3047 2791 2881 2937 
Q 2716 3084 2419 3084 
Q 1956 3084 1622 2776 
Q 1288 2469 1184 1941 
L 800 0 
L 225 0 
L 903 3500 
L 1478 3500 
L 1363 2950 
Q 1603 3253 1940 3418 
Q 2278 3584 2650 3584 
Q 3113 3584 3367 3334 
Q 3622 3084 3622 2631 
Q 3622 2519 3608 2391 
Q 3594 2263 3566 2113 
z
" transform="scale(0.015625)"/>
       <path id="DejaVuSans-Oblique-66" d="M 3059 4863 
L 2969 4384 
L 2419 4384 
Q 2106 4384 1964 4261 
Q 1822 4138 1753 3809 
L 1691 3500 
L 2638 3500 
L 2553 3053 
L 1606 3053 
L 1013 0 
L 434 0 
L 1031 3053 
L 481 3053 
L 563 3500 
L 1113 3500 
L 1159 3744 
Q 1278 4363 1576 4613 
Q 1875 4863 2516 4863 
L 3059 4863 
z
" transform="scale(0.015625)"/>
      </defs>
      <use xlink:href="#DejaVuSans-28" transform="translate(0 0.015625)"/>
      <use xlink:href="#DejaVuSans-Oblique-53" transform="translate(39.013672 0.015625)"/>
      <use xlink:href="#DejaVuSans-2f" transform="translate(102.490234 0.015625)"/>
      <use xlink:href="#DejaVuSans-Oblique-4e" transform="translate(136.181641 0.015625)"/>
      <use xlink:href="#DejaVuSans-29" transform="translate(210.986328 0.015625)"/>
      <use xlink:href="#DejaVuSans-Oblique-4d" transform="translate(250.957031 -16.390625) scale(0.7)"/>
      <use xlink:href="#DejaVuSans-Oblique-6f" transform="translate(311.352539 -16.390625) scale(0.7)"/>
      <use xlink:href="#DejaVuSans-Oblique-72" transform="translate(354.179688 -16.390625) scale(0.7)"/>
      <use xlink:href="#DejaVuSans-Oblique-70" transform="translate(382.958984 -16.390625) scale(0.7)"/>
      <use xlink:href="#DejaVuSans-Oblique-68" transform="translate(427.392578 -16.390625) scale(0.7)"/>
      <use xlink:href="#DejaVuSans-3d" transform="translate(493.974609 0.015625)"/>
      <use xlink:href="#DejaVuSans-Oblique-69" transform="translate(597.246094 0.015625)"/>
      <use xlink:href="#DejaVuSans-Oblique-6e" transform="translate(625.029297 0.015625)"/>
      <use xlink:href="#DejaVuSans-Oblique-66" transform="translate(688.408203 0.015625)"/>
     </g>
    </g>
    <g id="line2d_100">
     <path d="M 58.43 253.518125 
L 69.43 253.518125 
L 80.43 253.518125 
" style="fill: none; stroke: #ff7f0e; stroke-width: 2; stroke-linecap: square"/>
    </g>
    <g id="text_28">
     <!-- $(S/N)_{Morph} = 5.00$ -->
     <g transform="translate(89.23 257.368125) scale(0.11 -0.11)">
      <use xlink:href="#DejaVuSans-28" transform="translate(0 0.125)"/>
      <use xlink:href="#DejaVuSans-Oblique-53" transform="translate(39.013672 0.125)"/>
      <use xlink:href="#DejaVuSans-2f" transform="translate(102.490234 0.125)"/>
      <use xlink:href="#DejaVuSans-Oblique-4e" transform="translate(136.181641 0.125)"/>
      <use xlink:href="#DejaVuSans-29" transform="translate(210.986328 0.125)"/>
      <use xlink:href="#DejaVuSans-Oblique-4d" transform="translate(250.957031 -16.28125) scale(0.7)"/>
      <use xlink:href="#DejaVuSans-Oblique-6f" transform="translate(311.352539 -16.28125) scale(0.7)"/>
      <use xlink:href="#DejaVuSans-Oblique-72" transform="translate(354.179688 -16.28125) scale(0.7)"/>
      <use xlink:href="#DejaVuSans-Oblique-70" transform="translate(382.958984 -16.28125) scale(0.7)"/>
      <use xlink:href="#DejaVuSans-Oblique-68" transform="translate(427.392578 -16.28125) scale(0.7)"/>
      <use xlink:href="#DejaVuSans-3d" transform="translate(493.974609 0.125)"/>
      <use xlink:href="#DejaVuSans-35" transform="translate(597.246094 0.125)"/>
      <use xlink:href="#DejaVuSans-2e" transform="translate(660.869141 0.125)"/>
      <use xlink:href="#DejaVuSans-30" transform="translate(692.65625 0.125)"/>
      <use xlink:href="#DejaVuSans-30" transform="translate(756.279297 0.125)"/>
     </g>
    </g>
    <g id="line2d_101">
     <path d="M 58.43 270.788125 
L 69.43 270.788125 
L 80.43 270.788125 
" style="fill: none; stroke: #2ca02c; stroke-width: 2; stroke-linecap: square"/>
    </g>
    <g id="text_29">
     <!-- $(S/N)_{Morph} = 2.63$ -->
     <g transform="translate(89.23 274.638125) scale(0.11 -0.11)">
      <use xlink:href="#DejaVuSans-28" transform="translate(0 0.125)"/>
      <use xlink:href="#DejaVuSans-Oblique-53" transform="translate(39.013672 0.125)"/>
      <use xlink:href="#DejaVuSans-2f" transform="translate(102.490234 0.125)"/>
      <use xlink:href="#DejaVuSans-Oblique-4e" transform="translate(136.181641 0.125)"/>
      <use xlink:href="#DejaVuSans-29" transform="translate(210.986328 0.125)"/>
      <use xlink:href="#DejaVuSans-Oblique-4d" transform="translate(250.957031 -16.28125) scale(0.7)"/>
      <use xlink:href="#DejaVuSans-Oblique-6f" transform="translate(311.352539 -16.28125) scale(0.7)"/>
      <use xlink:href="#DejaVuSans-Oblique-72" transform="translate(354.179688 -16.28125) scale(0.7)"/>
      <use xlink:href="#DejaVuSans-Oblique-70" transform="translate(382.958984 -16.28125) scale(0.7)"/>
      <use xlink:href="#DejaVuSans-Oblique-68" transform="translate(427.392578 -16.28125) scale(0.7)"/>
      <use xlink:href="#DejaVuSans-3d" transform="translate(493.974609 0.125)"/>
      <use xlink:href="#DejaVuSans-32" transform="translate(597.246094 0.125)"/>
      <use xlink:href="#DejaVuSans-2e" transform="translate(660.869141 0.125)"/>
      <use xlink:href="#DejaVuSans-36" transform="translate(692.65625 0.125)"/>
      <use xlink:href="#DejaVuSans-33" transform="translate(756.279297 0.125)"/>
     </g>
    </g>
    <g id="line2d_102">
     <path d="M 58.43 288.058125 
L 69.43 288.058125 
L 80.43 288.058125 
" style="fill: none; stroke: #d62728; stroke-width: 2; stroke-linecap: square"/>
    </g>
    <g id="text_30">
     <!-- $(S/N)_{Morph} = 1.38$ -->
     <g transform="translate(89.23 291.908125) scale(0.11 -0.11)">
      <use xlink:href="#DejaVuSans-28" transform="translate(0 0.125)"/>
      <use xlink:href="#DejaVuSans-Oblique-53" transform="translate(39.013672 0.125)"/>
      <use xlink:href="#DejaVuSans-2f" transform="translate(102.490234 0.125)"/>
      <use xlink:href="#DejaVuSans-Oblique-4e" transform="translate(136.181641 0.125)"/>
      <use xlink:href="#DejaVuSans-29" transform="translate(210.986328 0.125)"/>
      <use xlink:href="#DejaVuSans-Oblique-4d" transform="translate(250.957031 -16.28125) scale(0.7)"/>
      <use xlink:href="#DejaVuSans-Oblique-6f" transform="translate(311.352539 -16.28125) scale(0.7)"/>
      <use xlink:href="#DejaVuSans-Oblique-72" transform="translate(354.179688 -16.28125) scale(0.7)"/>
      <use xlink:href="#DejaVuSans-Oblique-70" transform="translate(382.958984 -16.28125) scale(0.7)"/>
      <use xlink:href="#DejaVuSans-Oblique-68" transform="translate(427.392578 -16.28125) scale(0.7)"/>
      <use xlink:href="#DejaVuSans-3d" transform="translate(493.974609 0.125)"/>
      <use xlink:href="#DejaVuSans-31" transform="translate(597.246094 0.125)"/>
      <use xlink:href="#DejaVuSans-2e" transform="translate(660.869141 0.125)"/>
      <use xlink:href="#DejaVuSans-33" transform="translate(692.65625 0.125)"/>
      <use xlink:href="#DejaVuSans-38" transform="translate(756.279297 0.125)"/>
     </g>
    </g>
    <g id="line2d_103">
     <path d="M 58.43 305.328125 
L 69.43 305.328125 
L 80.43 305.328125 
" style="fill: none; stroke: #9467bd; stroke-width: 2; stroke-linecap: square"/>
    </g>
    <g id="text_31">
     <!-- $(S/N)_{Morph} = 0.72$ -->
     <g transform="translate(89.23 309.178125) scale(0.11 -0.11)">
      <use xlink:href="#DejaVuSans-28" transform="translate(0 0.125)"/>
      <use xlink:href="#DejaVuSans-Oblique-53" transform="translate(39.013672 0.125)"/>
      <use xlink:href="#DejaVuSans-2f" transform="translate(102.490234 0.125)"/>
      <use xlink:href="#DejaVuSans-Oblique-4e" transform="translate(136.181641 0.125)"/>
      <use xlink:href="#DejaVuSans-29" transform="translate(210.986328 0.125)"/>
      <use xlink:href="#DejaVuSans-Oblique-4d" transform="translate(250.957031 -16.28125) scale(0.7)"/>
      <use xlink:href="#DejaVuSans-Oblique-6f" transform="translate(311.352539 -16.28125) scale(0.7)"/>
      <use xlink:href="#DejaVuSans-Oblique-72" transform="translate(354.179688 -16.28125) scale(0.7)"/>
      <use xlink:href="#DejaVuSans-Oblique-70" transform="translate(382.958984 -16.28125) scale(0.7)"/>
      <use xlink:href="#DejaVuSans-Oblique-68" transform="translate(427.392578 -16.28125) scale(0.7)"/>
      <use xlink:href="#DejaVuSans-3d" transform="translate(493.974609 0.125)"/>
      <use xlink:href="#DejaVuSans-30" transform="translate(597.246094 0.125)"/>
      <use xlink:href="#DejaVuSans-2e" transform="translate(660.869141 0.125)"/>
      <use xlink:href="#DejaVuSans-37" transform="translate(684.90625 0.125)"/>
      <use xlink:href="#DejaVuSans-32" transform="translate(748.529297 0.125)"/>
     </g>
    </g>
    <g id="line2d_104">
     <path d="M 58.43 322.598125 
L 69.43 322.598125 
L 80.43 322.598125 
" style="fill: none; stroke: #8c564b; stroke-width: 2; stroke-linecap: square"/>
    </g>
    <g id="text_32">
     <!-- $(S/N)_{Morph} = 0.38$ -->
     <g transform="translate(89.23 326.448125) scale(0.11 -0.11)">
      <use xlink:href="#DejaVuSans-28" transform="translate(0 0.125)"/>
      <use xlink:href="#DejaVuSans-Oblique-53" transform="translate(39.013672 0.125)"/>
      <use xlink:href="#DejaVuSans-2f" transform="translate(102.490234 0.125)"/>
      <use xlink:href="#DejaVuSans-Oblique-4e" transform="translate(136.181641 0.125)"/>
      <use xlink:href="#DejaVuSans-29" transform="translate(210.986328 0.125)"/>
      <use xlink:href="#DejaVuSans-Oblique-4d" transform="translate(250.957031 -16.28125) scale(0.7)"/>
      <use xlink:href="#DejaVuSans-Oblique-6f" transform="translate(311.352539 -16.28125) scale(0.7)"/>
      <use xlink:href="#DejaVuSans-Oblique-72" transform="translate(354.179688 -16.28125) scale(0.7)"/>
      <use xlink:href="#DejaVuSans-Oblique-70" transform="translate(382.958984 -16.28125) scale(0.7)"/>
      <use xlink:href="#DejaVuSans-Oblique-68" transform="translate(427.392578 -16.28125) scale(0.7)"/>
      <use xlink:href="#DejaVuSans-3d" transform="translate(493.974609 0.125)"/>
      <use xlink:href="#DejaVuSans-30" transform="translate(597.246094 0.125)"/>
      <use xlink:href="#DejaVuSans-2e" transform="translate(660.869141 0.125)"/>
      <use xlink:href="#DejaVuSans-33" transform="translate(692.65625 0.125)"/>
      <use xlink:href="#DejaVuSans-38" transform="translate(756.279297 0.125)"/>
     </g>
    </g>
    <g id="line2d_105">
     <path d="M 58.43 339.868125 
L 69.43 339.868125 
L 80.43 339.868125 
" style="fill: none; stroke: #e377c2; stroke-width: 2; stroke-linecap: square"/>
    </g>
    <g id="text_33">
     <!-- $(S/N)_{Morph} = 0.20$ -->
     <g transform="translate(89.23 343.718125) scale(0.11 -0.11)">
      <use xlink:href="#DejaVuSans-28" transform="translate(0 0.125)"/>
      <use xlink:href="#DejaVuSans-Oblique-53" transform="translate(39.013672 0.125)"/>
      <use xlink:href="#DejaVuSans-2f" transform="translate(102.490234 0.125)"/>
      <use xlink:href="#DejaVuSans-Oblique-4e" transform="translate(136.181641 0.125)"/>
      <use xlink:href="#DejaVuSans-29" transform="translate(210.986328 0.125)"/>
      <use xlink:href="#DejaVuSans-Oblique-4d" transform="translate(250.957031 -16.28125) scale(0.7)"/>
      <use xlink:href="#DejaVuSans-Oblique-6f" transform="translate(311.352539 -16.28125) scale(0.7)"/>
      <use xlink:href="#DejaVuSans-Oblique-72" transform="translate(354.179688 -16.28125) scale(0.7)"/>
      <use xlink:href="#DejaVuSans-Oblique-70" transform="translate(382.958984 -16.28125) scale(0.7)"/>
      <use xlink:href="#DejaVuSans-Oblique-68" transform="translate(427.392578 -16.28125) scale(0.7)"/>
      <use xlink:href="#DejaVuSans-3d" transform="translate(493.974609 0.125)"/>
      <use xlink:href="#DejaVuSans-30" transform="translate(597.246094 0.125)"/>
      <use xlink:href="#DejaVuSans-2e" transform="translate(660.869141 0.125)"/>
      <use xlink:href="#DejaVuSans-32" transform="translate(687.15625 0.125)"/>
      <use xlink:href="#DejaVuSans-30" transform="translate(750.779297 0.125)"/>
     </g>
    </g>
    <g id="line2d_106">
     <path d="M 58.43 357.136406 
L 69.43 357.136406 
L 80.43 357.136406 
" style="fill: none; stroke-dasharray: 5.55,2.4; stroke-dashoffset: 0; stroke: #000000; stroke-width: 1.5"/>
    </g>
    <g id="text_34">
     <!-- Analytic Estimate -->
     <g transform="translate(89.23 360.986406) scale(0.11 -0.11)">
      <defs>
       <path id="DejaVuSans-41" d="M 2188 4044 
L 1331 1722 
L 3047 1722 
L 2188 4044 
z
M 1831 4666 
L 2547 4666 
L 4325 0 
L 3669 0 
L 3244 1197 
L 1141 1197 
L 716 0 
L 50 0 
L 1831 4666 
z
" transform="scale(0.015625)"/>
      </defs>
      <use xlink:href="#DejaVuSans-41"/>
      <use xlink:href="#DejaVuSans-6e" x="68.408203"/>
      <use xlink:href="#DejaVuSans-61" x="131.787109"/>
      <use xlink:href="#DejaVuSans-6c" x="193.066406"/>
      <use xlink:href="#DejaVuSans-79" x="220.849609"/>
      <use xlink:href="#DejaVuSans-74" x="280.029297"/>
      <use xlink:href="#DejaVuSans-69" x="319.238281"/>
      <use xlink:href="#DejaVuSans-63" x="347.021484"/>
      <use xlink:href="#DejaVuSans-20" x="402.001953"/>
      <use xlink:href="#DejaVuSans-45" x="433.789062"/>
      <use xlink:href="#DejaVuSans-73" x="496.972656"/>
      <use xlink:href="#DejaVuSans-74" x="549.072266"/>
      <use xlink:href="#DejaVuSans-69" x="588.28125"/>
      <use xlink:href="#DejaVuSans-6d" x="616.064453"/>
      <use xlink:href="#DejaVuSans-61" x="713.476562"/>
      <use xlink:href="#DejaVuSans-74" x="774.755859"/>
      <use xlink:href="#DejaVuSans-65" x="813.964844"/>
     </g>
    </g>
    <g id="line2d_107">
     <path d="M 58.43 373.282344 
L 69.43 373.282344 
L 80.43 373.282344 
" style="fill: none; stroke-dasharray: 1.5,2.475; stroke-dashoffset: 0; stroke: #000000; stroke-width: 1.5"/>
    </g>
    <g id="text_35">
     <!-- Feed Forward -->
     <g transform="translate(89.23 377.132344) scale(0.11 -0.11)">
      <defs>
       <path id="DejaVuSans-77" d="M 269 3500 
L 844 3500 
L 1563 769 
L 2278 3500 
L 2956 3500 
L 3675 769 
L 4391 3500 
L 4966 3500 
L 4050 0 
L 3372 0 
L 2619 2869 
L 1863 0 
L 1184 0 
L 269 3500 
z
" transform="scale(0.015625)"/>
      </defs>
      <use xlink:href="#DejaVuSans-46"/>
      <use xlink:href="#DejaVuSans-65" x="52.019531"/>
      <use xlink:href="#DejaVuSans-65" x="113.542969"/>
      <use xlink:href="#DejaVuSans-64" x="175.066406"/>
      <use xlink:href="#DejaVuSans-20" x="238.542969"/>
      <use xlink:href="#DejaVuSans-46" x="270.330078"/>
      <use xlink:href="#DejaVuSans-6f" x="324.224609"/>
      <use xlink:href="#DejaVuSans-72" x="385.40625"/>
      <use xlink:href="#DejaVuSans-77" x="426.519531"/>
      <use xlink:href="#DejaVuSans-61" x="508.306641"/>
      <use xlink:href="#DejaVuSans-72" x="569.585938"/>
      <use xlink:href="#DejaVuSans-64" x="608.949219"/>
     </g>
    </g>
   </g>
  </g>
 </g>
 <defs>
  <clipPath id="pea806dee9b">
   <rect x="48.53" y="40.52" width="649.51" height="348.8"/>
  </clipPath>
 </defs>
</svg>
