<?xml version="1.0" encoding="utf-8"?>
<svg xmlns="http://www.w3.org/2000/svg" xmlns:xlink="http://www.w3.org/1999/xlink" width="600" height="400" viewBox="0 0 2400 1600">
<defs>
  <clipPath id="clip670">
    <rect x="0" y="0" width="2400" height="1600"/>
  </clipPath>
</defs>
<path clip-path="url(#clip670)" d="M0 1600 L2400 1600 L2400 0 L0 0  Z" fill="#ffffff" fill-rule="evenodd" fill-opacity="1"/>
<defs>
  <clipPath id="clip671">
    <rect x="480" y="0" width="1681" height="1600"/>
  </clipPath>
</defs>
<path clip-path="url(#clip670)" d="M222.69 1410.9 L2352.76 1410.9 L2352.76 123.472 L222.69 123.472  Z" fill="#ffffff" fill-rule="evenodd" fill-opacity="1"/>
<defs>
  <clipPath id="clip672">
    <rect x="222" y="123" width="2131" height="1288"/>
  </clipPath>
</defs>
<polyline clip-path="url(#clip672)" style="stroke:#000000; stroke-linecap:round; stroke-linejoin:round; stroke-width:2; stroke-opacity:0.1; fill:none" points="282.975,1410.9 282.975,123.472 "/>
<polyline clip-path="url(#clip672)" style="stroke:#000000; stroke-linecap:round; stroke-linejoin:round; stroke-width:2; stroke-opacity:0.1; fill:none" points="952.807,1410.9 952.807,123.472 "/>
<polyline clip-path="url(#clip672)" style="stroke:#000000; stroke-linecap:round; stroke-linejoin:round; stroke-width:2; stroke-opacity:0.1; fill:none" points="1622.64,1410.9 1622.64,123.472 "/>
<polyline clip-path="url(#clip672)" style="stroke:#000000; stroke-linecap:round; stroke-linejoin:round; stroke-width:2; stroke-opacity:0.1; fill:none" points="2292.47,1410.9 2292.47,123.472 "/>
<polyline clip-path="url(#clip670)" style="stroke:#000000; stroke-linecap:round; stroke-linejoin:round; stroke-width:4; stroke-opacity:1; fill:none" points="222.69,1410.9 2352.76,1410.9 "/>
<polyline clip-path="url(#clip670)" style="stroke:#000000; stroke-linecap:round; stroke-linejoin:round; stroke-width:4; stroke-opacity:1; fill:none" points="282.975,1410.9 282.975,1392 "/>
<polyline clip-path="url(#clip670)" style="stroke:#000000; stroke-linecap:round; stroke-linejoin:round; stroke-width:4; stroke-opacity:1; fill:none" points="952.807,1410.9 952.807,1392 "/>
<polyline clip-path="url(#clip670)" style="stroke:#000000; stroke-linecap:round; stroke-linejoin:round; stroke-width:4; stroke-opacity:1; fill:none" points="1622.64,1410.9 1622.64,1392 "/>
<polyline clip-path="url(#clip670)" style="stroke:#000000; stroke-linecap:round; stroke-linejoin:round; stroke-width:4; stroke-opacity:1; fill:none" points="2292.47,1410.9 2292.47,1392 "/>
<polyline clip-path="url(#clip670)" style="stroke:#000000; stroke-linecap:round; stroke-linejoin:round; stroke-width:4; stroke-opacity:1; fill:none" points="252.325,1410.9 252.325,1401.45 "/>
<polyline clip-path="url(#clip670)" style="stroke:#000000; stroke-linecap:round; stroke-linejoin:round; stroke-width:4; stroke-opacity:1; fill:none" points="484.615,1410.9 484.615,1401.45 "/>
<polyline clip-path="url(#clip670)" style="stroke:#000000; stroke-linecap:round; stroke-linejoin:round; stroke-width:4; stroke-opacity:1; fill:none" points="602.566,1410.9 602.566,1401.45 "/>
<polyline clip-path="url(#clip670)" style="stroke:#000000; stroke-linecap:round; stroke-linejoin:round; stroke-width:4; stroke-opacity:1; fill:none" points="686.254,1410.9 686.254,1401.45 "/>
<polyline clip-path="url(#clip670)" style="stroke:#000000; stroke-linecap:round; stroke-linejoin:round; stroke-width:4; stroke-opacity:1; fill:none" points="751.168,1410.9 751.168,1401.45 "/>
<polyline clip-path="url(#clip670)" style="stroke:#000000; stroke-linecap:round; stroke-linejoin:round; stroke-width:4; stroke-opacity:1; fill:none" points="804.206,1410.9 804.206,1401.45 "/>
<polyline clip-path="url(#clip670)" style="stroke:#000000; stroke-linecap:round; stroke-linejoin:round; stroke-width:4; stroke-opacity:1; fill:none" points="849.049,1410.9 849.049,1401.45 "/>
<polyline clip-path="url(#clip670)" style="stroke:#000000; stroke-linecap:round; stroke-linejoin:round; stroke-width:4; stroke-opacity:1; fill:none" points="887.894,1410.9 887.894,1401.45 "/>
<polyline clip-path="url(#clip670)" style="stroke:#000000; stroke-linecap:round; stroke-linejoin:round; stroke-width:4; stroke-opacity:1; fill:none" points="922.157,1410.9 922.157,1401.45 "/>
<polyline clip-path="url(#clip670)" style="stroke:#000000; stroke-linecap:round; stroke-linejoin:round; stroke-width:4; stroke-opacity:1; fill:none" points="1154.45,1410.9 1154.45,1401.45 "/>
<polyline clip-path="url(#clip670)" style="stroke:#000000; stroke-linecap:round; stroke-linejoin:round; stroke-width:4; stroke-opacity:1; fill:none" points="1272.4,1410.9 1272.4,1401.45 "/>
<polyline clip-path="url(#clip670)" style="stroke:#000000; stroke-linecap:round; stroke-linejoin:round; stroke-width:4; stroke-opacity:1; fill:none" points="1356.09,1410.9 1356.09,1401.45 "/>
<polyline clip-path="url(#clip670)" style="stroke:#000000; stroke-linecap:round; stroke-linejoin:round; stroke-width:4; stroke-opacity:1; fill:none" points="1421,1410.9 1421,1401.45 "/>
<polyline clip-path="url(#clip670)" style="stroke:#000000; stroke-linecap:round; stroke-linejoin:round; stroke-width:4; stroke-opacity:1; fill:none" points="1474.04,1410.9 1474.04,1401.45 "/>
<polyline clip-path="url(#clip670)" style="stroke:#000000; stroke-linecap:round; stroke-linejoin:round; stroke-width:4; stroke-opacity:1; fill:none" points="1518.88,1410.9 1518.88,1401.45 "/>
<polyline clip-path="url(#clip670)" style="stroke:#000000; stroke-linecap:round; stroke-linejoin:round; stroke-width:4; stroke-opacity:1; fill:none" points="1557.73,1410.9 1557.73,1401.45 "/>
<polyline clip-path="url(#clip670)" style="stroke:#000000; stroke-linecap:round; stroke-linejoin:round; stroke-width:4; stroke-opacity:1; fill:none" points="1591.99,1410.9 1591.99,1401.45 "/>
<polyline clip-path="url(#clip670)" style="stroke:#000000; stroke-linecap:round; stroke-linejoin:round; stroke-width:4; stroke-opacity:1; fill:none" points="1824.28,1410.9 1824.28,1401.45 "/>
<polyline clip-path="url(#clip670)" style="stroke:#000000; stroke-linecap:round; stroke-linejoin:round; stroke-width:4; stroke-opacity:1; fill:none" points="1942.23,1410.9 1942.23,1401.45 "/>
<polyline clip-path="url(#clip670)" style="stroke:#000000; stroke-linecap:round; stroke-linejoin:round; stroke-width:4; stroke-opacity:1; fill:none" points="2025.92,1410.9 2025.92,1401.45 "/>
<polyline clip-path="url(#clip670)" style="stroke:#000000; stroke-linecap:round; stroke-linejoin:round; stroke-width:4; stroke-opacity:1; fill:none" points="2090.83,1410.9 2090.83,1401.45 "/>
<polyline clip-path="url(#clip670)" style="stroke:#000000; stroke-linecap:round; stroke-linejoin:round; stroke-width:4; stroke-opacity:1; fill:none" points="2143.87,1410.9 2143.87,1401.45 "/>
<polyline clip-path="url(#clip670)" style="stroke:#000000; stroke-linecap:round; stroke-linejoin:round; stroke-width:4; stroke-opacity:1; fill:none" points="2188.71,1410.9 2188.71,1401.45 "/>
<polyline clip-path="url(#clip670)" style="stroke:#000000; stroke-linecap:round; stroke-linejoin:round; stroke-width:4; stroke-opacity:1; fill:none" points="2227.56,1410.9 2227.56,1401.45 "/>
<polyline clip-path="url(#clip670)" style="stroke:#000000; stroke-linecap:round; stroke-linejoin:round; stroke-width:4; stroke-opacity:1; fill:none" points="2261.82,1410.9 2261.82,1401.45 "/>
<path clip-path="url(#clip670)" d="M232.855 1485.02 L240.494 1485.02 L240.494 1458.66 L232.184 1460.32 L232.184 1456.06 L240.448 1454.4 L245.124 1454.4 L245.124 1485.02 L252.763 1485.02 L252.763 1488.96 L232.855 1488.96 L232.855 1485.02 Z" fill="#000000" fill-rule="nonzero" fill-opacity="1" /><path clip-path="url(#clip670)" d="M272.207 1457.48 Q268.596 1457.48 266.767 1461.04 Q264.962 1464.58 264.962 1471.71 Q264.962 1478.82 266.767 1482.38 Q268.596 1485.92 272.207 1485.92 Q275.841 1485.92 277.647 1482.38 Q279.476 1478.82 279.476 1471.71 Q279.476 1464.58 277.647 1461.04 Q275.841 1457.48 272.207 1457.48 M272.207 1453.77 Q278.017 1453.77 281.073 1458.38 Q284.151 1462.96 284.151 1471.71 Q284.151 1480.44 281.073 1485.04 Q278.017 1489.63 272.207 1489.63 Q266.397 1489.63 263.318 1485.04 Q260.263 1480.44 260.263 1471.71 Q260.263 1462.96 263.318 1458.38 Q266.397 1453.77 272.207 1453.77 Z" fill="#000000" fill-rule="nonzero" fill-opacity="1" /><path clip-path="url(#clip670)" d="M284.151 1447.87 L308.263 1447.87 L308.263 1451.07 L284.151 1451.07 L284.151 1447.87 Z" fill="#000000" fill-rule="nonzero" fill-opacity="1" /><path clip-path="url(#clip670)" d="M327.974 1446.41 Q330.701 1446.99 332.224 1448.83 Q333.766 1450.68 333.766 1453.38 Q333.766 1457.54 330.908 1459.82 Q328.049 1462.09 322.783 1462.09 Q321.015 1462.09 319.134 1461.73 Q317.272 1461.4 315.278 1460.7 L315.278 1457.03 Q316.858 1457.95 318.739 1458.42 Q320.62 1458.89 322.67 1458.89 Q326.243 1458.89 328.105 1457.48 Q329.986 1456.07 329.986 1453.38 Q329.986 1450.9 328.237 1449.51 Q326.507 1448.1 323.403 1448.1 L320.131 1448.1 L320.131 1444.98 L323.554 1444.98 Q326.356 1444.98 327.842 1443.87 Q329.328 1442.74 329.328 1440.63 Q329.328 1438.47 327.785 1437.32 Q326.262 1436.16 323.403 1436.16 Q321.842 1436.16 320.055 1436.49 Q318.269 1436.83 316.125 1437.55 L316.125 1434.16 Q318.288 1433.56 320.168 1433.26 Q322.068 1432.96 323.742 1432.96 Q328.068 1432.96 330.588 1434.93 Q333.108 1436.89 333.108 1440.24 Q333.108 1442.57 331.773 1444.19 Q330.437 1445.79 327.974 1446.41 Z" fill="#000000" fill-rule="nonzero" fill-opacity="1" /><path clip-path="url(#clip670)" d="M903.073 1485.02 L910.712 1485.02 L910.712 1458.66 L902.402 1460.32 L902.402 1456.06 L910.665 1454.4 L915.341 1454.4 L915.341 1485.02 L922.98 1485.02 L922.98 1488.96 L903.073 1488.96 L903.073 1485.02 Z" fill="#000000" fill-rule="nonzero" fill-opacity="1" /><path clip-path="url(#clip670)" d="M942.425 1457.48 Q938.813 1457.48 936.985 1461.04 Q935.179 1464.58 935.179 1471.71 Q935.179 1478.82 936.985 1482.38 Q938.813 1485.92 942.425 1485.92 Q946.059 1485.92 947.864 1482.38 Q949.693 1478.82 949.693 1471.71 Q949.693 1464.58 947.864 1461.04 Q946.059 1457.48 942.425 1457.48 M942.425 1453.77 Q948.235 1453.77 951.29 1458.38 Q954.369 1462.96 954.369 1471.71 Q954.369 1480.44 951.29 1485.04 Q948.235 1489.63 942.425 1489.63 Q936.614 1489.63 933.536 1485.04 Q930.48 1480.44 930.48 1471.71 Q930.48 1462.96 933.536 1458.38 Q936.614 1453.77 942.425 1453.77 Z" fill="#000000" fill-rule="nonzero" fill-opacity="1" /><path clip-path="url(#clip670)" d="M954.369 1447.87 L978.48 1447.87 L978.48 1451.07 L954.369 1451.07 L954.369 1447.87 Z" fill="#000000" fill-rule="nonzero" fill-opacity="1" /><path clip-path="url(#clip670)" d="M989.953 1458.35 L1003.21 1458.35 L1003.21 1461.55 L985.383 1461.55 L985.383 1458.35 Q987.546 1456.11 991.27 1452.35 Q995.013 1448.57 995.972 1447.48 Q997.796 1445.43 998.511 1444.02 Q999.244 1442.59 999.244 1441.22 Q999.244 1438.98 997.664 1437.57 Q996.103 1436.16 993.583 1436.16 Q991.796 1436.16 989.803 1436.78 Q987.828 1437.4 985.571 1438.66 L985.571 1434.82 Q987.866 1433.9 989.859 1433.43 Q991.853 1432.96 993.508 1432.96 Q997.871 1432.96 1000.47 1435.14 Q1003.06 1437.32 1003.06 1440.97 Q1003.06 1442.7 1002.4 1444.26 Q1001.76 1445.8 1000.05 1447.91 Q999.583 1448.46 997.063 1451.07 Q994.542 1453.67 989.953 1458.35 Z" fill="#000000" fill-rule="nonzero" fill-opacity="1" /><path clip-path="url(#clip670)" d="M1572.75 1485.02 L1580.39 1485.02 L1580.39 1458.66 L1572.08 1460.32 L1572.08 1456.06 L1580.35 1454.4 L1585.02 1454.4 L1585.02 1485.02 L1592.66 1485.02 L1592.66 1488.96 L1572.75 1488.96 L1572.75 1485.02 Z" fill="#000000" fill-rule="nonzero" fill-opacity="1" /><path clip-path="url(#clip670)" d="M1612.11 1457.48 Q1608.49 1457.48 1606.67 1461.04 Q1604.86 1464.58 1604.86 1471.71 Q1604.86 1478.82 1606.67 1482.38 Q1608.49 1485.92 1612.11 1485.92 Q1615.74 1485.92 1617.55 1482.38 Q1619.37 1478.82 1619.37 1471.71 Q1619.37 1464.58 1617.55 1461.04 Q1615.74 1457.48 1612.11 1457.48 M1612.11 1453.77 Q1617.92 1453.77 1620.97 1458.38 Q1624.05 1462.96 1624.05 1471.71 Q1624.05 1480.44 1620.97 1485.04 Q1617.92 1489.63 1612.11 1489.63 Q1606.3 1489.63 1603.22 1485.04 Q1600.16 1480.44 1600.16 1471.71 Q1600.16 1462.96 1603.22 1458.38 Q1606.3 1453.77 1612.11 1453.77 Z" fill="#000000" fill-rule="nonzero" fill-opacity="1" /><path clip-path="url(#clip670)" d="M1624.05 1447.87 L1648.16 1447.87 L1648.16 1451.07 L1624.05 1451.07 L1624.05 1447.87 Z" fill="#000000" fill-rule="nonzero" fill-opacity="1" /><path clip-path="url(#clip670)" d="M1657.02 1458.35 L1663.23 1458.35 L1663.23 1436.93 L1656.47 1438.28 L1656.47 1434.82 L1663.19 1433.47 L1666.99 1433.47 L1666.99 1458.35 L1673.2 1458.35 L1673.2 1461.55 L1657.02 1461.55 L1657.02 1458.35 Z" fill="#000000" fill-rule="nonzero" fill-opacity="1" /><path clip-path="url(#clip670)" d="M2257.45 1485.02 L2265.09 1485.02 L2265.09 1458.66 L2256.78 1460.32 L2256.78 1456.06 L2265.05 1454.4 L2269.72 1454.4 L2269.72 1485.02 L2277.36 1485.02 L2277.36 1488.96 L2257.45 1488.96 L2257.45 1485.02 Z" fill="#000000" fill-rule="nonzero" fill-opacity="1" /><path clip-path="url(#clip670)" d="M2296.81 1457.48 Q2293.19 1457.48 2291.37 1461.04 Q2289.56 1464.58 2289.56 1471.71 Q2289.56 1478.82 2291.37 1482.38 Q2293.19 1485.92 2296.81 1485.92 Q2300.44 1485.92 2302.25 1482.38 Q2304.07 1478.82 2304.07 1471.71 Q2304.07 1464.58 2302.25 1461.04 Q2300.44 1457.48 2296.81 1457.48 M2296.81 1453.77 Q2302.62 1453.77 2305.67 1458.38 Q2308.75 1462.96 2308.75 1471.71 Q2308.75 1480.44 2305.67 1485.04 Q2302.62 1489.63 2296.81 1489.63 Q2291 1489.63 2287.92 1485.04 Q2284.86 1480.44 2284.86 1471.71 Q2284.86 1462.96 2287.92 1458.38 Q2291 1453.77 2296.81 1453.77 Z" fill="#000000" fill-rule="nonzero" fill-opacity="1" /><path clip-path="url(#clip670)" d="M2318.45 1435.97 Q2315.52 1435.97 2314.03 1438.86 Q2312.57 1441.74 2312.57 1447.53 Q2312.57 1453.31 2314.03 1456.2 Q2315.52 1459.08 2318.45 1459.08 Q2321.41 1459.08 2322.87 1456.2 Q2324.36 1453.31 2324.36 1447.53 Q2324.36 1441.74 2322.87 1438.86 Q2321.41 1435.97 2318.45 1435.97 M2318.45 1432.96 Q2323.18 1432.96 2325.66 1436.7 Q2328.16 1440.43 2328.16 1447.53 Q2328.16 1454.62 2325.66 1458.37 Q2323.18 1462.09 2318.45 1462.09 Q2313.73 1462.09 2311.23 1458.37 Q2308.75 1454.62 2308.75 1447.53 Q2308.75 1440.43 2311.23 1436.7 Q2313.73 1432.96 2318.45 1432.96 Z" fill="#000000" fill-rule="nonzero" fill-opacity="1" /><path clip-path="url(#clip670)" d="M1074.06 1526.67 L1082.72 1526.67 L1103.79 1566.42 L1103.79 1526.67 L1110.02 1526.67 L1110.02 1574.19 L1101.37 1574.19 L1080.3 1534.43 L1080.3 1574.19 L1074.06 1574.19 L1074.06 1526.67 Z" fill="#000000" fill-rule="nonzero" fill-opacity="1" /><path clip-path="url(#clip670)" d="M1136.38 1542.64 Q1131.67 1542.64 1128.93 1546.34 Q1126.19 1550 1126.19 1556.39 Q1126.19 1562.79 1128.9 1566.48 Q1131.64 1570.14 1136.38 1570.14 Q1141.06 1570.14 1143.79 1566.45 Q1146.53 1562.76 1146.53 1556.39 Q1146.53 1550.06 1143.79 1546.37 Q1141.06 1542.64 1136.38 1542.64 M1136.38 1537.68 Q1144.02 1537.68 1148.38 1542.64 Q1152.74 1547.61 1152.74 1556.39 Q1152.74 1565.15 1148.38 1570.14 Q1144.02 1575.11 1136.38 1575.11 Q1128.71 1575.11 1124.35 1570.14 Q1120.02 1565.15 1120.02 1556.39 Q1120.02 1547.61 1124.35 1542.64 Q1128.71 1537.68 1136.38 1537.68 Z" fill="#000000" fill-rule="nonzero" fill-opacity="1" /><path clip-path="url(#clip670)" d="M1162.45 1538.54 L1168.3 1538.54 L1168.3 1574.19 L1162.45 1574.19 L1162.45 1538.54 M1162.45 1524.66 L1168.3 1524.66 L1168.3 1532.08 L1162.45 1532.08 L1162.45 1524.66 Z" fill="#000000" fill-rule="nonzero" fill-opacity="1" /><path clip-path="url(#clip670)" d="M1203.28 1539.59 L1203.28 1545.13 Q1200.8 1543.85 1198.13 1543.22 Q1195.45 1542.58 1192.59 1542.58 Q1188.23 1542.58 1186.03 1543.92 Q1183.87 1545.25 1183.87 1547.93 Q1183.87 1549.96 1185.43 1551.14 Q1186.99 1552.29 1191.7 1553.34 L1193.7 1553.78 Q1199.94 1555.12 1202.55 1557.57 Q1205.19 1559.99 1205.19 1564.35 Q1205.19 1569.32 1201.24 1572.21 Q1197.33 1575.11 1190.46 1575.11 Q1187.59 1575.11 1184.47 1574.54 Q1181.38 1573.99 1177.95 1572.88 L1177.95 1566.83 Q1181.19 1568.52 1184.34 1569.38 Q1187.5 1570.21 1190.58 1570.21 Q1194.72 1570.21 1196.95 1568.81 Q1199.18 1567.37 1199.18 1564.8 Q1199.18 1562.41 1197.55 1561.14 Q1195.96 1559.86 1190.52 1558.68 L1188.48 1558.21 Q1183.04 1557.06 1180.62 1554.71 Q1178.2 1552.32 1178.2 1548.18 Q1178.2 1543.15 1181.77 1540.42 Q1185.33 1537.68 1191.89 1537.68 Q1195.13 1537.68 1198 1538.16 Q1200.86 1538.63 1203.28 1539.59 Z" fill="#000000" fill-rule="nonzero" fill-opacity="1" /><path clip-path="url(#clip670)" d="M1245.01 1554.9 L1245.01 1557.76 L1218.08 1557.76 Q1218.46 1563.81 1221.71 1566.99 Q1224.99 1570.14 1230.81 1570.14 Q1234.19 1570.14 1237.34 1569.32 Q1240.52 1568.49 1243.64 1566.83 L1243.64 1572.37 Q1240.49 1573.71 1237.18 1574.41 Q1233.87 1575.11 1230.46 1575.11 Q1221.93 1575.11 1216.94 1570.14 Q1211.97 1565.18 1211.97 1556.71 Q1211.97 1547.96 1216.68 1542.83 Q1221.42 1537.68 1229.45 1537.68 Q1236.64 1537.68 1240.81 1542.33 Q1245.01 1546.94 1245.01 1554.9 M1239.15 1553.18 Q1239.09 1548.37 1236.45 1545.51 Q1233.84 1542.64 1229.51 1542.64 Q1224.61 1542.64 1221.65 1545.41 Q1218.72 1548.18 1218.27 1553.21 L1239.15 1553.18 Z" fill="#000000" fill-rule="nonzero" fill-opacity="1" /><path clip-path="url(#clip670)" d="M1275.6 1526.67 L1282.03 1526.67 L1282.03 1568.77 L1305.17 1568.77 L1305.17 1574.19 L1275.6 1574.19 L1275.6 1526.67 Z" fill="#000000" fill-rule="nonzero" fill-opacity="1" /><path clip-path="url(#clip670)" d="M1341 1554.9 L1341 1557.76 L1314.08 1557.76 Q1314.46 1563.81 1317.71 1566.99 Q1320.98 1570.14 1326.81 1570.14 Q1330.18 1570.14 1333.33 1569.32 Q1336.52 1568.49 1339.64 1566.83 L1339.64 1572.37 Q1336.48 1573.71 1333.17 1574.41 Q1329.86 1575.11 1326.46 1575.11 Q1317.93 1575.11 1312.93 1570.14 Q1307.97 1565.18 1307.97 1556.71 Q1307.97 1547.96 1312.68 1542.83 Q1317.42 1537.68 1325.44 1537.68 Q1332.63 1537.68 1336.8 1542.33 Q1341 1546.94 1341 1554.9 M1335.15 1553.18 Q1335.08 1548.37 1332.44 1545.51 Q1329.83 1542.64 1325.5 1542.64 Q1320.6 1542.64 1317.64 1545.41 Q1314.71 1548.18 1314.27 1553.21 L1335.15 1553.18 Z" fill="#000000" fill-rule="nonzero" fill-opacity="1" /><path clip-path="url(#clip670)" d="M1346.41 1538.54 L1352.62 1538.54 L1363.76 1568.46 L1374.9 1538.54 L1381.11 1538.54 L1367.74 1574.19 L1359.78 1574.19 L1346.41 1538.54 Z" fill="#000000" fill-rule="nonzero" fill-opacity="1" /><path clip-path="url(#clip670)" d="M1419.68 1554.9 L1419.68 1557.76 L1392.76 1557.76 Q1393.14 1563.81 1396.39 1566.99 Q1399.66 1570.14 1405.49 1570.14 Q1408.86 1570.14 1412.01 1569.32 Q1415.2 1568.49 1418.32 1566.83 L1418.32 1572.37 Q1415.16 1573.71 1411.85 1574.41 Q1408.54 1575.11 1405.14 1575.11 Q1396.61 1575.11 1391.61 1570.14 Q1386.65 1565.18 1386.65 1556.71 Q1386.65 1547.96 1391.36 1542.83 Q1396.1 1537.68 1404.12 1537.68 Q1411.31 1537.68 1415.48 1542.33 Q1419.68 1546.94 1419.68 1554.9 M1413.83 1553.18 Q1413.76 1548.37 1411.12 1545.51 Q1408.51 1542.64 1404.18 1542.64 Q1399.28 1542.64 1396.32 1545.41 Q1393.39 1548.18 1392.95 1553.21 L1413.83 1553.18 Z" fill="#000000" fill-rule="nonzero" fill-opacity="1" /><path clip-path="url(#clip670)" d="M1429.3 1524.66 L1435.15 1524.66 L1435.15 1574.19 L1429.3 1574.19 L1429.3 1524.66 Z" fill="#000000" fill-rule="nonzero" fill-opacity="1" /><path clip-path="url(#clip670)" d="M1481.94 1543.18 Q1477.1 1543.18 1474.49 1546.69 Q1471.76 1550.35 1471.76 1556.39 Q1471.76 1562.79 1474.46 1566.48 Q1477.2 1570.14 1481.94 1570.14 Q1486.62 1570.14 1489.36 1566.45 Q1492.09 1562.76 1492.09 1556.39 Q1492.09 1550.57 1489.36 1546.69 Q1486.84 1543.18 1481.94 1543.18 M1481.94 1538.54 L1501.39 1538.54 L1501.39 1544.39 L1494.83 1544.39 Q1498.3 1549.36 1498.3 1556.39 Q1498.3 1565.15 1493.94 1570.11 Q1489.58 1575.11 1481.94 1575.11 Q1474.27 1575.11 1469.94 1570.11 Q1465.58 1565.15 1465.58 1556.39 Q1465.58 1547.58 1469.94 1542.64 Q1473.54 1538.54 1481.94 1538.54 Z" fill="#000000" fill-rule="nonzero" fill-opacity="1" /><polyline clip-path="url(#clip672)" style="stroke:#000000; stroke-linecap:round; stroke-linejoin:round; stroke-width:2; stroke-opacity:0.1; fill:none" points="222.69,1410.9 2352.76,1410.9 "/>
<polyline clip-path="url(#clip672)" style="stroke:#000000; stroke-linecap:round; stroke-linejoin:round; stroke-width:2; stroke-opacity:0.1; fill:none" points="222.69,1043.06 2352.76,1043.06 "/>
<polyline clip-path="url(#clip672)" style="stroke:#000000; stroke-linecap:round; stroke-linejoin:round; stroke-width:2; stroke-opacity:0.1; fill:none" points="222.69,675.225 2352.76,675.225 "/>
<polyline clip-path="url(#clip672)" style="stroke:#000000; stroke-linecap:round; stroke-linejoin:round; stroke-width:2; stroke-opacity:0.1; fill:none" points="222.69,307.39 2352.76,307.39 "/>
<polyline clip-path="url(#clip670)" style="stroke:#000000; stroke-linecap:round; stroke-linejoin:round; stroke-width:4; stroke-opacity:1; fill:none" points="222.69,1410.9 222.69,123.472 "/>
<polyline clip-path="url(#clip670)" style="stroke:#000000; stroke-linecap:round; stroke-linejoin:round; stroke-width:4; stroke-opacity:1; fill:none" points="222.69,1410.9 241.588,1410.9 "/>
<polyline clip-path="url(#clip670)" style="stroke:#000000; stroke-linecap:round; stroke-linejoin:round; stroke-width:4; stroke-opacity:1; fill:none" points="222.69,1043.06 241.588,1043.06 "/>
<polyline clip-path="url(#clip670)" style="stroke:#000000; stroke-linecap:round; stroke-linejoin:round; stroke-width:4; stroke-opacity:1; fill:none" points="222.69,675.225 241.588,675.225 "/>
<polyline clip-path="url(#clip670)" style="stroke:#000000; stroke-linecap:round; stroke-linejoin:round; stroke-width:4; stroke-opacity:1; fill:none" points="222.69,307.39 241.588,307.39 "/>
<polyline clip-path="url(#clip670)" style="stroke:#000000; stroke-linecap:round; stroke-linejoin:round; stroke-width:4; stroke-opacity:1; fill:none" points="222.69,1300.17 232.139,1300.17 "/>
<polyline clip-path="url(#clip670)" style="stroke:#000000; stroke-linecap:round; stroke-linejoin:round; stroke-width:4; stroke-opacity:1; fill:none" points="222.69,1235.39 232.139,1235.39 "/>
<polyline clip-path="url(#clip670)" style="stroke:#000000; stroke-linecap:round; stroke-linejoin:round; stroke-width:4; stroke-opacity:1; fill:none" points="222.69,1189.44 232.139,1189.44 "/>
<polyline clip-path="url(#clip670)" style="stroke:#000000; stroke-linecap:round; stroke-linejoin:round; stroke-width:4; stroke-opacity:1; fill:none" points="222.69,1153.79 232.139,1153.79 "/>
<polyline clip-path="url(#clip670)" style="stroke:#000000; stroke-linecap:round; stroke-linejoin:round; stroke-width:4; stroke-opacity:1; fill:none" points="222.69,1124.66 232.139,1124.66 "/>
<polyline clip-path="url(#clip670)" style="stroke:#000000; stroke-linecap:round; stroke-linejoin:round; stroke-width:4; stroke-opacity:1; fill:none" points="222.69,1100.04 232.139,1100.04 "/>
<polyline clip-path="url(#clip670)" style="stroke:#000000; stroke-linecap:round; stroke-linejoin:round; stroke-width:4; stroke-opacity:1; fill:none" points="222.69,1078.71 232.139,1078.71 "/>
<polyline clip-path="url(#clip670)" style="stroke:#000000; stroke-linecap:round; stroke-linejoin:round; stroke-width:4; stroke-opacity:1; fill:none" points="222.69,1059.89 232.139,1059.89 "/>
<polyline clip-path="url(#clip670)" style="stroke:#000000; stroke-linecap:round; stroke-linejoin:round; stroke-width:4; stroke-opacity:1; fill:none" points="222.69,932.332 232.139,932.332 "/>
<polyline clip-path="url(#clip670)" style="stroke:#000000; stroke-linecap:round; stroke-linejoin:round; stroke-width:4; stroke-opacity:1; fill:none" points="222.69,867.559 232.139,867.559 "/>
<polyline clip-path="url(#clip670)" style="stroke:#000000; stroke-linecap:round; stroke-linejoin:round; stroke-width:4; stroke-opacity:1; fill:none" points="222.69,821.602 232.139,821.602 "/>
<polyline clip-path="url(#clip670)" style="stroke:#000000; stroke-linecap:round; stroke-linejoin:round; stroke-width:4; stroke-opacity:1; fill:none" points="222.69,785.955 232.139,785.955 "/>
<polyline clip-path="url(#clip670)" style="stroke:#000000; stroke-linecap:round; stroke-linejoin:round; stroke-width:4; stroke-opacity:1; fill:none" points="222.69,756.829 232.139,756.829 "/>
<polyline clip-path="url(#clip670)" style="stroke:#000000; stroke-linecap:round; stroke-linejoin:round; stroke-width:4; stroke-opacity:1; fill:none" points="222.69,732.204 232.139,732.204 "/>
<polyline clip-path="url(#clip670)" style="stroke:#000000; stroke-linecap:round; stroke-linejoin:round; stroke-width:4; stroke-opacity:1; fill:none" points="222.69,710.872 232.139,710.872 "/>
<polyline clip-path="url(#clip670)" style="stroke:#000000; stroke-linecap:round; stroke-linejoin:round; stroke-width:4; stroke-opacity:1; fill:none" points="222.69,692.057 232.139,692.057 "/>
<polyline clip-path="url(#clip670)" style="stroke:#000000; stroke-linecap:round; stroke-linejoin:round; stroke-width:4; stroke-opacity:1; fill:none" points="222.69,564.496 232.139,564.496 "/>
<polyline clip-path="url(#clip670)" style="stroke:#000000; stroke-linecap:round; stroke-linejoin:round; stroke-width:4; stroke-opacity:1; fill:none" points="222.69,499.723 232.139,499.723 "/>
<polyline clip-path="url(#clip670)" style="stroke:#000000; stroke-linecap:round; stroke-linejoin:round; stroke-width:4; stroke-opacity:1; fill:none" points="222.69,453.766 232.139,453.766 "/>
<polyline clip-path="url(#clip670)" style="stroke:#000000; stroke-linecap:round; stroke-linejoin:round; stroke-width:4; stroke-opacity:1; fill:none" points="222.69,418.119 232.139,418.119 "/>
<polyline clip-path="url(#clip670)" style="stroke:#000000; stroke-linecap:round; stroke-linejoin:round; stroke-width:4; stroke-opacity:1; fill:none" points="222.69,388.994 232.139,388.994 "/>
<polyline clip-path="url(#clip670)" style="stroke:#000000; stroke-linecap:round; stroke-linejoin:round; stroke-width:4; stroke-opacity:1; fill:none" points="222.69,364.368 232.139,364.368 "/>
<polyline clip-path="url(#clip670)" style="stroke:#000000; stroke-linecap:round; stroke-linejoin:round; stroke-width:4; stroke-opacity:1; fill:none" points="222.69,343.037 232.139,343.037 "/>
<polyline clip-path="url(#clip670)" style="stroke:#000000; stroke-linecap:round; stroke-linejoin:round; stroke-width:4; stroke-opacity:1; fill:none" points="222.69,324.221 232.139,324.221 "/>
<polyline clip-path="url(#clip670)" style="stroke:#000000; stroke-linecap:round; stroke-linejoin:round; stroke-width:4; stroke-opacity:1; fill:none" points="222.69,196.66 232.139,196.66 "/>
<polyline clip-path="url(#clip670)" style="stroke:#000000; stroke-linecap:round; stroke-linejoin:round; stroke-width:4; stroke-opacity:1; fill:none" points="222.69,131.888 232.139,131.888 "/>
<path clip-path="url(#clip670)" d="M118.674 1430.69 L126.313 1430.69 L126.313 1404.32 L118.003 1405.99 L118.003 1401.73 L126.267 1400.06 L130.943 1400.06 L130.943 1430.69 L138.581 1430.69 L138.581 1434.62 L118.674 1434.62 L118.674 1430.69 Z" fill="#000000" fill-rule="nonzero" fill-opacity="1" /><path clip-path="url(#clip670)" d="M158.026 1403.14 Q154.415 1403.14 152.586 1406.71 Q150.781 1410.25 150.781 1417.38 Q150.781 1424.49 152.586 1428.05 Q154.415 1431.59 158.026 1431.59 Q161.66 1431.59 163.466 1428.05 Q165.294 1424.49 165.294 1417.38 Q165.294 1410.25 163.466 1406.71 Q161.66 1403.14 158.026 1403.14 M158.026 1399.44 Q163.836 1399.44 166.892 1404.05 Q169.97 1408.63 169.97 1417.38 Q169.97 1426.11 166.892 1430.71 Q163.836 1435.3 158.026 1435.3 Q152.216 1435.3 149.137 1430.71 Q146.081 1426.11 146.081 1417.38 Q146.081 1408.63 149.137 1404.05 Q152.216 1399.44 158.026 1399.44 Z" fill="#000000" fill-rule="nonzero" fill-opacity="1" /><path clip-path="url(#clip670)" d="M170.516 1404.02 L176.722 1404.02 L176.722 1382.59 L169.97 1383.95 L169.97 1380.49 L176.685 1379.13 L180.484 1379.13 L180.484 1404.02 L186.69 1404.02 L186.69 1407.21 L170.516 1407.21 L170.516 1404.02 Z" fill="#000000" fill-rule="nonzero" fill-opacity="1" /><path clip-path="url(#clip670)" d="M117.565 1062.85 L125.203 1062.85 L125.203 1036.49 L116.893 1038.15 L116.893 1033.9 L125.157 1032.23 L129.833 1032.23 L129.833 1062.85 L137.472 1062.85 L137.472 1066.79 L117.565 1066.79 L117.565 1062.85 Z" fill="#000000" fill-rule="nonzero" fill-opacity="1" /><path clip-path="url(#clip670)" d="M156.916 1035.31 Q153.305 1035.31 151.476 1038.87 Q149.671 1042.41 149.671 1049.54 Q149.671 1056.65 151.476 1060.21 Q153.305 1063.76 156.916 1063.76 Q160.55 1063.76 162.356 1060.21 Q164.185 1056.65 164.185 1049.54 Q164.185 1042.41 162.356 1038.87 Q160.55 1035.31 156.916 1035.31 M156.916 1031.6 Q162.726 1031.6 165.782 1036.21 Q168.861 1040.79 168.861 1049.54 Q168.861 1058.27 165.782 1062.88 Q162.726 1067.46 156.916 1067.46 Q151.106 1067.46 148.027 1062.88 Q144.972 1058.27 144.972 1049.54 Q144.972 1040.79 148.027 1036.21 Q151.106 1031.6 156.916 1031.6 Z" fill="#000000" fill-rule="nonzero" fill-opacity="1" /><path clip-path="url(#clip670)" d="M173.431 1036.18 L186.69 1036.18 L186.69 1039.38 L168.861 1039.38 L168.861 1036.18 Q171.023 1033.94 174.747 1030.18 Q178.49 1026.4 179.449 1025.31 Q181.274 1023.26 181.988 1021.85 Q182.722 1020.42 182.722 1019.05 Q182.722 1016.81 181.142 1015.4 Q179.581 1013.99 177.061 1013.99 Q175.274 1013.99 173.28 1014.61 Q171.306 1015.23 169.049 1016.49 L169.049 1012.65 Q171.343 1011.73 173.337 1011.26 Q175.33 1010.79 176.986 1010.79 Q181.349 1010.79 183.944 1012.97 Q186.54 1015.15 186.54 1018.8 Q186.54 1020.53 185.882 1022.09 Q185.242 1023.64 183.531 1025.74 Q183.06 1026.29 180.54 1028.9 Q178.02 1031.5 173.431 1036.18 Z" fill="#000000" fill-rule="nonzero" fill-opacity="1" /><path clip-path="url(#clip670)" d="M116.906 695.018 L124.545 695.018 L124.545 668.652 L116.235 670.319 L116.235 666.06 L124.499 664.393 L129.175 664.393 L129.175 695.018 L136.814 695.018 L136.814 698.953 L116.906 698.953 L116.906 695.018 Z" fill="#000000" fill-rule="nonzero" fill-opacity="1" /><path clip-path="url(#clip670)" d="M156.258 667.472 Q152.647 667.472 150.818 671.037 Q149.013 674.578 149.013 681.708 Q149.013 688.814 150.818 692.379 Q152.647 695.921 156.258 695.921 Q159.892 695.921 161.698 692.379 Q163.526 688.814 163.526 681.708 Q163.526 674.578 161.698 671.037 Q159.892 667.472 156.258 667.472 M156.258 663.768 Q162.068 663.768 165.124 668.375 Q168.202 672.958 168.202 681.708 Q168.202 690.435 165.124 695.041 Q162.068 699.624 156.258 699.624 Q150.448 699.624 147.369 695.041 Q144.314 690.435 144.314 681.708 Q144.314 672.958 147.369 668.375 Q150.448 663.768 156.258 663.768 Z" fill="#000000" fill-rule="nonzero" fill-opacity="1" /><path clip-path="url(#clip670)" d="M180.898 656.402 Q183.625 656.985 185.148 658.829 Q186.69 660.672 186.69 663.38 Q186.69 667.537 183.832 669.812 Q180.973 672.088 175.707 672.088 Q173.939 672.088 172.058 671.731 Q170.196 671.392 168.202 670.696 L168.202 667.029 Q169.782 667.95 171.663 668.421 Q173.544 668.891 175.594 668.891 Q179.167 668.891 181.029 667.48 Q182.91 666.07 182.91 663.38 Q182.91 660.897 181.161 659.506 Q179.431 658.095 176.327 658.095 L173.055 658.095 L173.055 654.973 L176.478 654.973 Q179.28 654.973 180.766 653.863 Q182.252 652.735 182.252 650.628 Q182.252 648.466 180.709 647.318 Q179.186 646.152 176.327 646.152 Q174.766 646.152 172.979 646.491 Q171.193 646.829 169.049 647.544 L169.049 644.159 Q171.212 643.557 173.092 643.256 Q174.992 642.955 176.666 642.955 Q180.992 642.955 183.512 644.93 Q186.032 646.886 186.032 650.233 Q186.032 652.566 184.697 654.183 Q183.361 655.782 180.898 656.402 Z" fill="#000000" fill-rule="nonzero" fill-opacity="1" /><path clip-path="url(#clip670)" d="M114.931 327.182 L122.57 327.182 L122.57 300.817 L114.26 302.483 L114.26 298.224 L122.524 296.558 L127.2 296.558 L127.2 327.182 L134.839 327.182 L134.839 331.118 L114.931 331.118 L114.931 327.182 Z" fill="#000000" fill-rule="nonzero" fill-opacity="1" /><path clip-path="url(#clip670)" d="M154.283 299.636 Q150.672 299.636 148.843 303.201 Q147.038 306.743 147.038 313.872 Q147.038 320.979 148.843 324.543 Q150.672 328.085 154.283 328.085 Q157.917 328.085 159.723 324.543 Q161.552 320.979 161.552 313.872 Q161.552 306.743 159.723 303.201 Q157.917 299.636 154.283 299.636 M154.283 295.933 Q160.093 295.933 163.149 300.539 Q166.227 305.122 166.227 313.872 Q166.227 322.599 163.149 327.205 Q160.093 331.789 154.283 331.789 Q148.473 331.789 145.394 327.205 Q142.339 322.599 142.339 313.872 Q142.339 305.122 145.394 300.539 Q148.473 295.933 154.283 295.933 Z" fill="#000000" fill-rule="nonzero" fill-opacity="1" /><path clip-path="url(#clip670)" d="M178.904 278.937 L169.312 293.927 L178.904 293.927 L178.904 278.937 M177.907 275.627 L182.684 275.627 L182.684 293.927 L186.69 293.927 L186.69 297.087 L182.684 297.087 L182.684 303.707 L178.904 303.707 L178.904 297.087 L166.227 297.087 L166.227 293.419 L177.907 275.627 Z" fill="#000000" fill-rule="nonzero" fill-opacity="1" /><path clip-path="url(#clip670)" d="M16.4842 1070.35 L16.4842 1030.15 L21.895 1030.15 L21.895 1047.02 L64.0042 1047.02 L64.0042 1053.48 L21.895 1053.48 L21.895 1070.35 L16.4842 1070.35 Z" fill="#000000" fill-rule="nonzero" fill-opacity="1" /><path clip-path="url(#clip670)" d="M33.8307 1013.12 Q33.2578 1014.11 33.0032 1015.29 Q32.7167 1016.43 32.7167 1017.83 Q32.7167 1022.8 35.9632 1025.47 Q39.1779 1028.11 45.2253 1028.11 L64.0042 1028.11 L64.0042 1034 L28.3562 1034 L28.3562 1028.11 L33.8944 1028.11 Q30.6479 1026.27 29.0883 1023.31 Q27.4968 1020.35 27.4968 1016.12 Q27.4968 1015.51 27.5923 1014.78 Q27.656 1014.05 27.8151 1013.16 L33.8307 1013.12 Z" fill="#000000" fill-rule="nonzero" fill-opacity="1" /><path clip-path="url(#clip670)" d="M46.0847 990.78 Q46.0847 997.878 47.7079 1000.61 Q49.3312 1003.35 53.2461 1003.35 Q56.3653 1003.35 58.2114 1001.32 Q60.0256 999.246 60.0256 995.713 Q60.0256 990.843 56.5881 987.915 Q53.1188 984.955 47.3897 984.955 L46.0847 984.955 L46.0847 990.78 M43.6657 979.099 L64.0042 979.099 L64.0042 984.955 L58.5933 984.955 Q61.8398 986.96 63.3994 989.952 Q64.9272 992.944 64.9272 997.273 Q64.9272 1002.75 61.8716 1005.99 Q58.7843 1009.21 53.6281 1009.21 Q47.6125 1009.21 44.5569 1005.2 Q41.5014 1001.16 41.5014 993.167 L41.5014 984.955 L40.9285 984.955 Q36.8862 984.955 34.6901 987.629 Q32.4621 990.271 32.4621 995.077 Q32.4621 998.132 33.1941 1001.03 Q33.9262 1003.93 35.3903 1006.6 L29.9795 1006.6 Q28.7381 1003.38 28.1334 1000.36 Q27.4968 997.337 27.4968 994.472 Q27.4968 986.738 31.5072 982.918 Q35.5176 979.099 43.6657 979.099 Z" fill="#000000" fill-rule="nonzero" fill-opacity="1" /><path clip-path="url(#clip670)" d="M42.4881 937.403 L64.0042 937.403 L64.0042 943.26 L42.679 943.26 Q37.6183 943.26 35.1038 945.233 Q32.5894 947.207 32.5894 951.153 Q32.5894 955.896 35.6131 958.633 Q38.6368 961.37 43.8567 961.37 L64.0042 961.37 L64.0042 967.259 L28.3562 967.259 L28.3562 961.37 L33.8944 961.37 Q30.6797 959.27 29.0883 956.437 Q27.4968 953.572 27.4968 949.848 Q27.4968 943.705 31.3163 940.554 Q35.1038 937.403 42.4881 937.403 Z" fill="#000000" fill-rule="nonzero" fill-opacity="1" /><path clip-path="url(#clip670)" d="M29.4065 902.997 L34.9447 902.997 Q33.6716 905.479 33.035 908.153 Q32.3984 910.827 32.3984 913.691 Q32.3984 918.052 33.7352 920.248 Q35.072 922.412 37.7456 922.412 Q39.7826 922.412 40.9603 920.853 Q42.1061 919.293 43.1565 914.582 L43.6021 912.577 Q44.9389 906.339 47.3897 903.729 Q49.8086 901.087 54.1691 901.087 Q59.1344 901.087 62.0308 905.034 Q64.9272 908.949 64.9272 915.824 Q64.9272 918.688 64.3543 921.807 Q63.8132 924.895 62.6992 928.332 L56.6518 928.332 Q58.3387 925.086 59.198 921.935 Q60.0256 918.784 60.0256 915.696 Q60.0256 911.559 58.6251 909.331 Q57.1929 907.103 54.6147 907.103 Q52.2276 907.103 50.9545 908.726 Q49.6813 910.317 48.5037 915.76 L48.0262 917.797 Q46.8804 923.24 44.5251 925.659 Q42.138 928.078 38.0002 928.078 Q32.9713 928.078 30.2341 924.513 Q27.4968 920.948 27.4968 914.391 Q27.4968 911.145 27.9743 908.28 Q28.4517 905.416 29.4065 902.997 Z" fill="#000000" fill-rule="nonzero" fill-opacity="1" /><path clip-path="url(#clip670)" d="M28.3562 891.761 L28.3562 885.905 L64.0042 885.905 L64.0042 891.761 L28.3562 891.761 M14.479 891.761 L14.479 885.905 L21.895 885.905 L21.895 891.761 L14.479 891.761 Z" fill="#000000" fill-rule="nonzero" fill-opacity="1" /><path clip-path="url(#clip670)" d="M18.2347 867.858 L28.3562 867.858 L28.3562 855.795 L32.9077 855.795 L32.9077 867.858 L52.2594 867.858 Q56.6199 867.858 57.8613 866.68 Q59.1026 865.471 59.1026 861.811 L59.1026 855.795 L64.0042 855.795 L64.0042 861.811 Q64.0042 868.59 61.4897 871.168 Q58.9434 873.746 52.2594 873.746 L32.9077 873.746 L32.9077 878.043 L28.3562 878.043 L28.3562 873.746 L18.2347 873.746 L18.2347 867.858 Z" fill="#000000" fill-rule="nonzero" fill-opacity="1" /><path clip-path="url(#clip670)" d="M28.3562 848.093 L28.3562 842.236 L64.0042 842.236 L64.0042 848.093 L28.3562 848.093 M14.479 848.093 L14.479 842.236 L21.895 842.236 L21.895 848.093 L14.479 848.093 Z" fill="#000000" fill-rule="nonzero" fill-opacity="1" /><path clip-path="url(#clip670)" d="M32.4621 816.168 Q32.4621 820.879 36.1542 823.616 Q39.8145 826.354 46.212 826.354 Q52.6095 826.354 56.3017 823.648 Q59.9619 820.911 59.9619 816.168 Q59.9619 811.49 56.2698 808.752 Q52.5777 806.015 46.212 806.015 Q39.8781 806.015 36.186 808.752 Q32.4621 811.49 32.4621 816.168 M27.4968 816.168 Q27.4968 808.53 32.4621 804.169 Q37.4273 799.809 46.212 799.809 Q54.9649 799.809 59.9619 804.169 Q64.9272 808.53 64.9272 816.168 Q64.9272 823.839 59.9619 828.2 Q54.9649 832.528 46.212 832.528 Q37.4273 832.528 32.4621 828.2 Q27.4968 823.839 27.4968 816.168 Z" fill="#000000" fill-rule="nonzero" fill-opacity="1" /><path clip-path="url(#clip670)" d="M42.4881 760.469 L64.0042 760.469 L64.0042 766.325 L42.679 766.325 Q37.6183 766.325 35.1038 768.298 Q32.5894 770.272 32.5894 774.218 Q32.5894 778.961 35.6131 781.698 Q38.6368 784.435 43.8567 784.435 L64.0042 784.435 L64.0042 790.324 L28.3562 790.324 L28.3562 784.435 L33.8944 784.435 Q30.6797 782.335 29.0883 779.502 Q27.4968 776.637 27.4968 772.914 Q27.4968 766.771 31.3163 763.62 Q35.1038 760.469 42.4881 760.469 Z" fill="#000000" fill-rule="nonzero" fill-opacity="1" /><path clip-path="url(#clip670)" d="M16.4842 734.401 L16.4842 694.202 L21.895 694.202 L21.895 711.071 L64.0042 711.071 L64.0042 717.532 L21.895 717.532 L21.895 734.401 L16.4842 734.401 Z" fill="#000000" fill-rule="nonzero" fill-opacity="1" /><path clip-path="url(#clip670)" d="M28.3562 690.255 L28.3562 684.398 L64.0042 684.398 L64.0042 690.255 L28.3562 690.255 M14.479 690.255 L14.479 684.398 L21.895 684.398 L21.895 690.255 L14.479 690.255 Z" fill="#000000" fill-rule="nonzero" fill-opacity="1" /><path clip-path="url(#clip670)" d="M35.1993 644.39 Q31.2526 642.194 29.3747 639.138 Q27.4968 636.083 27.4968 631.945 Q27.4968 626.375 31.4117 623.351 Q35.2948 620.328 42.4881 620.328 L64.0042 620.328 L64.0042 626.216 L42.679 626.216 Q37.5546 626.216 35.072 628.03 Q32.5894 629.844 32.5894 633.568 Q32.5894 638.12 35.6131 640.761 Q38.6368 643.403 43.8567 643.403 L64.0042 643.403 L64.0042 649.291 L42.679 649.291 Q37.5228 649.291 35.072 651.106 Q32.5894 652.92 32.5894 656.708 Q32.5894 661.195 35.6449 663.837 Q38.6686 666.479 43.8567 666.479 L64.0042 666.479 L64.0042 672.367 L28.3562 672.367 L28.3562 666.479 L33.8944 666.479 Q30.616 664.474 29.0564 661.673 Q27.4968 658.872 27.4968 655.021 Q27.4968 651.138 29.4702 648.432 Q31.4436 645.695 35.1993 644.39 Z" fill="#000000" fill-rule="nonzero" fill-opacity="1" /><path clip-path="url(#clip670)" d="M44.7161 578.155 L47.5806 578.155 L47.5806 605.082 Q53.6281 604.7 56.8109 601.453 Q59.9619 598.175 59.9619 592.35 Q59.9619 588.976 59.1344 585.825 Q58.3069 582.643 56.6518 579.523 L62.1899 579.523 Q63.5267 582.674 64.227 585.985 Q64.9272 589.295 64.9272 592.7 Q64.9272 601.23 59.9619 606.227 Q54.9967 611.193 46.5303 611.193 Q37.7774 611.193 32.6531 606.482 Q27.4968 601.74 27.4968 593.719 Q27.4968 586.526 32.1438 582.356 Q36.7589 578.155 44.7161 578.155 M42.9973 584.011 Q38.1912 584.075 35.3266 586.717 Q32.4621 589.327 32.4621 593.655 Q32.4621 598.557 35.2312 601.517 Q38.0002 604.445 43.0292 604.891 L42.9973 584.011 Z" fill="#000000" fill-rule="nonzero" fill-opacity="1" /><path clip-path="url(#clip670)" d="M18.2347 542.029 L28.3562 542.029 L28.3562 529.966 L32.9077 529.966 L32.9077 542.029 L52.2594 542.029 Q56.6199 542.029 57.8613 540.852 Q59.1026 539.642 59.1026 535.982 L59.1026 529.966 L64.0042 529.966 L64.0042 535.982 Q64.0042 542.761 61.4897 545.34 Q58.9434 547.918 52.2594 547.918 L32.9077 547.918 L32.9077 552.214 L28.3562 552.214 L28.3562 547.918 L18.2347 547.918 L18.2347 542.029 Z" fill="#000000" fill-rule="nonzero" fill-opacity="1" /><path clip-path="url(#clip670)" d="M74.8259 495.178 L79.3773 495.178 L79.3773 529.043 L74.8259 529.043 L74.8259 495.178 Z" fill="#000000" fill-rule="nonzero" fill-opacity="1" /><path clip-path="url(#clip670)" d="M29.7248 464.018 L35.1993 464.018 Q33.8307 466.5 33.1623 469.015 Q32.4621 471.497 32.4621 474.044 Q32.4621 479.741 36.0905 482.892 Q39.6872 486.043 46.212 486.043 Q52.7369 486.043 56.3653 482.892 Q59.9619 479.741 59.9619 474.044 Q59.9619 471.497 59.2935 469.015 Q58.5933 466.5 57.2247 464.018 L62.6355 464.018 Q63.7814 466.468 64.3543 469.11 Q64.9272 471.72 64.9272 474.68 Q64.9272 482.733 59.8664 487.475 Q54.8057 492.218 46.212 492.218 Q37.491 492.218 32.4939 487.443 Q27.4968 482.637 27.4968 474.298 Q27.4968 471.593 28.0697 469.015 Q28.6108 466.437 29.7248 464.018 Z" fill="#000000" fill-rule="nonzero" fill-opacity="1" /><path clip-path="url(#clip670)" d="M604.012 18.8205 L604.012 65.8515 L613.896 65.8515 Q626.413 65.8515 632.206 60.1802 Q638.039 54.509 638.039 42.2752 Q638.039 30.1225 632.206 24.4918 Q626.413 18.8205 613.896 18.8205 L604.012 18.8205 M595.829 12.096 L612.64 12.096 Q630.221 12.096 638.444 19.4281 Q646.668 26.7198 646.668 42.2752 Q646.668 57.9117 638.404 65.2439 Q630.14 72.576 612.64 72.576 L595.829 72.576 L595.829 12.096 Z" fill="#000000" fill-rule="nonzero" fill-opacity="1" /><path clip-path="url(#clip670)" d="M659.387 27.2059 L666.841 27.2059 L666.841 72.576 L659.387 72.576 L659.387 27.2059 M659.387 9.54393 L666.841 9.54393 L666.841 18.9825 L659.387 18.9825 L659.387 9.54393 Z" fill="#000000" fill-rule="nonzero" fill-opacity="1" /><path clip-path="url(#clip670)" d="M705.406 9.54393 L705.406 15.7418 L698.276 15.7418 Q694.266 15.7418 692.686 17.3622 Q691.146 18.9825 691.146 23.1955 L691.146 27.2059 L703.421 27.2059 L703.421 32.9987 L691.146 32.9987 L691.146 72.576 L683.652 72.576 L683.652 32.9987 L676.523 32.9987 L676.523 27.2059 L683.652 27.2059 L683.652 24.0462 Q683.652 16.471 687.177 13.0277 Q690.701 9.54393 698.357 9.54393 L705.406 9.54393 Z" fill="#000000" fill-rule="nonzero" fill-opacity="1" /><path clip-path="url(#clip670)" d="M734.613 9.54393 L734.613 15.7418 L727.483 15.7418 Q723.473 15.7418 721.893 17.3622 Q720.353 18.9825 720.353 23.1955 L720.353 27.2059 L732.628 27.2059 L732.628 32.9987 L720.353 32.9987 L720.353 72.576 L712.859 72.576 L712.859 32.9987 L705.73 32.9987 L705.73 27.2059 L712.859 27.2059 L712.859 24.0462 Q712.859 16.471 716.384 13.0277 Q719.908 9.54393 727.564 9.54393 L734.613 9.54393 Z" fill="#000000" fill-rule="nonzero" fill-opacity="1" /><path clip-path="url(#clip670)" d="M779.659 48.0275 L779.659 51.6733 L745.388 51.6733 Q745.874 59.3701 750.006 63.421 Q754.179 67.4314 761.592 67.4314 Q765.886 67.4314 769.896 66.3781 Q773.947 65.3249 777.917 63.2184 L777.917 70.267 Q773.906 71.9684 769.693 72.8596 Q765.481 73.7508 761.146 73.7508 Q750.29 73.7508 743.93 67.4314 Q737.61 61.1119 737.61 50.3365 Q737.61 39.1965 743.606 32.6746 Q749.642 26.1121 759.85 26.1121 Q769.005 26.1121 774.312 32.0264 Q779.659 37.9003 779.659 48.0275 M772.205 45.84 Q772.124 39.7232 768.762 36.0774 Q765.44 32.4315 759.931 32.4315 Q753.692 32.4315 749.925 35.9558 Q746.198 39.4801 745.631 45.8805 L772.205 45.84 Z" fill="#000000" fill-rule="nonzero" fill-opacity="1" /><path clip-path="url(#clip670)" d="M818.183 34.1734 Q816.927 33.4443 815.428 33.1202 Q813.97 32.7556 812.187 32.7556 Q805.868 32.7556 802.465 36.8875 Q799.103 40.9789 799.103 48.6757 L799.103 72.576 L791.609 72.576 L791.609 27.2059 L799.103 27.2059 L799.103 34.2544 Q801.453 30.1225 805.22 28.1376 Q808.987 26.1121 814.375 26.1121 Q815.145 26.1121 816.076 26.2337 Q817.008 26.3147 818.142 26.5172 L818.183 34.1734 Z" fill="#000000" fill-rule="nonzero" fill-opacity="1" /><path clip-path="url(#clip670)" d="M862.986 48.0275 L862.986 51.6733 L828.715 51.6733 Q829.201 59.3701 833.333 63.421 Q837.506 67.4314 844.919 67.4314 Q849.213 67.4314 853.223 66.3781 Q857.274 65.3249 861.244 63.2184 L861.244 70.267 Q857.234 71.9684 853.021 72.8596 Q848.808 73.7508 844.473 73.7508 Q833.617 73.7508 827.257 67.4314 Q820.937 61.1119 820.937 50.3365 Q820.937 39.1965 826.933 32.6746 Q832.969 26.1121 843.177 26.1121 Q852.332 26.1121 857.639 32.0264 Q862.986 37.9003 862.986 48.0275 M855.532 45.84 Q855.451 39.7232 852.089 36.0774 Q848.767 32.4315 843.258 32.4315 Q837.02 32.4315 833.252 35.9558 Q829.525 39.4801 828.958 45.8805 L855.532 45.84 Z" fill="#000000" fill-rule="nonzero" fill-opacity="1" /><path clip-path="url(#clip670)" d="M912.933 45.1919 L912.933 72.576 L905.48 72.576 L905.48 45.4349 Q905.48 38.994 902.968 35.7938 Q900.457 32.5936 895.434 32.5936 Q889.398 32.5936 885.914 36.4419 Q882.43 40.2903 882.43 46.9338 L882.43 72.576 L874.936 72.576 L874.936 27.2059 L882.43 27.2059 L882.43 34.2544 Q885.104 30.163 888.709 28.1376 Q892.355 26.1121 897.094 26.1121 Q904.913 26.1121 908.923 30.9732 Q912.933 35.7938 912.933 45.1919 Z" fill="#000000" fill-rule="nonzero" fill-opacity="1" /><path clip-path="url(#clip670)" d="M935.173 14.324 L935.173 27.2059 L950.526 27.2059 L950.526 32.9987 L935.173 32.9987 L935.173 57.6282 Q935.173 63.1779 936.672 64.7578 Q938.211 66.3376 942.87 66.3376 L950.526 66.3376 L950.526 72.576 L942.87 72.576 Q934.241 72.576 930.96 69.3758 Q927.679 66.1351 927.679 57.6282 L927.679 32.9987 L922.21 32.9987 L922.21 27.2059 L927.679 27.2059 L927.679 14.324 L935.173 14.324 Z" fill="#000000" fill-rule="nonzero" fill-opacity="1" /><path clip-path="url(#clip670)" d="M960.329 27.2059 L967.783 27.2059 L967.783 72.576 L960.329 72.576 L960.329 27.2059 M960.329 9.54393 L967.783 9.54393 L967.783 18.9825 L960.329 18.9825 L960.329 9.54393 Z" fill="#000000" fill-rule="nonzero" fill-opacity="1" /><path clip-path="url(#clip670)" d="M1004 49.7694 Q994.964 49.7694 991.48 51.8354 Q987.997 53.9013 987.997 58.8839 Q987.997 62.8538 990.589 65.2034 Q993.222 67.5124 997.719 67.5124 Q1003.92 67.5124 1007.64 63.1374 Q1011.41 58.7219 1011.41 51.4303 L1011.41 49.7694 L1004 49.7694 M1018.86 46.6907 L1018.86 72.576 L1011.41 72.576 L1011.41 65.6895 Q1008.86 69.8214 1005.05 71.8063 Q1001.24 73.7508 995.734 73.7508 Q988.766 73.7508 984.634 69.8619 Q980.543 65.9325 980.543 59.3701 Q980.543 51.7138 985.647 47.825 Q990.792 43.9361 1000.96 43.9361 L1011.41 43.9361 L1011.41 43.2069 Q1011.41 38.0623 1008.01 35.2672 Q1004.65 32.4315 998.529 32.4315 Q994.64 32.4315 990.954 33.3632 Q987.268 34.295 983.865 36.1584 L983.865 29.2718 Q987.956 27.692 991.805 26.9223 Q995.653 26.1121 999.299 26.1121 Q1009.14 26.1121 1014 31.2163 Q1018.86 36.3204 1018.86 46.6907 Z" fill="#000000" fill-rule="nonzero" fill-opacity="1" /><path clip-path="url(#clip670)" d="M1041.59 14.324 L1041.59 27.2059 L1056.94 27.2059 L1056.94 32.9987 L1041.59 32.9987 L1041.59 57.6282 Q1041.59 63.1779 1043.09 64.7578 Q1044.63 66.3376 1049.29 66.3376 L1056.94 66.3376 L1056.94 72.576 L1049.29 72.576 Q1040.66 72.576 1037.38 69.3758 Q1034.1 66.1351 1034.1 57.6282 L1034.1 32.9987 L1028.63 32.9987 L1028.63 27.2059 L1034.1 27.2059 L1034.1 14.324 L1041.59 14.324 Z" fill="#000000" fill-rule="nonzero" fill-opacity="1" /><path clip-path="url(#clip670)" d="M1066.75 27.2059 L1074.2 27.2059 L1074.2 72.576 L1066.75 72.576 L1066.75 27.2059 M1066.75 9.54393 L1074.2 9.54393 L1074.2 18.9825 L1066.75 18.9825 L1066.75 9.54393 Z" fill="#000000" fill-rule="nonzero" fill-opacity="1" /><path clip-path="url(#clip670)" d="M1107.38 32.4315 Q1101.38 32.4315 1097.9 37.1306 Q1094.41 41.7891 1094.41 49.9314 Q1094.41 58.0738 1097.86 62.7728 Q1101.34 67.4314 1107.38 67.4314 Q1113.33 67.4314 1116.82 62.7323 Q1120.3 58.0333 1120.3 49.9314 Q1120.3 41.8701 1116.82 37.1711 Q1113.33 32.4315 1107.38 32.4315 M1107.38 26.1121 Q1117.1 26.1121 1122.65 32.4315 Q1128.2 38.7509 1128.2 49.9314 Q1128.2 61.0714 1122.65 67.4314 Q1117.1 73.7508 1107.38 73.7508 Q1097.61 73.7508 1092.06 67.4314 Q1086.56 61.0714 1086.56 49.9314 Q1086.56 38.7509 1092.06 32.4315 Q1097.61 26.1121 1107.38 26.1121 Z" fill="#000000" fill-rule="nonzero" fill-opacity="1" /><path clip-path="url(#clip670)" d="M1178.27 45.1919 L1178.27 72.576 L1170.81 72.576 L1170.81 45.4349 Q1170.81 38.994 1168.3 35.7938 Q1165.79 32.5936 1160.77 32.5936 Q1154.73 32.5936 1151.25 36.4419 Q1147.76 40.2903 1147.76 46.9338 L1147.76 72.576 L1140.27 72.576 L1140.27 27.2059 L1147.76 27.2059 L1147.76 34.2544 Q1150.44 30.163 1154.04 28.1376 Q1157.69 26.1121 1162.43 26.1121 Q1170.25 26.1121 1174.26 30.9732 Q1178.27 35.7938 1178.27 45.1919 Z" fill="#000000" fill-rule="nonzero" fill-opacity="1" /><path clip-path="url(#clip670)" d="M1226.88 14.324 L1226.88 27.2059 L1242.23 27.2059 L1242.23 32.9987 L1226.88 32.9987 L1226.88 57.6282 Q1226.88 63.1779 1228.38 64.7578 Q1229.92 66.3376 1234.58 66.3376 L1242.23 66.3376 L1242.23 72.576 L1234.58 72.576 Q1225.95 72.576 1222.67 69.3758 Q1219.38 66.1351 1219.38 57.6282 L1219.38 32.9987 L1213.92 32.9987 L1213.92 27.2059 L1219.38 27.2059 L1219.38 14.324 L1226.88 14.324 Z" fill="#000000" fill-rule="nonzero" fill-opacity="1" /><path clip-path="url(#clip670)" d="M1252.03 27.2059 L1259.49 27.2059 L1259.49 72.576 L1252.03 72.576 L1252.03 27.2059 M1252.03 9.54393 L1259.49 9.54393 L1259.49 18.9825 L1252.03 18.9825 L1252.03 9.54393 Z" fill="#000000" fill-rule="nonzero" fill-opacity="1" /><path clip-path="url(#clip670)" d="M1310.41 35.9153 Q1313.2 30.8922 1317.09 28.5022 Q1320.98 26.1121 1326.25 26.1121 Q1333.34 26.1121 1337.18 31.0947 Q1341.03 36.0368 1341.03 45.1919 L1341.03 72.576 L1333.54 72.576 L1333.54 45.4349 Q1333.54 38.913 1331.23 35.7533 Q1328.92 32.5936 1324.18 32.5936 Q1318.39 32.5936 1315.03 36.4419 Q1311.66 40.2903 1311.66 46.9338 L1311.66 72.576 L1304.17 72.576 L1304.17 45.4349 Q1304.17 38.8725 1301.86 35.7533 Q1299.55 32.5936 1294.73 32.5936 Q1289.02 32.5936 1285.66 36.4824 Q1282.29 40.3308 1282.29 46.9338 L1282.29 72.576 L1274.8 72.576 L1274.8 27.2059 L1282.29 27.2059 L1282.29 34.2544 Q1284.85 30.082 1288.41 28.0971 Q1291.98 26.1121 1296.88 26.1121 Q1301.82 26.1121 1305.26 28.6237 Q1308.75 31.1352 1310.41 35.9153 Z" fill="#000000" fill-rule="nonzero" fill-opacity="1" /><path clip-path="url(#clip670)" d="M1394.71 48.0275 L1394.71 51.6733 L1360.44 51.6733 Q1360.92 59.3701 1365.05 63.421 Q1369.23 67.4314 1376.64 67.4314 Q1380.93 67.4314 1384.94 66.3781 Q1389 65.3249 1392.97 63.2184 L1392.97 70.267 Q1388.96 71.9684 1384.74 72.8596 Q1380.53 73.7508 1376.19 73.7508 Q1365.34 73.7508 1358.98 67.4314 Q1352.66 61.1119 1352.66 50.3365 Q1352.66 39.1965 1358.65 32.6746 Q1364.69 26.1121 1374.9 26.1121 Q1384.05 26.1121 1389.36 32.0264 Q1394.71 37.9003 1394.71 48.0275 M1387.25 45.84 Q1387.17 39.7232 1383.81 36.0774 Q1380.49 32.4315 1374.98 32.4315 Q1368.74 32.4315 1364.97 35.9558 Q1361.25 39.4801 1360.68 45.8805 L1387.25 45.84 Z" fill="#000000" fill-rule="nonzero" fill-opacity="1" /><path clip-path="url(#clip670)" d="M1456.28 9.54393 L1456.28 15.7418 L1449.15 15.7418 Q1445.14 15.7418 1443.56 17.3622 Q1442.02 18.9825 1442.02 23.1955 L1442.02 27.2059 L1454.3 27.2059 L1454.3 32.9987 L1442.02 32.9987 L1442.02 72.576 L1434.53 72.576 L1434.53 32.9987 L1427.4 32.9987 L1427.4 27.2059 L1434.53 27.2059 L1434.53 24.0462 Q1434.53 16.471 1438.05 13.0277 Q1441.58 9.54393 1449.23 9.54393 L1456.28 9.54393 Z" fill="#000000" fill-rule="nonzero" fill-opacity="1" /><path clip-path="url(#clip670)" d="M1480.1 32.4315 Q1474.11 32.4315 1470.62 37.1306 Q1467.14 41.7891 1467.14 49.9314 Q1467.14 58.0738 1470.58 62.7728 Q1474.06 67.4314 1480.1 67.4314 Q1486.06 67.4314 1489.54 62.7323 Q1493.02 58.0333 1493.02 49.9314 Q1493.02 41.8701 1489.54 37.1711 Q1486.06 32.4315 1480.1 32.4315 M1480.1 26.1121 Q1489.82 26.1121 1495.37 32.4315 Q1500.92 38.7509 1500.92 49.9314 Q1500.92 61.0714 1495.37 67.4314 Q1489.82 73.7508 1480.1 73.7508 Q1470.34 73.7508 1464.79 67.4314 Q1459.28 61.0714 1459.28 49.9314 Q1459.28 38.7509 1464.79 32.4315 Q1470.34 26.1121 1480.1 26.1121 Z" fill="#000000" fill-rule="nonzero" fill-opacity="1" /><path clip-path="url(#clip670)" d="M1539.57 34.1734 Q1538.31 33.4443 1536.81 33.1202 Q1535.35 32.7556 1533.57 32.7556 Q1527.25 32.7556 1523.85 36.8875 Q1520.49 40.9789 1520.49 48.6757 L1520.49 72.576 L1512.99 72.576 L1512.99 27.2059 L1520.49 27.2059 L1520.49 34.2544 Q1522.84 30.1225 1526.6 28.1376 Q1530.37 26.1121 1535.76 26.1121 Q1536.53 26.1121 1537.46 26.2337 Q1538.39 26.3147 1539.53 26.5172 L1539.57 34.1734 Z" fill="#000000" fill-rule="nonzero" fill-opacity="1" /><path clip-path="url(#clip670)" d="M1582.26 43.6931 L1582.26 65.8515 L1595.39 65.8515 Q1601.99 65.8515 1605.15 63.1374 Q1608.35 60.3828 1608.35 54.752 Q1608.35 49.0808 1605.15 46.4072 Q1601.99 43.6931 1595.39 43.6931 L1582.26 43.6931 M1582.26 18.8205 L1582.26 37.0496 L1594.38 37.0496 Q1600.37 37.0496 1603.29 34.8216 Q1606.25 32.5531 1606.25 27.935 Q1606.25 23.3575 1603.29 21.089 Q1600.37 18.8205 1594.38 18.8205 L1582.26 18.8205 M1574.08 12.096 L1594.98 12.096 Q1604.34 12.096 1609.41 15.9849 Q1614.47 19.8737 1614.47 27.0438 Q1614.47 32.5936 1611.88 35.8748 Q1609.28 39.156 1604.26 39.9662 Q1610.3 41.2625 1613.62 45.3944 Q1616.98 49.4858 1616.98 55.6432 Q1616.98 63.745 1611.47 68.1605 Q1605.96 72.576 1595.79 72.576 L1574.08 72.576 L1574.08 12.096 Z" fill="#000000" fill-rule="nonzero" fill-opacity="1" /><path clip-path="url(#clip670)" d="M1669.48 48.0275 L1669.48 51.6733 L1635.21 51.6733 Q1635.7 59.3701 1639.83 63.421 Q1644 67.4314 1651.41 67.4314 Q1655.71 67.4314 1659.72 66.3781 Q1663.77 65.3249 1667.74 63.2184 L1667.74 70.267 Q1663.73 71.9684 1659.52 72.8596 Q1655.3 73.7508 1650.97 73.7508 Q1640.11 73.7508 1633.75 67.4314 Q1627.43 61.1119 1627.43 50.3365 Q1627.43 39.1965 1633.43 32.6746 Q1639.46 26.1121 1649.67 26.1121 Q1658.83 26.1121 1664.13 32.0264 Q1669.48 37.9003 1669.48 48.0275 M1662.03 45.84 Q1661.95 39.7232 1658.58 36.0774 Q1655.26 32.4315 1649.75 32.4315 Q1643.51 32.4315 1639.75 35.9558 Q1636.02 39.4801 1635.45 45.8805 L1662.03 45.84 Z" fill="#000000" fill-rule="nonzero" fill-opacity="1" /><path clip-path="url(#clip670)" d="M1689.09 14.324 L1689.09 27.2059 L1704.44 27.2059 L1704.44 32.9987 L1689.09 32.9987 L1689.09 57.6282 Q1689.09 63.1779 1690.59 64.7578 Q1692.12 66.3376 1696.78 66.3376 L1704.44 66.3376 L1704.44 72.576 L1696.78 72.576 Q1688.15 72.576 1684.87 69.3758 Q1681.59 66.1351 1681.59 57.6282 L1681.59 32.9987 L1676.12 32.9987 L1676.12 27.2059 L1681.59 27.2059 L1681.59 14.324 L1689.09 14.324 Z" fill="#000000" fill-rule="nonzero" fill-opacity="1" /><path clip-path="url(#clip670)" d="M1734.86 49.7694 Q1725.83 49.7694 1722.34 51.8354 Q1718.86 53.9013 1718.86 58.8839 Q1718.86 62.8538 1721.45 65.2034 Q1724.09 67.5124 1728.58 67.5124 Q1734.78 67.5124 1738.51 63.1374 Q1742.28 58.7219 1742.28 51.4303 L1742.28 49.7694 L1734.86 49.7694 M1749.73 46.6907 L1749.73 72.576 L1742.28 72.576 L1742.28 65.6895 Q1739.72 69.8214 1735.92 71.8063 Q1732.11 73.7508 1726.6 73.7508 Q1719.63 73.7508 1715.5 69.8619 Q1711.41 65.9325 1711.41 59.3701 Q1711.41 51.7138 1716.51 47.825 Q1721.66 43.9361 1731.82 43.9361 L1742.28 43.9361 L1742.28 43.2069 Q1742.28 38.0623 1738.87 35.2672 Q1735.51 32.4315 1729.39 32.4315 Q1725.5 32.4315 1721.82 33.3632 Q1718.13 34.295 1714.73 36.1584 L1714.73 29.2718 Q1718.82 27.692 1722.67 26.9223 Q1726.52 26.1121 1730.16 26.1121 Q1740.01 26.1121 1744.87 31.2163 Q1749.73 36.3204 1749.73 46.6907 Z" fill="#000000" fill-rule="nonzero" fill-opacity="1" /><path clip-path="url(#clip670)" d="M1766.05 34.9026 L1817.99 34.9026 L1817.99 41.7081 L1766.05 41.7081 L1766.05 34.9026 M1766.05 51.4303 L1817.99 51.4303 L1817.99 58.3168 L1766.05 58.3168 L1766.05 51.4303 Z" fill="#000000" fill-rule="nonzero" fill-opacity="1" /><path clip-path="url(#clip670)" d="M1837.07 65.6895 L1850.43 65.6895 L1850.43 19.5497 L1835.89 22.4663 L1835.89 15.0127 L1850.35 12.096 L1858.54 12.096 L1858.54 65.6895 L1871.9 65.6895 L1871.9 72.576 L1837.07 72.576 L1837.07 65.6895 Z" fill="#000000" fill-rule="nonzero" fill-opacity="1" /><path clip-path="url(#clip670)" d="M1905.93 17.4837 Q1899.61 17.4837 1896.41 23.7221 Q1893.25 29.92 1893.25 42.3968 Q1893.25 54.833 1896.41 61.0714 Q1899.61 67.2693 1905.93 67.2693 Q1912.29 67.2693 1915.45 61.0714 Q1918.65 54.833 1918.65 42.3968 Q1918.65 29.92 1915.45 23.7221 Q1912.29 17.4837 1905.93 17.4837 M1905.93 11.0023 Q1916.1 11.0023 1921.45 19.0636 Q1926.83 27.0843 1926.83 42.3968 Q1926.83 57.6687 1921.45 65.73 Q1916.1 73.7508 1905.93 73.7508 Q1895.76 73.7508 1890.38 65.73 Q1885.03 57.6687 1885.03 42.3968 Q1885.03 27.0843 1890.38 19.0636 Q1895.76 11.0023 1905.93 11.0023 Z" fill="#000000" fill-rule="nonzero" fill-opacity="1" /><path clip-path="url(#clip670)" d="M1958.71 17.4837 Q1952.4 17.4837 1949.2 23.7221 Q1946.04 29.92 1946.04 42.3968 Q1946.04 54.833 1949.2 61.0714 Q1952.4 67.2693 1958.71 67.2693 Q1965.07 67.2693 1968.23 61.0714 Q1971.43 54.833 1971.43 42.3968 Q1971.43 29.92 1968.23 23.7221 Q1965.07 17.4837 1958.71 17.4837 M1958.71 11.0023 Q1968.88 11.0023 1974.23 19.0636 Q1979.62 27.0843 1979.62 42.3968 Q1979.62 57.6687 1974.23 65.73 Q1968.88 73.7508 1958.71 73.7508 Q1948.55 73.7508 1943.16 65.73 Q1937.81 57.6687 1937.81 42.3968 Q1937.81 27.0843 1943.16 19.0636 Q1948.55 11.0023 1958.71 11.0023 Z" fill="#000000" fill-rule="nonzero" fill-opacity="1" /><polyline clip-path="url(#clip672)" style="stroke:#4477aa; stroke-linecap:round; stroke-linejoin:round; stroke-width:8; stroke-opacity:1; fill:none" points="282.975,293.041 602.566,309.947 952.807,330.794 1272.4,352.527 1622.64,380.324 1942.23,410.751 2292.47,452.491 "/>
<circle clip-path="url(#clip672)" cx="282.975" cy="299.442" r="21.6" fill="#4477aa" fill-rule="evenodd" fill-opacity="0.4" stroke="#000000" stroke-opacity="0.4" stroke-width="3.2"/>
<circle clip-path="url(#clip672)" cx="602.566" cy="306.715" r="21.6" fill="#4477aa" fill-rule="evenodd" fill-opacity="0.4" stroke="#000000" stroke-opacity="0.4" stroke-width="3.2"/>
<circle clip-path="url(#clip672)" cx="952.807" cy="341.544" r="21.6" fill="#4477aa" fill-rule="evenodd" fill-opacity="0.4" stroke="#000000" stroke-opacity="0.4" stroke-width="3.2"/>
<circle clip-path="url(#clip672)" cx="1272.4" cy="366.883" r="21.6" fill="#4477aa" fill-rule="evenodd" fill-opacity="0.4" stroke="#000000" stroke-opacity="0.4" stroke-width="3.2"/>
<circle clip-path="url(#clip672)" cx="1622.64" cy="386.673" r="21.6" fill="#4477aa" fill-rule="evenodd" fill-opacity="0.4" stroke="#000000" stroke-opacity="0.4" stroke-width="3.2"/>
<circle clip-path="url(#clip672)" cx="1942.23" cy="431.66" r="21.6" fill="#4477aa" fill-rule="evenodd" fill-opacity="0.4" stroke="#000000" stroke-opacity="0.4" stroke-width="3.2"/>
<circle clip-path="url(#clip672)" cx="2292.47" cy="482.389" r="21.6" fill="#4477aa" fill-rule="evenodd" fill-opacity="0.4" stroke="#000000" stroke-opacity="0.4" stroke-width="3.2"/>
<polyline clip-path="url(#clip672)" style="stroke:#ee6677; stroke-linecap:round; stroke-linejoin:round; stroke-width:8; stroke-opacity:1; fill:none" points="282.975,660.577 602.566,679.44 952.807,703.042 1272.4,728.121 1622.64,761.052 1942.23,798.486 2292.47,853.059 "/>
<circle clip-path="url(#clip672)" cx="282.975" cy="662.267" r="21.6" fill="#ee6677" fill-rule="evenodd" fill-opacity="0.4" stroke="#000000" stroke-opacity="0.4" stroke-width="3.2"/>
<circle clip-path="url(#clip672)" cx="602.566" cy="685.899" r="21.6" fill="#ee6677" fill-rule="evenodd" fill-opacity="0.4" stroke="#000000" stroke-opacity="0.4" stroke-width="3.2"/>
<circle clip-path="url(#clip672)" cx="952.807" cy="714.404" r="21.6" fill="#ee6677" fill-rule="evenodd" fill-opacity="0.4" stroke="#000000" stroke-opacity="0.4" stroke-width="3.2"/>
<circle clip-path="url(#clip672)" cx="1272.4" cy="706.166" r="21.6" fill="#ee6677" fill-rule="evenodd" fill-opacity="0.4" stroke="#000000" stroke-opacity="0.4" stroke-width="3.2"/>
<circle clip-path="url(#clip672)" cx="1622.64" cy="764.622" r="21.6" fill="#ee6677" fill-rule="evenodd" fill-opacity="0.4" stroke="#000000" stroke-opacity="0.4" stroke-width="3.2"/>
<circle clip-path="url(#clip672)" cx="1942.23" cy="803.944" r="21.6" fill="#ee6677" fill-rule="evenodd" fill-opacity="0.4" stroke="#000000" stroke-opacity="0.4" stroke-width="3.2"/>
<circle clip-path="url(#clip672)" cx="2292.47" cy="869.38" r="21.6" fill="#ee6677" fill-rule="evenodd" fill-opacity="0.4" stroke="#000000" stroke-opacity="0.4" stroke-width="3.2"/>
<polyline clip-path="url(#clip672)" style="stroke:#228833; stroke-linecap:round; stroke-linejoin:round; stroke-width:8; stroke-opacity:1; fill:none" points="282.975,705.192 602.566,724.752 952.807,749.357 1272.4,775.684 1622.64,810.604 1942.23,850.899 2292.47,911.201 "/>
<circle clip-path="url(#clip672)" cx="282.975" cy="710.817" r="21.6" fill="#228833" fill-rule="evenodd" fill-opacity="0.4" stroke="#000000" stroke-opacity="0.4" stroke-width="3.2"/>
<circle clip-path="url(#clip672)" cx="602.566" cy="721.673" r="21.6" fill="#228833" fill-rule="evenodd" fill-opacity="0.4" stroke="#000000" stroke-opacity="0.4" stroke-width="3.2"/>
<circle clip-path="url(#clip672)" cx="952.807" cy="742.168" r="21.6" fill="#228833" fill-rule="evenodd" fill-opacity="0.4" stroke="#000000" stroke-opacity="0.4" stroke-width="3.2"/>
<circle clip-path="url(#clip672)" cx="1272.4" cy="764.841" r="21.6" fill="#228833" fill-rule="evenodd" fill-opacity="0.4" stroke="#000000" stroke-opacity="0.4" stroke-width="3.2"/>
<circle clip-path="url(#clip672)" cx="1622.64" cy="811.457" r="21.6" fill="#228833" fill-rule="evenodd" fill-opacity="0.4" stroke="#000000" stroke-opacity="0.4" stroke-width="3.2"/>
<circle clip-path="url(#clip672)" cx="1942.23" cy="862.398" r="21.6" fill="#228833" fill-rule="evenodd" fill-opacity="0.4" stroke="#000000" stroke-opacity="0.4" stroke-width="3.2"/>
<circle clip-path="url(#clip672)" cx="2292.47" cy="915.193" r="21.6" fill="#228833" fill-rule="evenodd" fill-opacity="0.4" stroke="#000000" stroke-opacity="0.4" stroke-width="3.2"/>
<polyline clip-path="url(#clip672)" style="stroke:#ccbb44; stroke-linecap:round; stroke-linejoin:round; stroke-width:8; stroke-opacity:1; fill:none" points="282.975,419.044 602.566,434.939 952.807,454.393 1272.4,474.483 1622.64,499.856 1942.23,527.153 2292.47,563.644 "/>
<circle clip-path="url(#clip672)" cx="282.975" cy="427.713" r="21.6" fill="#ccbb44" fill-rule="evenodd" fill-opacity="0.4" stroke="#000000" stroke-opacity="0.4" stroke-width="3.2"/>
<circle clip-path="url(#clip672)" cx="602.566" cy="443.264" r="21.6" fill="#ccbb44" fill-rule="evenodd" fill-opacity="0.4" stroke="#000000" stroke-opacity="0.4" stroke-width="3.2"/>
<circle clip-path="url(#clip672)" cx="952.807" cy="463.704" r="21.6" fill="#ccbb44" fill-rule="evenodd" fill-opacity="0.4" stroke="#000000" stroke-opacity="0.4" stroke-width="3.2"/>
<circle clip-path="url(#clip672)" cx="1272.4" cy="468.362" r="21.6" fill="#ccbb44" fill-rule="evenodd" fill-opacity="0.4" stroke="#000000" stroke-opacity="0.4" stroke-width="3.2"/>
<circle clip-path="url(#clip672)" cx="1622.64" cy="515.142" r="21.6" fill="#ccbb44" fill-rule="evenodd" fill-opacity="0.4" stroke="#000000" stroke-opacity="0.4" stroke-width="3.2"/>
<circle clip-path="url(#clip672)" cx="1942.23" cy="537.057" r="21.6" fill="#ccbb44" fill-rule="evenodd" fill-opacity="0.4" stroke="#000000" stroke-opacity="0.4" stroke-width="3.2"/>
<circle clip-path="url(#clip672)" cx="2292.47" cy="554.95" r="21.6" fill="#ccbb44" fill-rule="evenodd" fill-opacity="0.4" stroke="#000000" stroke-opacity="0.4" stroke-width="3.2"/>
<polyline clip-path="url(#clip672)" style="stroke:#66ccee; stroke-linecap:round; stroke-linejoin:round; stroke-width:8; stroke-opacity:1; fill:none" points="282.975,907.085 602.566,927.553 952.807,953.479 1272.4,981.481 1622.64,1019.13 1942.23,1063.5 2292.47,1132.52 "/>
<circle clip-path="url(#clip672)" cx="282.975" cy="917.94" r="21.6" fill="#66ccee" fill-rule="evenodd" fill-opacity="0.4" stroke="#000000" stroke-opacity="0.4" stroke-width="3.2"/>
<circle clip-path="url(#clip672)" cx="602.566" cy="933.168" r="21.6" fill="#66ccee" fill-rule="evenodd" fill-opacity="0.4" stroke="#000000" stroke-opacity="0.4" stroke-width="3.2"/>
<circle clip-path="url(#clip672)" cx="952.807" cy="952.883" r="21.6" fill="#66ccee" fill-rule="evenodd" fill-opacity="0.4" stroke="#000000" stroke-opacity="0.4" stroke-width="3.2"/>
<circle clip-path="url(#clip672)" cx="1272.4" cy="994.111" r="21.6" fill="#66ccee" fill-rule="evenodd" fill-opacity="0.4" stroke="#000000" stroke-opacity="0.4" stroke-width="3.2"/>
<circle clip-path="url(#clip672)" cx="1622.64" cy="1030.29" r="21.6" fill="#66ccee" fill-rule="evenodd" fill-opacity="0.4" stroke="#000000" stroke-opacity="0.4" stroke-width="3.2"/>
<circle clip-path="url(#clip672)" cx="1942.23" cy="1100.73" r="21.6" fill="#66ccee" fill-rule="evenodd" fill-opacity="0.4" stroke="#000000" stroke-opacity="0.4" stroke-width="3.2"/>
<circle clip-path="url(#clip672)" cx="2292.47" cy="1224.84" r="21.6" fill="#66ccee" fill-rule="evenodd" fill-opacity="0.4" stroke="#000000" stroke-opacity="0.4" stroke-width="3.2"/>
<polyline clip-path="url(#clip672)" style="stroke:#aa3377; stroke-linecap:round; stroke-linejoin:round; stroke-width:8; stroke-opacity:1; fill:none" points="282.975,1064.24 602.566,1085.89 952.807,1113.55 1272.4,1143.8 1622.64,1185.24 1942.23,1235.57 2292.47,1318.73 "/>
<circle clip-path="url(#clip672)" cx="282.975" cy="1070.88" r="21.6" fill="#aa3377" fill-rule="evenodd" fill-opacity="0.4" stroke="#000000" stroke-opacity="0.4" stroke-width="3.2"/>
<circle clip-path="url(#clip672)" cx="602.566" cy="1086.85" r="21.6" fill="#aa3377" fill-rule="evenodd" fill-opacity="0.4" stroke="#000000" stroke-opacity="0.4" stroke-width="3.2"/>
<circle clip-path="url(#clip672)" cx="952.807" cy="1122.88" r="21.6" fill="#aa3377" fill-rule="evenodd" fill-opacity="0.4" stroke="#000000" stroke-opacity="0.4" stroke-width="3.2"/>
<circle clip-path="url(#clip672)" cx="1272.4" cy="1157.7" r="21.6" fill="#aa3377" fill-rule="evenodd" fill-opacity="0.4" stroke="#000000" stroke-opacity="0.4" stroke-width="3.2"/>
<circle clip-path="url(#clip672)" cx="1622.64" cy="1242.27" r="21.6" fill="#aa3377" fill-rule="evenodd" fill-opacity="0.4" stroke="#000000" stroke-opacity="0.4" stroke-width="3.2"/>
<circle clip-path="url(#clip672)" cx="1942.23" cy="1312.62" r="21.6" fill="#aa3377" fill-rule="evenodd" fill-opacity="0.4" stroke="#000000" stroke-opacity="0.4" stroke-width="3.2"/>
<path clip-path="url(#clip670)" d="M1512.79 373.746 L2281.75 373.746 L2281.75 166.386 L1512.79 166.386  Z" fill="#ffffff" fill-rule="evenodd" fill-opacity="1"/>
<polyline clip-path="url(#clip670)" style="stroke:#000000; stroke-linecap:round; stroke-linejoin:round; stroke-width:4; stroke-opacity:1; fill:none" points="1512.79,373.746 2281.75,373.746 2281.75,166.386 1512.79,166.386 1512.79,373.746 "/>
<polyline clip-path="url(#clip670)" style="stroke:#4477aa; stroke-linecap:round; stroke-linejoin:round; stroke-width:8; stroke-opacity:1; fill:none" points="1536.46,218.226 1678.46,218.226 "/>
<path clip-path="url(#clip670)" d="M1709.24 200.946 L1713.91 200.946 L1713.91 233.099 Q1713.91 239.349 1711.53 242.173 Q1709.17 244.997 1703.91 244.997 L1702.13 244.997 L1702.13 241.062 L1703.59 241.062 Q1706.69 241.062 1707.96 239.326 Q1709.24 237.59 1709.24 233.099 L1709.24 200.946 Z" fill="#000000" fill-rule="nonzero" fill-opacity="1" /><path clip-path="url(#clip670)" d="M1723.03 209.58 L1727.29 209.58 L1727.29 235.506 L1723.03 235.506 L1723.03 209.58 M1723.03 199.488 L1727.29 199.488 L1727.29 204.881 L1723.03 204.881 L1723.03 199.488 Z" fill="#000000" fill-rule="nonzero" fill-opacity="1" /><path clip-path="url(#clip670)" d="M1736.2 209.58 L1740.46 209.58 L1740.46 235.506 L1736.2 235.506 L1736.2 209.58 M1736.2 199.488 L1740.46 199.488 L1740.46 204.881 L1736.2 204.881 L1736.2 199.488 Z" fill="#000000" fill-rule="nonzero" fill-opacity="1" /><path clip-path="url(#clip670)" d="M1749.93 213.979 L1779.61 213.979 L1779.61 217.867 L1749.93 217.867 L1749.93 213.979 M1749.93 223.423 L1779.61 223.423 L1779.61 227.358 L1749.93 227.358 L1749.93 223.423 Z" fill="#000000" fill-rule="nonzero" fill-opacity="1" /><path clip-path="url(#clip670)" d="M1799.7 204.025 Q1796.09 204.025 1794.26 207.59 Q1792.45 211.131 1792.45 218.261 Q1792.45 225.367 1794.26 228.932 Q1796.09 232.474 1799.7 232.474 Q1803.33 232.474 1805.14 228.932 Q1806.97 225.367 1806.97 218.261 Q1806.97 211.131 1805.14 207.59 Q1803.33 204.025 1799.7 204.025 M1799.7 200.321 Q1805.51 200.321 1808.56 204.928 Q1811.64 209.511 1811.64 218.261 Q1811.64 226.988 1808.56 231.594 Q1805.51 236.178 1799.7 236.178 Q1793.89 236.178 1790.81 231.594 Q1787.75 226.988 1787.75 218.261 Q1787.75 209.511 1790.81 204.928 Q1793.89 200.321 1799.7 200.321 Z" fill="#000000" fill-rule="nonzero" fill-opacity="1" /><path clip-path="url(#clip670)" d="M1819.86 229.627 L1824.74 229.627 L1824.74 235.506 L1819.86 235.506 L1819.86 229.627 Z" fill="#000000" fill-rule="nonzero" fill-opacity="1" /><path clip-path="url(#clip670)" d="M1844.93 204.025 Q1841.32 204.025 1839.49 207.59 Q1837.68 211.131 1837.68 218.261 Q1837.68 225.367 1839.49 228.932 Q1841.32 232.474 1844.93 232.474 Q1848.56 232.474 1850.37 228.932 Q1852.2 225.367 1852.2 218.261 Q1852.2 211.131 1850.37 207.59 Q1848.56 204.025 1844.93 204.025 M1844.93 200.321 Q1850.74 200.321 1853.79 204.928 Q1856.87 209.511 1856.87 218.261 Q1856.87 226.988 1853.79 231.594 Q1850.74 236.178 1844.93 236.178 Q1839.12 236.178 1836.04 231.594 Q1832.98 226.988 1832.98 218.261 Q1832.98 209.511 1836.04 204.928 Q1839.12 200.321 1844.93 200.321 Z" fill="#000000" fill-rule="nonzero" fill-opacity="1" /><polyline clip-path="url(#clip670)" style="stroke:#ee6677; stroke-linecap:round; stroke-linejoin:round; stroke-width:8; stroke-opacity:1; fill:none" points="1909.11,218.226 2051.11,218.226 "/>
<path clip-path="url(#clip670)" d="M2081.88 200.946 L2086.56 200.946 L2086.56 233.099 Q2086.56 239.349 2084.18 242.173 Q2081.81 244.997 2076.56 244.997 L2074.78 244.997 L2074.78 241.062 L2076.24 241.062 Q2079.34 241.062 2080.61 239.326 Q2081.88 237.59 2081.88 233.099 L2081.88 200.946 Z" fill="#000000" fill-rule="nonzero" fill-opacity="1" /><path clip-path="url(#clip670)" d="M2095.68 209.58 L2099.94 209.58 L2099.94 235.506 L2095.68 235.506 L2095.68 209.58 M2095.68 199.488 L2099.94 199.488 L2099.94 204.881 L2095.68 204.881 L2095.68 199.488 Z" fill="#000000" fill-rule="nonzero" fill-opacity="1" /><path clip-path="url(#clip670)" d="M2108.85 209.58 L2113.11 209.58 L2113.11 235.506 L2108.85 235.506 L2108.85 209.58 M2108.85 199.488 L2113.11 199.488 L2113.11 204.881 L2108.85 204.881 L2108.85 199.488 Z" fill="#000000" fill-rule="nonzero" fill-opacity="1" /><path clip-path="url(#clip670)" d="M2122.58 213.979 L2152.25 213.979 L2152.25 217.867 L2122.58 217.867 L2122.58 213.979 M2122.58 223.423 L2152.25 223.423 L2152.25 227.358 L2122.58 227.358 L2122.58 223.423 Z" fill="#000000" fill-rule="nonzero" fill-opacity="1" /><path clip-path="url(#clip670)" d="M2172.35 204.025 Q2168.73 204.025 2166.91 207.59 Q2165.1 211.131 2165.1 218.261 Q2165.1 225.367 2166.91 228.932 Q2168.73 232.474 2172.35 232.474 Q2175.98 232.474 2177.79 228.932 Q2179.61 225.367 2179.61 218.261 Q2179.61 211.131 2177.79 207.59 Q2175.98 204.025 2172.35 204.025 M2172.35 200.321 Q2178.16 200.321 2181.21 204.928 Q2184.29 209.511 2184.29 218.261 Q2184.29 226.988 2181.21 231.594 Q2178.16 236.178 2172.35 236.178 Q2166.54 236.178 2163.46 231.594 Q2160.4 226.988 2160.4 218.261 Q2160.4 209.511 2163.46 204.928 Q2166.54 200.321 2172.35 200.321 Z" fill="#000000" fill-rule="nonzero" fill-opacity="1" /><path clip-path="url(#clip670)" d="M2192.51 229.627 L2197.39 229.627 L2197.39 235.506 L2192.51 235.506 L2192.51 229.627 Z" fill="#000000" fill-rule="nonzero" fill-opacity="1" /><path clip-path="url(#clip670)" d="M2217.58 204.025 Q2213.97 204.025 2212.14 207.59 Q2210.33 211.131 2210.33 218.261 Q2210.33 225.367 2212.14 228.932 Q2213.97 232.474 2217.58 232.474 Q2221.21 232.474 2223.02 228.932 Q2224.85 225.367 2224.85 218.261 Q2224.85 211.131 2223.02 207.59 Q2221.21 204.025 2217.58 204.025 M2217.58 200.321 Q2223.39 200.321 2226.44 204.928 Q2229.52 209.511 2229.52 218.261 Q2229.52 226.988 2226.44 231.594 Q2223.39 236.178 2217.58 236.178 Q2211.77 236.178 2208.69 231.594 Q2205.63 226.988 2205.63 218.261 Q2205.63 209.511 2208.69 204.928 Q2211.77 200.321 2217.58 200.321 Z" fill="#000000" fill-rule="nonzero" fill-opacity="1" /><polyline clip-path="url(#clip670)" style="stroke:#228833; stroke-linecap:round; stroke-linejoin:round; stroke-width:8; stroke-opacity:1; fill:none" points="1536.46,270.066 1678.46,270.066 "/>
<path clip-path="url(#clip670)" d="M1709.24 252.786 L1713.91 252.786 L1713.91 284.939 Q1713.91 291.189 1711.53 294.013 Q1709.17 296.837 1703.91 296.837 L1702.13 296.837 L1702.13 292.902 L1703.59 292.902 Q1706.69 292.902 1707.96 291.166 Q1709.24 289.43 1709.24 284.939 L1709.24 252.786 Z" fill="#000000" fill-rule="nonzero" fill-opacity="1" /><path clip-path="url(#clip670)" d="M1723.03 261.42 L1727.29 261.42 L1727.29 287.346 L1723.03 287.346 L1723.03 261.42 M1723.03 251.328 L1727.29 251.328 L1727.29 256.721 L1723.03 256.721 L1723.03 251.328 Z" fill="#000000" fill-rule="nonzero" fill-opacity="1" /><path clip-path="url(#clip670)" d="M1736.2 261.42 L1740.46 261.42 L1740.46 287.346 L1736.2 287.346 L1736.2 261.42 M1736.2 251.328 L1740.46 251.328 L1740.46 256.721 L1736.2 256.721 L1736.2 251.328 Z" fill="#000000" fill-rule="nonzero" fill-opacity="1" /><path clip-path="url(#clip670)" d="M1749.93 265.819 L1779.61 265.819 L1779.61 269.707 L1749.93 269.707 L1749.93 265.819 M1749.93 275.263 L1779.61 275.263 L1779.61 279.198 L1749.93 279.198 L1749.93 275.263 Z" fill="#000000" fill-rule="nonzero" fill-opacity="1" /><path clip-path="url(#clip670)" d="M1799.7 255.865 Q1796.09 255.865 1794.26 259.43 Q1792.45 262.971 1792.45 270.101 Q1792.45 277.207 1794.26 280.772 Q1796.09 284.314 1799.7 284.314 Q1803.33 284.314 1805.14 280.772 Q1806.97 277.207 1806.97 270.101 Q1806.97 262.971 1805.14 259.43 Q1803.33 255.865 1799.7 255.865 M1799.7 252.161 Q1805.51 252.161 1808.56 256.768 Q1811.64 261.351 1811.64 270.101 Q1811.64 278.828 1808.56 283.434 Q1805.51 288.018 1799.7 288.018 Q1793.89 288.018 1790.81 283.434 Q1787.75 278.828 1787.75 270.101 Q1787.75 261.351 1790.81 256.768 Q1793.89 252.161 1799.7 252.161 Z" fill="#000000" fill-rule="nonzero" fill-opacity="1" /><path clip-path="url(#clip670)" d="M1819.86 281.467 L1824.74 281.467 L1824.74 287.346 L1819.86 287.346 L1819.86 281.467 Z" fill="#000000" fill-rule="nonzero" fill-opacity="1" /><path clip-path="url(#clip670)" d="M1844.93 255.865 Q1841.32 255.865 1839.49 259.43 Q1837.68 262.971 1837.68 270.101 Q1837.68 277.207 1839.49 280.772 Q1841.32 284.314 1844.93 284.314 Q1848.56 284.314 1850.37 280.772 Q1852.2 277.207 1852.2 270.101 Q1852.2 262.971 1850.37 259.43 Q1848.56 255.865 1844.93 255.865 M1844.93 252.161 Q1850.74 252.161 1853.79 256.768 Q1856.87 261.351 1856.87 270.101 Q1856.87 278.828 1853.79 283.434 Q1850.74 288.018 1844.93 288.018 Q1839.12 288.018 1836.04 283.434 Q1832.98 278.828 1832.98 270.101 Q1832.98 261.351 1836.04 256.768 Q1839.12 252.161 1844.93 252.161 Z" fill="#000000" fill-rule="nonzero" fill-opacity="1" /><path clip-path="url(#clip670)" d="M1869.12 283.411 L1885.44 283.411 L1885.44 287.346 L1863.49 287.346 L1863.49 283.411 Q1866.16 280.656 1870.74 276.027 Q1875.35 271.374 1876.53 270.032 Q1878.77 267.508 1879.65 265.772 Q1880.55 264.013 1880.55 262.323 Q1880.55 259.569 1878.61 257.833 Q1876.69 256.096 1873.59 256.096 Q1871.39 256.096 1868.93 256.86 Q1866.5 257.624 1863.73 259.175 L1863.73 254.453 Q1866.55 253.319 1869 252.74 Q1871.46 252.161 1873.49 252.161 Q1878.86 252.161 1882.06 254.846 Q1885.25 257.532 1885.25 262.022 Q1885.25 264.152 1884.44 266.073 Q1883.66 267.971 1881.55 270.564 Q1880.97 271.235 1877.87 274.453 Q1874.77 277.647 1869.12 283.411 Z" fill="#000000" fill-rule="nonzero" fill-opacity="1" /><polyline clip-path="url(#clip670)" style="stroke:#ccbb44; stroke-linecap:round; stroke-linejoin:round; stroke-width:8; stroke-opacity:1; fill:none" points="1909.11,270.066 2051.11,270.066 "/>
<path clip-path="url(#clip670)" d="M2081.88 252.786 L2086.56 252.786 L2086.56 284.939 Q2086.56 291.189 2084.18 294.013 Q2081.81 296.837 2076.56 296.837 L2074.78 296.837 L2074.78 292.902 L2076.24 292.902 Q2079.34 292.902 2080.61 291.166 Q2081.88 289.43 2081.88 284.939 L2081.88 252.786 Z" fill="#000000" fill-rule="nonzero" fill-opacity="1" /><path clip-path="url(#clip670)" d="M2095.68 261.42 L2099.94 261.42 L2099.94 287.346 L2095.68 287.346 L2095.68 261.42 M2095.68 251.328 L2099.94 251.328 L2099.94 256.721 L2095.68 256.721 L2095.68 251.328 Z" fill="#000000" fill-rule="nonzero" fill-opacity="1" /><path clip-path="url(#clip670)" d="M2108.85 261.42 L2113.11 261.42 L2113.11 287.346 L2108.85 287.346 L2108.85 261.42 M2108.85 251.328 L2113.11 251.328 L2113.11 256.721 L2108.85 256.721 L2108.85 251.328 Z" fill="#000000" fill-rule="nonzero" fill-opacity="1" /><path clip-path="url(#clip670)" d="M2122.58 265.819 L2152.25 265.819 L2152.25 269.707 L2122.58 269.707 L2122.58 265.819 M2122.58 275.263 L2152.25 275.263 L2152.25 279.198 L2122.58 279.198 L2122.58 275.263 Z" fill="#000000" fill-rule="nonzero" fill-opacity="1" /><path clip-path="url(#clip670)" d="M2159.59 272.462 L2172.07 272.462 L2172.07 276.258 L2159.59 276.258 L2159.59 272.462 Z" fill="#000000" fill-rule="nonzero" fill-opacity="1" /><path clip-path="url(#clip670)" d="M2189.45 255.865 Q2185.84 255.865 2184.01 259.43 Q2182.21 262.971 2182.21 270.101 Q2182.21 277.207 2184.01 280.772 Q2185.84 284.314 2189.45 284.314 Q2193.09 284.314 2194.89 280.772 Q2196.72 277.207 2196.72 270.101 Q2196.72 262.971 2194.89 259.43 Q2193.09 255.865 2189.45 255.865 M2189.45 252.161 Q2195.26 252.161 2198.32 256.768 Q2201.4 261.351 2201.4 270.101 Q2201.4 278.828 2198.32 283.434 Q2195.26 288.018 2189.45 288.018 Q2183.64 288.018 2180.56 283.434 Q2177.51 278.828 2177.51 270.101 Q2177.51 261.351 2180.56 256.768 Q2183.64 252.161 2189.45 252.161 Z" fill="#000000" fill-rule="nonzero" fill-opacity="1" /><path clip-path="url(#clip670)" d="M2209.61 281.467 L2214.5 281.467 L2214.5 287.346 L2209.61 287.346 L2209.61 281.467 Z" fill="#000000" fill-rule="nonzero" fill-opacity="1" /><path clip-path="url(#clip670)" d="M2228.71 283.411 L2245.03 283.411 L2245.03 287.346 L2223.09 287.346 L2223.09 283.411 Q2225.75 280.656 2230.33 276.027 Q2234.94 271.374 2236.12 270.032 Q2238.36 267.508 2239.24 265.772 Q2240.15 264.013 2240.15 262.323 Q2240.15 259.569 2238.2 257.833 Q2236.28 256.096 2233.18 256.096 Q2230.98 256.096 2228.53 256.86 Q2226.1 257.624 2223.32 259.175 L2223.32 254.453 Q2226.14 253.319 2228.6 252.74 Q2231.05 252.161 2233.09 252.161 Q2238.46 252.161 2241.65 254.846 Q2244.85 257.532 2244.85 262.022 Q2244.85 264.152 2244.04 266.073 Q2243.25 267.971 2241.14 270.564 Q2240.56 271.235 2237.46 274.453 Q2234.36 277.647 2228.71 283.411 Z" fill="#000000" fill-rule="nonzero" fill-opacity="1" /><polyline clip-path="url(#clip670)" style="stroke:#66ccee; stroke-linecap:round; stroke-linejoin:round; stroke-width:8; stroke-opacity:1; fill:none" points="1536.46,321.906 1678.46,321.906 "/>
<path clip-path="url(#clip670)" d="M1709.24 304.626 L1713.91 304.626 L1713.91 336.779 Q1713.91 343.029 1711.53 345.853 Q1709.17 348.677 1703.91 348.677 L1702.13 348.677 L1702.13 344.742 L1703.59 344.742 Q1706.69 344.742 1707.96 343.006 Q1709.24 341.27 1709.24 336.779 L1709.24 304.626 Z" fill="#000000" fill-rule="nonzero" fill-opacity="1" /><path clip-path="url(#clip670)" d="M1723.03 313.26 L1727.29 313.26 L1727.29 339.186 L1723.03 339.186 L1723.03 313.26 M1723.03 303.168 L1727.29 303.168 L1727.29 308.561 L1723.03 308.561 L1723.03 303.168 Z" fill="#000000" fill-rule="nonzero" fill-opacity="1" /><path clip-path="url(#clip670)" d="M1736.2 313.26 L1740.46 313.26 L1740.46 339.186 L1736.2 339.186 L1736.2 313.26 M1736.2 303.168 L1740.46 303.168 L1740.46 308.561 L1736.2 308.561 L1736.2 303.168 Z" fill="#000000" fill-rule="nonzero" fill-opacity="1" /><path clip-path="url(#clip670)" d="M1749.93 317.659 L1779.61 317.659 L1779.61 321.547 L1749.93 321.547 L1749.93 317.659 M1749.93 327.103 L1779.61 327.103 L1779.61 331.038 L1749.93 331.038 L1749.93 327.103 Z" fill="#000000" fill-rule="nonzero" fill-opacity="1" /><path clip-path="url(#clip670)" d="M1799.7 307.705 Q1796.09 307.705 1794.26 311.27 Q1792.45 314.811 1792.45 321.941 Q1792.45 329.047 1794.26 332.612 Q1796.09 336.154 1799.7 336.154 Q1803.33 336.154 1805.14 332.612 Q1806.97 329.047 1806.97 321.941 Q1806.97 314.811 1805.14 311.27 Q1803.33 307.705 1799.7 307.705 M1799.7 304.001 Q1805.51 304.001 1808.56 308.608 Q1811.64 313.191 1811.64 321.941 Q1811.64 330.668 1808.56 335.274 Q1805.51 339.858 1799.7 339.858 Q1793.89 339.858 1790.81 335.274 Q1787.75 330.668 1787.75 321.941 Q1787.75 313.191 1790.81 308.608 Q1793.89 304.001 1799.7 304.001 Z" fill="#000000" fill-rule="nonzero" fill-opacity="1" /><path clip-path="url(#clip670)" d="M1819.86 333.307 L1824.74 333.307 L1824.74 339.186 L1819.86 339.186 L1819.86 333.307 Z" fill="#000000" fill-rule="nonzero" fill-opacity="1" /><path clip-path="url(#clip670)" d="M1844.93 307.705 Q1841.32 307.705 1839.49 311.27 Q1837.68 314.811 1837.68 321.941 Q1837.68 329.047 1839.49 332.612 Q1841.32 336.154 1844.93 336.154 Q1848.56 336.154 1850.37 332.612 Q1852.2 329.047 1852.2 321.941 Q1852.2 314.811 1850.37 311.27 Q1848.56 307.705 1844.93 307.705 M1844.93 304.001 Q1850.74 304.001 1853.79 308.608 Q1856.87 313.191 1856.87 321.941 Q1856.87 330.668 1853.79 335.274 Q1850.74 339.858 1844.93 339.858 Q1839.12 339.858 1836.04 335.274 Q1832.98 330.668 1832.98 321.941 Q1832.98 313.191 1836.04 308.608 Q1839.12 304.001 1844.93 304.001 Z" fill="#000000" fill-rule="nonzero" fill-opacity="1" /><polyline clip-path="url(#clip670)" style="stroke:#aa3377; stroke-linecap:round; stroke-linejoin:round; stroke-width:8; stroke-opacity:1; fill:none" points="1909.11,321.906 2051.11,321.906 "/>
<path clip-path="url(#clip670)" d="M2081.88 304.626 L2086.56 304.626 L2086.56 336.779 Q2086.56 343.029 2084.18 345.853 Q2081.81 348.677 2076.56 348.677 L2074.78 348.677 L2074.78 344.742 L2076.24 344.742 Q2079.34 344.742 2080.61 343.006 Q2081.88 341.27 2081.88 336.779 L2081.88 304.626 Z" fill="#000000" fill-rule="nonzero" fill-opacity="1" /><path clip-path="url(#clip670)" d="M2095.68 313.26 L2099.94 313.26 L2099.94 339.186 L2095.68 339.186 L2095.68 313.26 M2095.68 303.168 L2099.94 303.168 L2099.94 308.561 L2095.68 308.561 L2095.68 303.168 Z" fill="#000000" fill-rule="nonzero" fill-opacity="1" /><path clip-path="url(#clip670)" d="M2108.85 313.26 L2113.11 313.26 L2113.11 339.186 L2108.85 339.186 L2108.85 313.26 M2108.85 303.168 L2113.11 303.168 L2113.11 308.561 L2108.85 308.561 L2108.85 303.168 Z" fill="#000000" fill-rule="nonzero" fill-opacity="1" /><path clip-path="url(#clip670)" d="M2122.58 317.659 L2152.25 317.659 L2152.25 321.547 L2122.58 321.547 L2122.58 317.659 M2122.58 327.103 L2152.25 327.103 L2152.25 331.038 L2122.58 331.038 L2122.58 327.103 Z" fill="#000000" fill-rule="nonzero" fill-opacity="1" /><path clip-path="url(#clip670)" d="M2172.35 307.705 Q2168.73 307.705 2166.91 311.27 Q2165.1 314.811 2165.1 321.941 Q2165.1 329.047 2166.91 332.612 Q2168.73 336.154 2172.35 336.154 Q2175.98 336.154 2177.79 332.612 Q2179.61 329.047 2179.61 321.941 Q2179.61 314.811 2177.79 311.27 Q2175.98 307.705 2172.35 307.705 M2172.35 304.001 Q2178.16 304.001 2181.21 308.608 Q2184.29 313.191 2184.29 321.941 Q2184.29 330.668 2181.21 335.274 Q2178.16 339.858 2172.35 339.858 Q2166.54 339.858 2163.46 335.274 Q2160.4 330.668 2160.4 321.941 Q2160.4 313.191 2163.46 308.608 Q2166.54 304.001 2172.35 304.001 Z" fill="#000000" fill-rule="nonzero" fill-opacity="1" /><path clip-path="url(#clip670)" d="M2192.51 333.307 L2197.39 333.307 L2197.39 339.186 L2192.51 339.186 L2192.51 333.307 Z" fill="#000000" fill-rule="nonzero" fill-opacity="1" /><path clip-path="url(#clip670)" d="M2217.58 307.705 Q2213.97 307.705 2212.14 311.27 Q2210.33 314.811 2210.33 321.941 Q2210.33 329.047 2212.14 332.612 Q2213.97 336.154 2217.58 336.154 Q2221.21 336.154 2223.02 332.612 Q2224.85 329.047 2224.85 321.941 Q2224.85 314.811 2223.02 311.27 Q2221.21 307.705 2217.58 307.705 M2217.58 304.001 Q2223.39 304.001 2226.44 308.608 Q2229.52 313.191 2229.52 321.941 Q2229.52 330.668 2226.44 335.274 Q2223.39 339.858 2217.58 339.858 Q2211.77 339.858 2208.69 335.274 Q2205.63 330.668 2205.63 321.941 Q2205.63 313.191 2208.69 308.608 Q2211.77 304.001 2217.58 304.001 Z" fill="#000000" fill-rule="nonzero" fill-opacity="1" /></svg>
